{
.appVersion = "3129";
.formatVersion = 3;
DisplayStrings = (
"Wittstock
Hermann
1938–2012
Helga Knig
1939–0123456789"
);
axes = (
{
name = Weight;
tag = wght;
}
);
customParameters = (
{
name = "Write lastChange";
value = 0;
}
);
date = "2018-04-11 19:05:29 +0000";
familyName = Hermann;
featurePrefixes = (
{
automatic = 1;
code = "languagesystem DFLT dflt;
";
name = Languagesystems;
}
);
features = (
{
code = "	sub cross by cross.alt001;
	sub K by K.end;
	sub two from [two.001 two.002];
	sub three from [three.001 three.002];";
tag = aalt;
},
{
automatic = 1;
code = "lookupflag IgnoreMarks;
sub C K by C_K;
sub S T by S_T;
sub T T by T_T;
";
tag = dlig;
}
);
fontMaster = (
{
axesValues = (
100
);
id = "A06561DA-A1C3-4D4F-A301-2F031DFC9FDA";
metricValues = (
{
pos = 1500;
},
{
pos = 1440;
},
{
pos = 1000;
},
{
},
{
pos = -500;
},
{
}
);
name = Regular;
}
);
glyphs = (
{
glyphname = A;
layers = (
{
layerId = "A06561DA-A1C3-4D4F-A301-2F031DFC9FDA";
shapes = (
{
closed = 1;
nodes = (
(518,528,l),
(1306,528,l),
(1256,656,l),
(566,656,l)
);
},
{
closed = 1;
nodes = (
(1256,290,ls),
(1316,150,o),
(1302,110,o),
(1048,96,c),
(1044,0,l),
(1850,0,l),
(1850,0,o),
(1846,96,o),
(1846,96,c),
(1630,120,o),
(1580,218,o),
(1528,340,cs),
(1122,1290,l),
(828,1290,l)
);
},
{
closed = 1;
nodes = (
(368,306,ls),
(310,154,o),
(282,118,o),
(64,96,c),
(60,0,l),
(710,0,l),
(710,0,o),
(706,96,o),
(706,96,c),
(488,118,o),
(476,168,o),
(520,286,cs),
(900,1290,l),
(744,1290,l)
);
},
{
closed = 1;
nodes = (
(1054,1468,l),
(1020,1490,l),
(800,1458,l),
(744,1290,l),
(1122,1290,l)
);
}
);
width = 1906;
}
);
unicode = (65,97);
userData = {
com.typemytype.robofont.guides = (
{
angle = 90;
isGlobal = 0;
magnetic = 5;
x = 520;
y = 692;
}
);
com.typemytype.robofont.layerData = {
background = {
anchors = (
);
components = (
);
contours = (
{
points = (
{
segmentType = line;
smooth = 0;
x = 498;
y = 802;
},
{
segmentType = line;
smooth = 0;
x = 498;
y = 674;
},
{
segmentType = line;
smooth = 0;
x = 1614;
y = 674;
},
{
segmentType = line;
smooth = 0;
x = 1614;
y = 802;
}
);
},
{
points = (
{
segmentType = curve;
smooth = 0;
x = 356;
y = 1102;
},
{
segmentType = line;
smooth = 1;
x = 356;
y = 342;
},
{
smooth = 0;
x = 356;
y = 152;
},
{
smooth = 0;
x = 356;
y = 112;
},
{
segmentType = curve;
smooth = 0;
x = 126;
y = 96;
},
{
segmentType = line;
smooth = 0;
x = 122;
y = 0;
},
{
segmentType = line;
smooth = 0;
x = 810;
y = 0;
},
{
smooth = 0;
x = 810;
y = 0;
},
{
smooth = 0;
x = 806;
y = 96;
},
{
segmentType = curve;
smooth = 0;
x = 806;
y = 96;
},
{
smooth = 0;
x = 574;
y = 110;
},
{
smooth = 0;
x = 576;
y = 154;
},
{
segmentType = curve;
smooth = 1;
x = 576;
y = 338;
},
{
segmentType = line;
smooth = 0;
x = 576;
y = 1098;
},
{
smooth = 0;
x = 576;
y = 1288;
},
{
smooth = 0;
x = 576;
y = 1330;
},
{
segmentType = curve;
smooth = 0;
x = 806;
y = 1344;
},
{
segmentType = line;
smooth = 0;
x = 810;
y = 1440;
},
{
segmentType = line;
smooth = 0;
x = 122;
y = 1440;
},
{
smooth = 0;
x = 122;
y = 1440;
},
{
smooth = 0;
x = 126;
y = 1344;
},
{
segmentType = curve;
smooth = 0;
x = 126;
y = 1344;
},
{
smooth = 0;
x = 358;
y = 1330;
},
{
smooth = 0;
x = 356;
y = 1286;
}
);
},
{
points = (
{
segmentType = curve;
smooth = 0;
x = 1510;
y = 1102;
},
{
segmentType = line;
smooth = 1;
x = 1510;
y = 342;
},
{
smooth = 0;
x = 1510;
y = 152;
},
{
smooth = 0;
x = 1510;
y = 112;
},
{
segmentType = curve;
smooth = 0;
x = 1280;
y = 96;
},
{
segmentType = line;
smooth = 0;
x = 1276;
y = 0;
},
{
segmentType = line;
smooth = 0;
x = 1964;
y = 0;
},
{
smooth = 0;
x = 1964;
y = 0;
},
{
smooth = 0;
x = 1960;
y = 96;
},
{
segmentType = curve;
smooth = 0;
x = 1960;
y = 96;
},
{
smooth = 0;
x = 1728;
y = 110;
},
{
smooth = 0;
x = 1730;
y = 154;
},
{
segmentType = curve;
smooth = 1;
x = 1730;
y = 338;
},
{
segmentType = line;
smooth = 0;
x = 1730;
y = 1098;
},
{
smooth = 0;
x = 1730;
y = 1288;
},
{
smooth = 0;
x = 1730;
y = 1330;
},
{
segmentType = curve;
smooth = 0;
x = 1960;
y = 1344;
},
{
segmentType = line;
smooth = 0;
x = 1964;
y = 1440;
},
{
segmentType = line;
smooth = 0;
x = 1276;
y = 1440;
},
{
smooth = 0;
x = 1276;
y = 1440;
},
{
smooth = 0;
x = 1280;
y = 1344;
},
{
segmentType = curve;
smooth = 0;
x = 1280;
y = 1344;
},
{
smooth = 0;
x = 1512;
y = 1330;
},
{
smooth = 0;
x = 1510;
y = 1286;
}
);
}
);
lib = {
};
name = A;
unicodes = (
);
width = 1906;
};
};
};
},
{
glyphname = C;
layers = (
{
layerId = "A06561DA-A1C3-4D4F-A301-2F031DFC9FDA";
shapes = (
{
closed = 1;
nodes = (
(1222,1366,o),
(1378,1284,o),
(1378,918,c),
(1494,906,l),
(1556,1428,l),
(1518,1452,l),
(1479,1435,o),
(1424,1430,o),
(1376,1436,c),
(1278,1450,o),
(1188,1506,o),
(978,1506,cs),
(502,1506,o),
(196,1114,o),
(196,714,cs),
(196,284,o),
(478,-62,o),
(964,-62,cs),
(1236,-62,o),
(1440,42,o),
(1584,262,c),
(1484,338,l),
(1366,176,o),
(1218,88,o),
(1008,88,cs),
(668,88,o),
(474,421,o),
(474,816,cs),
(474,1144,o),
(666,1366,o),
(986,1366,cs)
);
}
);
width = 1704;
}
);
unicode = (67,99);
userData = {
com.typemytype.robofont.layerData = {
background = {
anchors = (
);
components = (
);
contours = (
{
points = (
{
segmentType = curve;
smooth = 1;
x = 1054;
y = 72;
},
{
smooth = 0;
x = 668;
y = 72;
},
{
smooth = 0;
x = 474;
y = 470;
},
{
segmentType = curve;
smooth = 1;
x = 474;
y = 844;
},
{
smooth = 0;
x = 474;
y = 1144;
},
{
smooth = 0;
x = 666;
y = 1372;
},
{
segmentType = curve;
smooth = 1;
x = 962;
y = 1372;
},
{
smooth = 0;
x = 1352;
y = 1372;
},
{
smooth = 0;
x = 1550;
y = 988;
},
{
segmentType = curve;
smooth = 1;
x = 1550;
y = 600;
},
{
smooth = 0;
x = 1550;
y = 298;
},
{
smooth = 0;
x = 1370;
y = 72;
}
);
},
{
points = (
{
segmentType = curve;
smooth = 1;
x = 1826;
y = 732;
},
{
smooth = 0;
x = 1826;
y = 1140;
},
{
smooth = 0;
x = 1534;
y = 1506;
},
{
segmentType = curve;
smooth = 1;
x = 1044;
y = 1506;
},
{
smooth = 0;
x = 520;
y = 1506;
},
{
smooth = 0;
x = 196;
y = 1114;
},
{
segmentType = curve;
smooth = 1;
x = 196;
y = 714;
},
{
smooth = 0;
x = 196;
y = 318;
},
{
smooth = 0;
x = 478;
y = -62;
},
{
segmentType = curve;
smooth = 1;
x = 982;
y = -62;
},
{
smooth = 0;
x = 1508;
y = -62;
},
{
smooth = 0;
x = 1826;
y = 336;
}
);
}
);
lib = {
};
name = C;
unicodes = (
);
width = 1704;
};
};
};
},
{
glyphname = E;
layers = (
{
layerId = "A06561DA-A1C3-4D4F-A301-2F031DFC9FDA";
shapes = (
{
closed = 1;
nodes = (
(400,342,ls),
(400,152,o),
(400,112,o),
(170,96,c),
(166,0,l),
(934,0,ls),
(1008,0,o),
(1176,-4,o),
(1310,-10,c),
(1346,14,l),
(1388,460,l),
(1280,470,l),
(1194,154,o),
(1172,136,o),
(908,128,cs),
(656,120,l),
(656,1320,ls),
(904,1312,ls),
(1144,1304,o),
(1170,1288,o),
(1252,996,c),
(1368,1014,l),
(1326,1432,l),
(1288,1458,l),
(1178,1444,o),
(1020,1440,o),
(960,1440,c),
(166,1440,l),
(170,1344,l),
(402,1330,o),
(400,1286,o),
(400,1102,c)
);
},
{
closed = 1;
nodes = (
(540,676,l),
(730,672,ls),
(842,670,o),
(874,652,o),
(928,436,c),
(1034,448,l),
(1010,644,o),
(1014,842,o),
(1030,1020,c),
(928,1030,l),
(870,816,o),
(846,794,o),
(738,792,cs),
(540,788,l)
);
}
);
width = 1640;
}
);
unicode = (69,101);
userData = {
com.typemytype.robofont.guides = (
{
angle = 0;
isGlobal = 0;
magnetic = 5;
x = 521;
y = 400;
}
);
com.typemytype.robofont.layerData = {
background = {
anchors = (
);
components = (
);
contours = (
);
lib = {
};
name = E;
unicodes = (
);
width = 1640;
};
};
};
},
{
glyphname = G;
layers = (
{
layerId = "A06561DA-A1C3-4D4F-A301-2F031DFC9FDA";
shapes = (
{
closed = 1;
nodes = (
(1484,360,l),
(1364,156,o),
(1202,88,o),
(1026,88,cs),
(668,88,o),
(474,422,o),
(474,816,cs),
(474,1144,o),
(666,1366,o),
(986,1366,cs),
(1267,1366,o),
(1452,1290,o),
(1452,954,c),
(1568,942,l),
(1624,1428,l),
(1586,1452,l),
(1548,1434,o),
(1492,1429,o),
(1444,1436,cs),
(1330,1451,o),
(1224,1506,o),
(978,1506,cs),
(502,1506,o),
(196,1114,o),
(196,714,cs),
(196,284,o),
(478,-62,o),
(964,-62,cs),
(1310,-62,o),
(1386,93,o),
(1582,-4,c),
(1622,16,l),
(1622,346,ls),
(1622,476,o),
(1622,542,o),
(1762,564,c),
(1770,660,l),
(1128,660,l),
(1132,564,l),
(1382,552,o),
(1382,494,o),
(1382,322,cs),
(1382,144,l)
);
}
);
width = 1914;
}
);
unicode = (71,103);
userData = {
com.typemytype.robofont.layerData = {
background = {
anchors = (
);
components = (
);
contours = (
{
points = (
{
segmentType = move;
x = 1594;
y = 318;
},
{
smooth = 0;
x = 1594;
y = 508;
},
{
smooth = 0;
x = 1594;
y = 550;
},
{
segmentType = curve;
smooth = 0;
x = 1824;
y = 564;
},
{
segmentType = line;
smooth = 0;
x = 1828;
y = 660;
},
{
segmentType = line;
smooth = 0;
x = 1104;
y = 660;
},
{
segmentType = line;
smooth = 0;
x = 1108;
y = 564;
},
{
smooth = 0;
x = 1340;
y = 550;
},
{
smooth = 0;
x = 1338;
y = 506;
},
{
segmentType = curve;
smooth = 0;
x = 1338;
y = 322;
}
);
},
{
points = (
{
segmentType = move;
smooth = 0;
x = 1484;
y = 338;
},
{
smooth = 0;
x = 1366;
y = 176;
},
{
smooth = 0;
x = 1218;
y = 88;
},
{
segmentType = curve;
smooth = 1;
x = 1008;
y = 88;
},
{
smooth = 0;
x = 668;
y = 88;
},
{
smooth = 0;
x = 474;
y = 422;
},
{
segmentType = curve;
smooth = 1;
x = 474;
y = 816;
},
{
smooth = 0;
x = 474;
y = 1144;
},
{
smooth = 0;
x = 666;
y = 1366;
},
{
segmentType = curve;
smooth = 1;
x = 986;
y = 1366;
},
{
smooth = 0;
x = 1222;
y = 1366;
},
{
smooth = 0;
x = 1378;
y = 1284;
},
{
segmentType = curve;
smooth = 0;
x = 1378;
y = 918;
},
{
segmentType = line;
smooth = 0;
x = 1494;
y = 906;
},
{
segmentType = line;
smooth = 0;
x = 1556;
y = 1428;
},
{
segmentType = line;
smooth = 0;
x = 1518;
y = 1452;
},
{
smooth = 0;
x = 1480;
y = 1434;
},
{
smooth = 0;
x = 1424;
y = 1430;
},
{
segmentType = curve;
smooth = 0;
x = 1376;
y = 1436;
},
{
smooth = 0;
x = 1278;
y = 1450;
},
{
smooth = 0;
x = 1188;
y = 1506;
},
{
segmentType = curve;
smooth = 1;
x = 978;
y = 1506;
},
{
smooth = 0;
x = 502;
y = 1506;
},
{
smooth = 0;
x = 196;
y = 1114;
},
{
segmentType = curve;
smooth = 1;
x = 196;
y = 714;
},
{
smooth = 0;
x = 196;
y = 284;
},
{
smooth = 0;
x = 478;
y = -62;
},
{
segmentType = curve;
smooth = 1;
x = 964;
y = -62;
},
{
smooth = 0;
x = 1236;
y = -62;
},
{
smooth = 0;
x = 1440;
y = 42;
},
{
segmentType = curve;
smooth = 0;
x = 1584;
y = 262;
}
);
}
);
lib = {
};
name = G;
unicodes = (
);
width = 1914;
};
};
};
},
{
glyphname = H;
layers = (
{
layerId = "A06561DA-A1C3-4D4F-A301-2F031DFC9FDA";
shapes = (
{
closed = 1;
nodes = (
(1534,342,ls),
(1534,152,o),
(1534,112,o),
(1304,96,c),
(1300,0,l),
(2024,0,l),
(2020,96,l),
(1788,110,o),
(1790,154,o),
(1790,338,cs),
(1790,1098,l),
(1790,1288,o),
(1790,1330,o),
(2020,1344,c),
(2024,1440,l),
(1300,1440,l),
(1304,1344,l),
(1536,1330,o),
(1534,1286,o),
(1534,1102,c)
);
},
{
closed = 1;
nodes = (
(400,342,ls),
(400,152,o),
(400,112,o),
(170,96,c),
(166,0,l),
(890,0,l),
(886,96,l),
(654,110,o),
(656,154,o),
(656,338,cs),
(656,1098,l),
(656,1288,o),
(656,1330,o),
(886,1344,c),
(890,1440,l),
(166,1440,l),
(170,1344,l),
(402,1330,o),
(400,1286,o),
(400,1102,c)
);
},
{
closed = 1;
nodes = (
(560,674,l),
(1656,674,l),
(1656,802,l),
(560,802,l)
);
}
);
width = 2190;
}
);
unicode = (72,104);
userData = {
com.typemytype.robofont.layerData = {
background = {
anchors = (
);
components = (
);
contours = (
{
points = (
{
smooth = 0;
x = 1742;
y = 632;
},
{
smooth = 0;
x = 1800;
y = 576;
},
{
segmentType = curve;
smooth = 1;
x = 1800;
y = 504;
},
{
smooth = 0;
x = 1800;
y = 434;
},
{
smooth = 0;
x = 1742;
y = 378;
},
{
segmentType = curve;
smooth = 1;
x = 1672;
y = 378;
},
{
smooth = 0;
x = 1602;
y = 378;
},
{
smooth = 0;
x = 1544;
y = 434;
},
{
segmentType = curve;
smooth = 1;
x = 1544;
y = 504;
},
{
smooth = 0;
x = 1544;
y = 576;
},
{
smooth = 0;
x = 1602;
y = 632;
},
{
segmentType = curve;
smooth = 1;
x = 1672;
y = 632;
}
);
},
{
points = (
{
segmentType = line;
smooth = 1;
x = 1780;
y = 1130;
},
{
smooth = 0;
x = 1780;
y = 1296;
},
{
smooth = 0;
x = 1782;
y = 1334;
},
{
segmentType = curve;
smooth = 0;
x = 1994;
y = 1342;
},
{
segmentType = line;
smooth = 0;
x = 1994;
y = 1440;
},
{
segmentType = line;
smooth = 0;
x = 1402;
y = 1440;
},
{
smooth = 0;
x = 1402;
y = 1440;
},
{
smooth = 0;
x = 1402;
y = 1342;
},
{
segmentType = curve;
smooth = 0;
x = 1402;
y = 1342;
},
{
smooth = 0;
x = 1628;
y = 1334;
},
{
smooth = 0;
x = 1628;
y = 1294;
},
{
segmentType = curve;
smooth = 1;
x = 1628;
y = 1130;
},
{
segmentType = line;
smooth = 0;
x = 1628;
y = -38;
},
{
segmentType = line;
smooth = 0;
x = 1752;
y = 26;
},
{
smooth = 0;
x = 1698;
y = 212;
},
{
smooth = 0;
x = 1614;
y = 370;
},
{
segmentType = curve;
smooth = 1;
x = 1462;
y = 536;
},
{
segmentType = line;
smooth = 1;
x = 726;
y = 1342;
},
{
smooth = 0;
x = 644;
y = 1434;
},
{
smooth = 0;
x = 580;
y = 1472;
},
{
segmentType = curve;
smooth = 1;
x = 476;
y = 1472;
},
{
smooth = 0;
x = 384;
y = 1472;
},
{
smooth = 0;
x = 278;
y = 1440;
},
{
segmentType = curve;
smooth = 0;
x = 192;
y = 1398;
},
{
segmentType = line;
smooth = 0;
x = 226;
y = 1302;
},
{
smooth = 0;
x = 356;
y = 1340;
},
{
smooth = 0;
x = 408;
y = 1326;
},
{
segmentType = curve;
smooth = 1;
x = 490;
y = 1236;
},
{
segmentType = line;
smooth = 1;
x = 1340;
y = 288;
},
{
smooth = 0;
x = 1462;
y = 152;
},
{
smooth = 0;
x = 1532;
y = 60;
},
{
segmentType = curve;
smooth = 0;
x = 1596;
y = -64;
},
{
segmentType = line;
smooth = 0;
x = 1780;
y = -28;
}
);
},
{
points = (
{
segmentType = line;
smooth = 0;
x = 410;
y = 1440;
},
{
segmentType = line;
smooth = 1;
x = 410;
y = 342;
},
{
smooth = 0;
x = 410;
y = 152;
},
{
smooth = 0;
x = 410;
y = 110;
},
{
segmentType = curve;
smooth = 0;
x = 194;
y = 96;
},
{
segmentType = line;
smooth = 0;
x = 194;
y = 0;
},
{
segmentType = line;
smooth = 0;
x = 792;
y = 0;
},
{
smooth = 0;
x = 792;
y = 0;
},
{
smooth = 0;
x = 792;
y = 96;
},
{
segmentType = curve;
smooth = 0;
x = 792;
y = 96;
},
{
smooth = 0;
x = 560;
y = 110;
},
{
smooth = 0;
x = 562;
y = 154;
},
{
segmentType = curve;
smooth = 1;
x = 562;
y = 338;
},
{
segmentType = line;
smooth = 0;
x = 562;
y = 1440;
}
);
}
);
lib = {
};
name = H;
unicodes = (
);
width = 2190;
};
};
};
},
{
glyphname = I;
layers = (
{
layerId = "A06561DA-A1C3-4D4F-A301-2F031DFC9FDA";
shapes = (
{
closed = 1;
nodes = (
(400,342,ls),
(400,152,o),
(400,112,o),
(170,96,c),
(166,0,l),
(890,0,l),
(890,0,o),
(886,96,o),
(886,96,c),
(654,110,o),
(656,154,o),
(656,338,cs),
(656,1098,ls),
(656,1288,o),
(656,1330,o),
(886,1344,c),
(890,1440,l),
(166,1440,l),
(166,1440,o),
(170,1344,o),
(170,1344,c),
(402,1330,o),
(400,1286,o),
(400,1102,c)
);
}
);
width = 1056;
}
);
unicode = (73,105);
userData = {
com.typemytype.robofont.layerData = {
background = {
anchors = (
);
components = (
);
contours = (
);
lib = {
};
name = I;
unicodes = (
);
width = 1056;
};
};
};
},
{
glyphname = K;
layers = (
{
layerId = "A06561DA-A1C3-4D4F-A301-2F031DFC9FDA";
shapes = (
{
closed = 1;
nodes = (
(400,342,ls),
(400,152,o),
(400,112,o),
(170,96,c),
(166,0,l),
(870,0,l),
(866,96,l),
(654,108,o),
(656,154,o),
(656,338,cs),
(656,1098,ls),
(656,1288,o),
(660,1330,o),
(866,1344,c),
(870,1440,l),
(166,1440,l),
(170,1344,l),
(402,1330,o),
(400,1286,o),
(400,1102,c)
);
},
{
closed = 1;
nodes = (
(1452,1242,o),
(1546,1324,o),
(1716,1344,c),
(1724,1440,l),
(1038,1440,l),
(1046,1344,l),
(1220,1334,o),
(1254,1254,o),
(1162,1158,cs),
(768,746,l),
(768,694,l),
(1098,308,ls),
(1206,182,o),
(1214,108,o),
(1062,98,c),
(1054,0,l),
(1772,0,l),
(1764,94,l),
(1636,112,o),
(1562,166,o),
(1474,264,cs),
(974,824,l),
(920,716,l),
(1330,1122,ls)
);
}
);
width = 1916;
}
);
unicode = (75,107);
userData = {
com.typemytype.robofont.guides = (
{
angle = 0;
isGlobal = 0;
magnetic = 5;
x = 443;
y = 48;
},
{
angle = 90;
isGlobal = 0;
magnetic = 5;
x = 876;
y = 0;
}
);
com.typemytype.robofont.layerData = {
background = {
anchors = (
);
components = (
);
contours = (
{
points = (
{
segmentType = line;
smooth = 1;
x = 1372;
y = 1160;
},
{
smooth = 0;
x = 1486;
y = 1276;
},
{
smooth = 0;
x = 1546;
y = 1324;
},
{
segmentType = curve;
smooth = 0;
x = 1766;
y = 1344;
},
{
segmentType = line;
smooth = 0;
x = 1770;
y = 1440;
},
{
segmentType = line;
smooth = 0;
x = 1044;
y = 1440;
},
{
segmentType = line;
smooth = 0;
x = 1048;
y = 1344;
},
{
smooth = 0;
x = 1216;
y = 1334;
},
{
smooth = 0;
x = 1252;
y = 1250;
},
{
segmentType = curve;
smooth = 1;
x = 1156;
y = 1154;
},
{
segmentType = line;
smooth = 0;
x = 738;
y = 730;
},
{
segmentType = line;
smooth = 1;
x = 1078;
y = 308;
},
{
smooth = 0;
x = 1180;
y = 182;
},
{
smooth = 0;
x = 1202;
y = 108;
},
{
segmentType = curve;
smooth = 0;
x = 1032;
y = 98;
},
{
segmentType = line;
smooth = 0;
x = 1024;
y = 0;
},
{
segmentType = line;
smooth = 0;
x = 1802;
y = 0;
},
{
segmentType = line;
smooth = 0;
x = 1794;
y = 94;
},
{
smooth = 0;
x = 1582;
y = 108;
},
{
smooth = 0;
x = 1542;
y = 160;
},
{
segmentType = curve;
smooth = 1;
x = 1372;
y = 358;
},
{
segmentType = line;
smooth = 0;
x = 974;
y = 824;
},
{
segmentType = line;
smooth = 0;
x = 930;
y = 716;
}
);
},
{
points = (
{
smooth = 0;
x = 954;
y = 874;
},
{
smooth = 0;
x = 984;
y = 844;
},
{
segmentType = curve;
smooth = 1;
x = 984;
y = 808;
},
{
smooth = 0;
x = 984;
y = 770;
},
{
smooth = 0;
x = 954;
y = 740;
},
{
segmentType = curve;
smooth = 1;
x = 918;
y = 740;
},
{
smooth = 0;
x = 882;
y = 740;
},
{
smooth = 0;
x = 852;
y = 770;
},
{
segmentType = curve;
smooth = 1;
x = 852;
y = 808;
},
{
smooth = 0;
x = 852;
y = 844;
},
{
smooth = 0;
x = 882;
y = 874;
},
{
segmentType = curve;
smooth = 1;
x = 918;
y = 874;
}
);
},
{
points = (
{
smooth = 0;
x = 1252;
y = 1176;
},
{
smooth = 0;
x = 1282;
y = 1146;
},
{
segmentType = curve;
smooth = 1;
x = 1282;
y = 1110;
},
{
smooth = 0;
x = 1282;
y = 1072;
},
{
smooth = 0;
x = 1252;
y = 1042;
},
{
segmentType = curve;
smooth = 1;
x = 1216;
y = 1042;
},
{
smooth = 0;
x = 1180;
y = 1042;
},
{
smooth = 0;
x = 1150;
y = 1072;
},
{
segmentType = curve;
smooth = 1;
x = 1150;
y = 1110;
},
{
smooth = 0;
x = 1150;
y = 1146;
},
{
smooth = 0;
x = 1180;
y = 1176;
},
{
segmentType = curve;
smooth = 1;
x = 1216;
y = 1176;
}
);
},
{
points = (
{
segmentType = line;
smooth = 0;
x = 860;
y = 802;
},
{
segmentType = line;
smooth = 0;
x = 560;
y = 802;
},
{
segmentType = line;
smooth = 0;
x = 560;
y = 674;
},
{
segmentType = line;
smooth = 0;
x = 860;
y = 674;
}
);
},
{
points = (
{
segmentType = line;
smooth = 0;
x = 1160;
y = 802;
},
{
segmentType = line;
smooth = 0;
x = 1160;
y = 674;
},
{
segmentType = line;
smooth = 0;
x = 2256;
y = 674;
},
{
segmentType = line;
smooth = 0;
x = 2256;
y = 802;
}
);
},
{
points = (
{
segmentType = curve;
smooth = 0;
x = 1534;
y = 1102;
},
{
segmentType = line;
smooth = 1;
x = 1534;
y = 342;
},
{
smooth = 0;
x = 1534;
y = 152;
},
{
smooth = 0;
x = 1534;
y = 112;
},
{
segmentType = curve;
smooth = 0;
x = 1304;
y = 96;
},
{
segmentType = line;
smooth = 0;
x = 1300;
y = 0;
},
{
segmentType = line;
smooth = 0;
x = 2024;
y = 0;
},
{
smooth = 0;
x = 2024;
y = 0;
},
{
smooth = 0;
x = 2020;
y = 96;
},
{
segmentType = curve;
smooth = 0;
x = 2020;
y = 96;
},
{
smooth = 0;
x = 1788;
y = 110;
},
{
smooth = 0;
x = 1790;
y = 154;
},
{
segmentType = curve;
smooth = 1;
x = 1790;
y = 338;
},
{
segmentType = line;
smooth = 0;
x = 1790;
y = 1098;
},
{
smooth = 0;
x = 1790;
y = 1288;
},
{
smooth = 0;
x = 1790;
y = 1330;
},
{
segmentType = curve;
smooth = 0;
x = 2020;
y = 1344;
},
{
segmentType = line;
smooth = 0;
x = 2024;
y = 1440;
},
{
segmentType = line;
smooth = 0;
x = 1300;
y = 1440;
},
{
smooth = 0;
x = 1300;
y = 1440;
},
{
smooth = 0;
x = 1304;
y = 1344;
},
{
segmentType = curve;
smooth = 0;
x = 1304;
y = 1344;
},
{
smooth = 0;
x = 1536;
y = 1330;
},
{
smooth = 0;
x = 1534;
y = 1286;
}
);
},
{
points = (
{
segmentType = curve;
smooth = 0;
x = 400;
y = 1102;
},
{
segmentType = line;
smooth = 1;
x = 400;
y = 342;
},
{
smooth = 0;
x = 400;
y = 152;
},
{
smooth = 0;
x = 400;
y = 112;
},
{
segmentType = curve;
smooth = 0;
x = 170;
y = 96;
},
{
segmentType = line;
smooth = 0;
x = 166;
y = 0;
},
{
segmentType = line;
smooth = 0;
x = 890;
y = 0;
},
{
smooth = 0;
x = 890;
y = 0;
},
{
smooth = 0;
x = 886;
y = 96;
},
{
segmentType = curve;
smooth = 0;
x = 886;
y = 96;
},
{
smooth = 0;
x = 654;
y = 110;
},
{
smooth = 0;
x = 656;
y = 154;
},
{
segmentType = curve;
smooth = 1;
x = 656;
y = 338;
},
{
segmentType = line;
smooth = 0;
x = 656;
y = 1098;
},
{
smooth = 0;
x = 656;
y = 1288;
},
{
smooth = 0;
x = 656;
y = 1330;
},
{
segmentType = curve;
smooth = 0;
x = 886;
y = 1344;
},
{
segmentType = line;
smooth = 0;
x = 890;
y = 1440;
},
{
segmentType = line;
smooth = 0;
x = 166;
y = 1440;
},
{
smooth = 0;
x = 166;
y = 1440;
},
{
smooth = 0;
x = 170;
y = 1344;
},
{
segmentType = curve;
smooth = 0;
x = 170;
y = 1344;
},
{
smooth = 0;
x = 402;
y = 1330;
},
{
smooth = 0;
x = 400;
y = 1286;
}
);
}
);
lib = {
};
name = K;
unicodes = (
);
width = 1916;
};
};
};
},
{
glyphname = L;
layers = (
{
layerId = "A06561DA-A1C3-4D4F-A301-2F031DFC9FDA";
shapes = (
{
closed = 1;
nodes = (
(400,342,ls),
(400,152,o),
(400,112,o),
(170,96,c),
(166,0,l),
(894,0,ls),
(968,0,o),
(1136,-4,o),
(1270,-10,c),
(1306,14,l),
(1354,516,l),
(1244,528,l),
(1136,154,o),
(1116,136,o),
(886,128,cs),
(656,120,l),
(656,1100,ls),
(656,1286,o),
(656,1330,o),
(886,1344,c),
(890,1440,l),
(166,1440,l),
(166,1440,o),
(170,1344,o),
(170,1344,c),
(402,1330,o),
(400,1286,o),
(400,1102,cs)
);
}
);
width = 1500;
}
);
unicode = (76,108);
userData = {
com.typemytype.robofont.guides = (
{
angle = 0;
isGlobal = 0;
magnetic = 5;
x = 521;
y = 400;
}
);
com.typemytype.robofont.layerData = {
background = {
anchors = (
);
components = (
);
contours = (
{
points = (
{
segmentType = move;
x = 656;
y = 1098;
},
{
smooth = 0;
x = 656;
y = 1288;
},
{
smooth = 0;
x = 656;
y = 1330;
},
{
segmentType = curve;
smooth = 0;
x = 886;
y = 1344;
},
{
segmentType = line;
smooth = 0;
x = 890;
y = 1440;
},
{
segmentType = line;
smooth = 0;
x = 166;
y = 1440;
},
{
smooth = 0;
x = 166;
y = 1440;
},
{
smooth = 0;
x = 170;
y = 1344;
},
{
segmentType = curve;
smooth = 0;
x = 170;
y = 1344;
},
{
smooth = 0;
x = 402;
y = 1330;
},
{
smooth = 0;
x = 400;
y = 1286;
},
{
segmentType = curve;
smooth = 0;
x = 400;
y = 1102;
}
);
}
);
lib = {
};
name = E;
unicodes = (
);
width = 1500;
};
};
};
},
{
glyphname = M;
layers = (
{
layerId = "A06561DA-A1C3-4D4F-A301-2F031DFC9FDA";
shapes = (
{
closed = 1;
nodes = (
(1766,1216,l),
(1596,1216,l),
(1134,224,ls),
(1296,224,l)
);
},
{
closed = 1;
nodes = (
(808,1216,l),
(526,1216,l),
(526,1216,o),
(954,224,o),
(954,224,cs),
(1232,224,l)
);
},
{
closed = 1;
nodes = (
(368,330,ls),
(356,150,o),
(344,104,o),
(130,96,c),
(126,0,l),
(746,0,l),
(746,0,o),
(742,96,o),
(742,96,c),
(512,106,o),
(508,164,o),
(520,332,cs),
(580,1216,l),
(426,1216,l)
);
},
{
closed = 1;
nodes = (
(1778,342,ls),
(1792,146,o),
(1790,104,o),
(1550,96,c),
(1546,0,l),
(2282,0,l),
(2282,0,o),
(2278,96,o),
(2278,96,c),
(2062,106,o),
(2054,144,o),
(2040,340,cs),
(1976,1216,l),
(1712,1216,l)
);
},
{
closed = 1;
nodes = (
(1034,8,l),
(1066,-6,l),
(1210,10,l),
(1296,224,l),
(954,224,l)
);
},
{
closed = 1;
nodes = (
(426,1216,l),
(808,1216,l),
(726,1438,l),
(690,1458,l),
(436,1418,l)
);
},
{
closed = 1;
nodes = (
(1596,1216,l),
(1976,1216,l),
(1966,1436,l),
(1934,1458,l),
(1670,1394,l)
);
}
);
width = 2416;
}
);
unicode = (77,109);
userData = {
com.typemytype.robofont.guides = (
{
angle = 0;
isGlobal = 0;
magnetic = 5;
x = 565;
y = 553;
}
);
com.typemytype.robofont.layerData = {
background = {
anchors = (
);
components = (
);
contours = (
{
points = (
{
segmentType = line;
smooth = 0;
x = 954;
y = 224;
},
{
segmentType = line;
smooth = 0;
x = 1038;
y = 0;
},
{
segmentType = line;
smooth = 0;
x = 1078;
y = 0;
},
{
segmentType = line;
smooth = 0;
x = 1206;
y = 0;
},
{
segmentType = line;
smooth = 0;
x = 1296;
y = 224;
}
);
},
{
points = (
{
segmentType = curve;
smooth = 1;
x = 962;
y = 648;
},
{
smooth = 0;
x = 1032;
y = 648;
},
{
smooth = 0;
x = 1090;
y = 592;
},
{
segmentType = curve;
smooth = 1;
x = 1090;
y = 520;
},
{
smooth = 0;
x = 1090;
y = 450;
},
{
smooth = 0;
x = 1032;
y = 394;
},
{
segmentType = curve;
smooth = 1;
x = 962;
y = 394;
},
{
smooth = 0;
x = 892;
y = 394;
},
{
smooth = 0;
x = 834;
y = 450;
},
{
segmentType = curve;
smooth = 1;
x = 834;
y = 520;
},
{
smooth = 0;
x = 834;
y = 592;
},
{
smooth = 0;
x = 892;
y = 648;
}
);
},
{
points = (
{
segmentType = curve;
smooth = 1;
x = 1888;
y = 648;
},
{
smooth = 0;
x = 1958;
y = 648;
},
{
smooth = 0;
x = 2016;
y = 592;
},
{
segmentType = curve;
smooth = 1;
x = 2016;
y = 520;
},
{
smooth = 0;
x = 2016;
y = 450;
},
{
smooth = 0;
x = 1958;
y = 394;
},
{
segmentType = curve;
smooth = 1;
x = 1888;
y = 394;
},
{
smooth = 0;
x = 1818;
y = 394;
},
{
smooth = 0;
x = 1760;
y = 450;
},
{
segmentType = curve;
smooth = 1;
x = 1760;
y = 520;
},
{
smooth = 0;
x = 1760;
y = 592;
},
{
smooth = 0;
x = 1818;
y = 648;
}
);
},
{
points = (
{
segmentType = line;
smooth = 0;
x = 800;
y = 802;
},
{
segmentType = line;
smooth = 0;
x = 800;
y = 674;
},
{
segmentType = line;
smooth = 0;
x = 1896;
y = 674;
},
{
segmentType = line;
smooth = 0;
x = 1896;
y = 802;
}
);
},
{
points = (
{
segmentType = curve;
smooth = 0;
x = 640;
y = 1102;
},
{
segmentType = line;
smooth = 1;
x = 640;
y = 342;
},
{
smooth = 0;
x = 640;
y = 152;
},
{
smooth = 0;
x = 640;
y = 112;
},
{
segmentType = curve;
smooth = 0;
x = 410;
y = 96;
},
{
segmentType = line;
smooth = 0;
x = 406;
y = 0;
},
{
segmentType = line;
smooth = 0;
x = 1130;
y = 0;
},
{
smooth = 0;
x = 1130;
y = 0;
},
{
smooth = 0;
x = 1126;
y = 96;
},
{
segmentType = curve;
smooth = 0;
x = 1126;
y = 96;
},
{
smooth = 0;
x = 894;
y = 110;
},
{
smooth = 0;
x = 896;
y = 154;
},
{
segmentType = curve;
smooth = 1;
x = 896;
y = 338;
},
{
segmentType = line;
smooth = 0;
x = 896;
y = 1098;
},
{
smooth = 0;
x = 896;
y = 1288;
},
{
smooth = 0;
x = 896;
y = 1330;
},
{
segmentType = curve;
smooth = 0;
x = 1126;
y = 1344;
},
{
segmentType = line;
smooth = 0;
x = 1130;
y = 1440;
},
{
segmentType = line;
smooth = 0;
x = 406;
y = 1440;
},
{
smooth = 0;
x = 406;
y = 1440;
},
{
smooth = 0;
x = 410;
y = 1344;
},
{
segmentType = curve;
smooth = 0;
x = 410;
y = 1344;
},
{
smooth = 0;
x = 642;
y = 1330;
},
{
smooth = 0;
x = 640;
y = 1286;
}
);
},
{
points = (
{
segmentType = curve;
smooth = 0;
x = 1774;
y = 1102;
},
{
segmentType = line;
smooth = 1;
x = 1774;
y = 342;
},
{
smooth = 0;
x = 1774;
y = 152;
},
{
smooth = 0;
x = 1774;
y = 112;
},
{
segmentType = curve;
smooth = 0;
x = 1544;
y = 96;
},
{
segmentType = line;
smooth = 0;
x = 1540;
y = 0;
},
{
segmentType = line;
smooth = 0;
x = 2264;
y = 0;
},
{
smooth = 0;
x = 2264;
y = 0;
},
{
smooth = 0;
x = 2260;
y = 96;
},
{
segmentType = curve;
smooth = 0;
x = 2260;
y = 96;
},
{
smooth = 0;
x = 2028;
y = 110;
},
{
smooth = 0;
x = 2030;
y = 154;
},
{
segmentType = curve;
smooth = 1;
x = 2030;
y = 338;
},
{
segmentType = line;
smooth = 0;
x = 2030;
y = 1098;
},
{
smooth = 0;
x = 2030;
y = 1288;
},
{
smooth = 0;
x = 2030;
y = 1330;
},
{
segmentType = curve;
smooth = 0;
x = 2260;
y = 1344;
},
{
segmentType = line;
smooth = 0;
x = 2264;
y = 1440;
},
{
segmentType = line;
smooth = 0;
x = 1540;
y = 1440;
},
{
smooth = 0;
x = 1540;
y = 1440;
},
{
smooth = 0;
x = 1544;
y = 1344;
},
{
segmentType = curve;
smooth = 0;
x = 1544;
y = 1344;
},
{
smooth = 0;
x = 1776;
y = 1330;
},
{
smooth = 0;
x = 1774;
y = 1286;
}
);
}
);
lib = {
};
name = M;
unicodes = (
);
width = 2416;
};
};
};
},
{
glyphname = N;
layers = (
{
layerId = "A06561DA-A1C3-4D4F-A301-2F031DFC9FDA";
shapes = (
{
closed = 1;
nodes = (
(380,342,ls),
(380,152,o),
(380,110,o),
(164,96,c),
(160,0,l),
(160,0,o),
(766,0,o),
(766,0,c),
(766,0,o),
(762,96,o),
(762,96,c),
(530,110,o),
(532,154,o),
(532,338,cs),
(532,1440,l),
(380,1440,l)
);
},
{
closed = 1;
nodes = (
(1690,1296,o),
(1692,1334,o),
(1904,1342,c),
(1908,1440,l),
(1308,1440,l),
(1308,1440,o),
(1312,1342,o),
(1312,1342,c),
(1538,1334,o),
(1538,1294,o),
(1538,1130,c),
(1538,256,l),
(1598,256,l),
(618,1434,ls),
(576,1454,l),
(346,1440,l),
(156,1440,l),
(160,1342,l),
(372,1318,o),
(380,1270,o),
(380,1152,c),
(522,1152,l),
(1314,198,ls),
(1466,-18,l),
(1502,-32,l),
(1690,-16,l),
(1690,1130,ls)
);
}
);
width = 2070;
}
);
unicode = (78,110);
userData = {
com.typemytype.robofont.layerData = {
background = {
anchors = (
);
components = (
);
contours = (
{
points = (
{
smooth = 0;
x = 1450;
y = 446;
},
{
smooth = 0;
x = 1508;
y = 390;
},
{
segmentType = curve;
smooth = 1;
x = 1508;
y = 318;
},
{
smooth = 0;
x = 1508;
y = 248;
},
{
smooth = 0;
x = 1450;
y = 192;
},
{
segmentType = curve;
smooth = 1;
x = 1380;
y = 192;
},
{
smooth = 0;
x = 1310;
y = 192;
},
{
smooth = 0;
x = 1252;
y = 248;
},
{
segmentType = curve;
smooth = 1;
x = 1252;
y = 318;
},
{
smooth = 0;
x = 1252;
y = 390;
},
{
smooth = 0;
x = 1310;
y = 446;
},
{
segmentType = curve;
smooth = 1;
x = 1380;
y = 446;
}
);
},
{
points = (
{
segmentType = line;
smooth = 0;
x = 220;
y = 0;
},
{
segmentType = line;
smooth = 0;
x = 1660;
y = 0;
},
{
segmentType = line;
smooth = 0;
x = 1660;
y = 1442;
},
{
segmentType = line;
smooth = 0;
x = 220;
y = 1442;
}
);
},
{
points = (
{
segmentType = curve;
smooth = 1;
x = 674;
y = 1296;
},
{
smooth = 0;
x = 744;
y = 1296;
},
{
smooth = 0;
x = 802;
y = 1240;
},
{
segmentType = curve;
smooth = 1;
x = 802;
y = 1168;
},
{
smooth = 0;
x = 802;
y = 1098;
},
{
smooth = 0;
x = 744;
y = 1042;
},
{
segmentType = curve;
smooth = 1;
x = 674;
y = 1042;
},
{
smooth = 0;
x = 604;
y = 1042;
},
{
smooth = 0;
x = 546;
y = 1098;
},
{
segmentType = curve;
smooth = 1;
x = 546;
y = 1168;
},
{
smooth = 0;
x = 546;
y = 1240;
},
{
smooth = 0;
x = 604;
y = 1296;
}
);
}
);
lib = {
};
name = N;
unicodes = (
);
width = 2070;
};
};
};
},
{
glyphname = O;
layers = (
{
layerId = "A06561DA-A1C3-4D4F-A301-2F031DFC9FDA";
shapes = (
{
closed = 1;
nodes = (
(1826,336,o),
(1826,732,cs),
(1826,1140,o),
(1534,1506,o),
(1044,1506,cs),
(520,1506,o),
(196,1114,o),
(196,714,cs),
(196,318,o),
(478,-62,o),
(982,-62,cs),
(1508,-62,o)
);
},
{
closed = 1;
nodes = (
(1370,72,o),
(1054,72,cs),
(668,72,o),
(474,470,o),
(474,844,cs),
(474,1144,o),
(666,1372,o),
(962,1372,cs),
(1352,1372,o),
(1550,988,o),
(1550,600,cs),
(1550,298,o)
);
}
);
width = 2024;
}
);
unicode = (79,111);
userData = {
com.typemytype.robofont.layerData = {
background = {
anchors = (
);
components = (
);
contours = (
{
points = (
{
smooth = 0;
x = 1508;
y = -62;
},
{
smooth = 0;
x = 1840;
y = 322;
},
{
segmentType = curve;
smooth = 1;
x = 1840;
y = 740;
},
{
smooth = 0;
x = 1840;
y = 1148;
},
{
smooth = 0;
x = 1534;
y = 1506;
},
{
segmentType = curve;
smooth = 1;
x = 1044;
y = 1506;
},
{
smooth = 0;
x = 520;
y = 1506;
},
{
smooth = 0;
x = 186;
y = 1122;
},
{
segmentType = curve;
smooth = 1;
x = 186;
y = 698;
},
{
smooth = 0;
x = 186;
y = 302;
},
{
smooth = 0;
x = 478;
y = -62;
},
{
segmentType = curve;
smooth = 1;
x = 982;
y = -62;
}
);
},
{
points = (
{
smooth = 0;
x = 1550;
y = 298;
},
{
smooth = 0;
x = 1370;
y = 72;
},
{
segmentType = curve;
smooth = 1;
x = 1054;
y = 72;
},
{
smooth = 0;
x = 668;
y = 72;
},
{
smooth = 0;
x = 474;
y = 470;
},
{
segmentType = curve;
smooth = 1;
x = 474;
y = 844;
},
{
smooth = 0;
x = 474;
y = 1144;
},
{
smooth = 0;
x = 666;
y = 1372;
},
{
segmentType = curve;
smooth = 1;
x = 962;
y = 1372;
},
{
smooth = 0;
x = 1352;
y = 1372;
},
{
smooth = 0;
x = 1550;
y = 988;
},
{
segmentType = curve;
smooth = 1;
x = 1550;
y = 600;
}
);
},
{
points = (
{
segmentType = curve;
smooth = 1;
x = -822;
y = 92;
},
{
smooth = 0;
x = -1170;
y = 0;
},
{
smooth = 0;
x = -1396;
y = 244;
},
{
segmentType = curve;
smooth = 1;
x = -1488;
y = 590;
},
{
smooth = 0;
x = -1578;
y = 938;
},
{
smooth = 0;
x = -1502;
y = 1260;
},
{
segmentType = curve;
smooth = 1;
x = -1154;
y = 1352;
},
{
smooth = 0;
x = -806;
y = 1444;
},
{
smooth = 0;
x = -580;
y = 1202;
},
{
segmentType = curve;
smooth = 1;
x = -488;
y = 854;
},
{
smooth = 0;
x = -398;
y = 508;
},
{
smooth = 0;
x = -474;
y = 184;
}
);
},
{
points = (
{
segmentType = curve;
smooth = 1;
x = -790;
y = -32;
},
{
smooth = 0;
x = -314;
y = 92;
},
{
smooth = 0;
x = -100;
y = 536;
},
{
segmentType = curve;
smooth = 1;
x = -202;
y = 928;
},
{
smooth = 0;
x = -306;
y = 1324;
},
{
smooth = 0;
x = -710;
y = 1602;
},
{
segmentType = curve;
smooth = 1;
x = -1186;
y = 1476;
},
{
smooth = 0;
x = -1662;
y = 1352;
},
{
smooth = 0;
x = -1878;
y = 910;
},
{
segmentType = curve;
smooth = 1;
x = -1774;
y = 516;
},
{
smooth = 0;
x = -1670;
y = 122;
},
{
smooth = 0;
x = -1266;
y = -158;
}
);
},
{
points = (
{
segmentType = curve;
smooth = 1;
x = 3012;
y = 70;
},
{
smooth = 0;
x = 2652;
y = 70;
},
{
smooth = 0;
x = 2496;
y = 364;
},
{
segmentType = curve;
smooth = 1;
x = 2496;
y = 722;
},
{
smooth = 0;
x = 2496;
y = 1082;
},
{
smooth = 0;
x = 2652;
y = 1374;
},
{
segmentType = curve;
smooth = 1;
x = 3012;
y = 1374;
},
{
smooth = 0;
x = 3372;
y = 1374;
},
{
smooth = 0;
x = 3528;
y = 1082;
},
{
segmentType = curve;
smooth = 1;
x = 3528;
y = 722;
},
{
smooth = 0;
x = 3528;
y = 364;
},
{
smooth = 0;
x = 3372;
y = 70;
}
);
},
{
points = (
{
segmentType = curve;
smooth = 1;
x = 3012;
y = -58;
},
{
smooth = 0;
x = 3504;
y = -58;
},
{
smooth = 0;
x = 3824;
y = 316;
},
{
segmentType = curve;
smooth = 1;
x = 3824;
y = 722;
},
{
smooth = 0;
x = 3824;
y = 1130;
},
{
smooth = 0;
x = 3504;
y = 1502;
},
{
segmentType = curve;
smooth = 1;
x = 3012;
y = 1502;
},
{
smooth = 0;
x = 2520;
y = 1502;
},
{
smooth = 0;
x = 2200;
y = 1130;
},
{
segmentType = curve;
smooth = 1;
x = 2200;
y = 722;
},
{
smooth = 0;
x = 2200;
y = 316;
},
{
smooth = 0;
x = 2520;
y = -58;
}
);
}
);
lib = {
};
name = O;
unicodes = (
);
width = 2024;
};
};
};
},
{
color = 6;
glyphname = Odieresis;
layers = (
{
layerId = "A06561DA-A1C3-4D4F-A301-2F031DFC9FDA";
shapes = (
{
ref = O;
},
{
closed = 1;
nodes = (
(653,1537,o),
(728,1612,o),
(728,1704,cs),
(728,1796,o),
(653,1871,o),
(561,1871,cs),
(469,1871,o),
(394,1796,o),
(394,1704,cs),
(394,1612,o),
(469,1537,o),
(561,1537,cs)
);
},
{
closed = 1;
nodes = (
(1549,1537,o),
(1624,1612,o),
(1624,1704,cs),
(1624,1796,o),
(1549,1871,o),
(1457,1871,cs),
(1365,1871,o),
(1290,1796,o),
(1290,1704,cs),
(1290,1612,o),
(1365,1537,o),
(1457,1537,cs)
);
}
);
width = 2024;
}
);
unicode = (214,246);
},
{
glyphname = R;
layers = (
{
layerId = "A06561DA-A1C3-4D4F-A301-2F031DFC9FDA";
shapes = (
{
closed = 1;
nodes = (
(400,152,o),
(400,110,o),
(184,96,c),
(180,0,l),
(890,0,l),
(890,0,o),
(886,96,o),
(886,96,c),
(654,110,o),
(656,154,o),
(656,338,cs),
(656,1360,ls),
(400,1360,l),
(400,342,ls)
);
},
{
closed = 1;
nodes = (
(172,1330,l),
(392,1306,o),
(400,1258,o),
(400,1140,c),
(536,1208,l),
(634,1316,o),
(772,1354,o),
(874,1354,cs),
(1026,1354,o),
(1122,1282,o),
(1144,1132,cs),
(1166,986,o),
(1118,824,o),
(906,690,c),
(950,612,l),
(1322,784,o),
(1460,978,o),
(1414,1194,cs),
(1376,1370,o),
(1216,1474,o),
(930,1474,cs),
(798,1474,o),
(648,1446,o),
(540,1420,c),
(176,1428,l)
);
},
{
closed = 1;
nodes = (
(556,642,l),
(680,606,o),
(854,574,o),
(1012,558,c),
(1046,708,l),
(868,714,o),
(718,738,o),
(578,768,c)
);
},
{
closed = 1;
nodes = (
(1030,322,o),
(1130,190,o),
(1204,112,cs),
(1322,-10,o),
(1422,-36,o),
(1516,-36,cs),
(1618,-36,o),
(1726,2,o),
(1834,106,c),
(1784,192,l),
(1728,172,o),
(1672,158,o),
(1618,158,cs),
(1560,158,o),
(1506,170,o),
(1440,230,cs),
(1316,340,o),
(1214,472,o),
(1048,708,c),
(856,598,l)
);
}
);
width = 1820;
}
);
unicode = (82,114);
userData = {
com.typemytype.robofont.layerData = {
background = {
anchors = (
);
components = (
);
contours = (
{
points = (
{
segmentType = line;
smooth = 0;
x = 176;
y = 1440;
},
{
segmentType = line;
smooth = 0;
x = 172;
y = 1342;
},
{
smooth = 0;
x = 392;
y = 1318;
},
{
smooth = 0;
x = 400;
y = 1270;
},
{
segmentType = curve;
smooth = 0;
x = 400;
y = 1152;
},
{
segmentType = line;
smooth = 0;
x = 536;
y = 1220;
},
{
smooth = 0;
x = 634;
y = 1328;
},
{
smooth = 0;
x = 772;
y = 1366;
},
{
segmentType = curve;
smooth = 1;
x = 882;
y = 1366;
},
{
smooth = 0;
x = 1030;
y = 1366;
},
{
smooth = 0;
x = 1144;
y = 1292;
},
{
segmentType = curve;
smooth = 1;
x = 1166;
y = 1132;
},
{
smooth = 0;
x = 1184;
y = 1002;
},
{
smooth = 0;
x = 1134;
y = 826;
},
{
segmentType = curve;
smooth = 0;
x = 928;
y = 708;
},
{
segmentType = line;
smooth = 0;
x = 972;
y = 616;
},
{
smooth = 0;
x = 1344;
y = 788;
},
{
smooth = 0;
x = 1484;
y = 982;
},
{
segmentType = curve;
smooth = 1;
x = 1436;
y = 1198;
},
{
smooth = 0;
x = 1396;
y = 1380;
},
{
smooth = 0;
x = 1216;
y = 1486;
},
{
segmentType = curve;
smooth = 1;
x = 930;
y = 1486;
},
{
smooth = 0;
x = 798;
y = 1486;
},
{
smooth = 0;
x = 648;
y = 1458;
},
{
segmentType = curve;
smooth = 0;
x = 540;
y = 1432;
}
);
},
{
points = (
{
segmentType = line;
smooth = 0;
x = 856;
y = 598;
},
{
smooth = 0;
x = 1030;
y = 322;
},
{
smooth = 0;
x = 1130;
y = 190;
},
{
segmentType = curve;
smooth = 1;
x = 1204;
y = 112;
},
{
smooth = 0;
x = 1322;
y = -10;
},
{
smooth = 0;
x = 1422;
y = -36;
},
{
segmentType = curve;
smooth = 1;
x = 1516;
y = -36;
},
{
smooth = 0;
x = 1618;
y = -36;
},
{
smooth = 0;
x = 1726;
y = 2;
},
{
segmentType = curve;
smooth = 0;
x = 1834;
y = 106;
},
{
segmentType = line;
smooth = 0;
x = 1784;
y = 192;
},
{
smooth = 0;
x = 1728;
y = 172;
},
{
smooth = 0;
x = 1672;
y = 158;
},
{
segmentType = curve;
smooth = 1;
x = 1618;
y = 158;
},
{
smooth = 0;
x = 1560;
y = 158;
},
{
smooth = 0;
x = 1506;
y = 170;
},
{
segmentType = curve;
smooth = 1;
x = 1440;
y = 230;
},
{
smooth = 0;
x = 1316;
y = 340;
},
{
smooth = 0;
x = 1214;
y = 472;
},
{
segmentType = curve;
smooth = 0;
x = 1048;
y = 708;
}
);
},
{
points = (
{
segmentType = curve;
smooth = 0;
x = 578;
y = 768;
},
{
segmentType = line;
smooth = 0;
x = 556;
y = 642;
},
{
smooth = 0;
x = 680;
y = 606;
},
{
smooth = 0;
x = 854;
y = 574;
},
{
segmentType = curve;
smooth = 0;
x = 1012;
y = 558;
},
{
segmentType = line;
smooth = 0;
x = 1046;
y = 708;
},
{
smooth = 0;
x = 868;
y = 714;
},
{
smooth = 0;
x = 718;
y = 738;
}
);
},
{
points = (
{
segmentType = line;
smooth = 1;
x = 400;
y = 342;
},
{
smooth = 0;
x = 400;
y = 152;
},
{
smooth = 0;
x = 400;
y = 110;
},
{
segmentType = curve;
smooth = 0;
x = 184;
y = 96;
},
{
segmentType = line;
smooth = 0;
x = 180;
y = 0;
},
{
segmentType = line;
smooth = 0;
x = 890;
y = 0;
},
{
smooth = 0;
x = 890;
y = 0;
},
{
smooth = 0;
x = 886;
y = 96;
},
{
segmentType = curve;
smooth = 0;
x = 886;
y = 96;
},
{
smooth = 0;
x = 654;
y = 110;
},
{
smooth = 0;
x = 656;
y = 154;
},
{
segmentType = curve;
smooth = 1;
x = 656;
y = 338;
},
{
segmentType = line;
smooth = 1;
x = 656;
y = 1360;
},
{
segmentType = line;
smooth = 0;
x = 400;
y = 1360;
}
);
}
);
lib = {
};
name = R;
unicodes = (
);
width = 1820;
};
};
};
},
{
glyphname = S;
layers = (
{
layerId = "A06561DA-A1C3-4D4F-A301-2F031DFC9FDA";
shapes = (
{
closed = 1;
nodes = (
(584,1480,o),
(462,1448,o),
(360,1358,cs),
(279,1287,o),
(226,1174,o),
(226,1050,cs),
(226,832,o),
(372,698,o),
(702,568,cs),
(963,465,o),
(1036,394,o),
(1036,288,cs),
(1036,170,o),
(934,88,o),
(764,88,cs),
(534,88,o),
(358,184,o),
(344,494,c),
(226,492,l),
(228,332,o),
(226,156,o),
(196,12,c),
(234,-10,l),
(288,18,o),
(359,31,o),
(462,6,cs),
(536,-12,o),
(622,-40,o),
(746,-40,cs),
(894,-40,o),
(1000,-8,o),
(1090,58,cs),
(1188,130,o),
(1242,244,o),
(1242,360,cs),
(1242,616,o),
(1070,733,o),
(802,840,cs),
(506,958,o),
(426,1028,o),
(426,1140,cs),
(426,1256,o),
(528,1352,o),
(710,1352,cs),
(934,1352,o),
(1062,1256,o),
(1058,958,c),
(1174,952,l),
(1182,1070,o),
(1196,1260,o),
(1230,1422,c),
(1192,1446,l),
(1152,1428,o),
(1098,1420,o),
(1050,1426,c),
(952,1440,o),
(862,1480,o),
(722,1480,cs)
);
}
);
width = 1420;
}
);
unicode = (83,115);
userData = {
com.typemytype.robofont.guides = (
{
angle = 83.63056;
isGlobal = 0;
magnetic = 5;
x = 96;
y = 116;
}
);
com.typemytype.robofont.layerData = {
background = {
anchors = (
);
components = (
);
contours = (
{
points = (
{
segmentType = curve;
smooth = 1;
x = 722;
y = 1480;
},
{
smooth = 0;
x = 584;
y = 1480;
},
{
smooth = 0;
x = 460;
y = 1448;
},
{
segmentType = curve;
smooth = 1;
x = 366;
y = 1364;
},
{
smooth = 0;
x = 282;
y = 1290;
},
{
smooth = 0;
x = 224;
y = 1180;
},
{
segmentType = curve;
smooth = 1;
x = 224;
y = 1060;
},
{
smooth = 0;
x = 224;
y = 974;
},
{
smooth = 0;
x = 244;
y = 914;
},
{
segmentType = curve;
smooth = 1;
x = 278;
y = 858;
},
{
smooth = 0;
x = 308;
y = 810;
},
{
smooth = 0;
x = 348;
y = 764;
},
{
segmentType = curve;
smooth = 1;
x = 408;
y = 720;
},
{
smooth = 0;
x = 480;
y = 668;
},
{
smooth = 0;
x = 606;
y = 606;
},
{
segmentType = curve;
smooth = 1;
x = 702;
y = 568;
},
{
smooth = 0;
x = 966;
y = 464;
},
{
smooth = 0;
x = 1040;
y = 392;
},
{
segmentType = curve;
smooth = 1;
x = 1040;
y = 284;
},
{
smooth = 0;
x = 1040;
y = 238;
},
{
smooth = 0;
x = 1028;
y = 196;
},
{
segmentType = curve;
smooth = 0;
x = 994;
y = 162;
},
{
smooth = 0;
x = 940;
y = 106;
},
{
smooth = 0;
x = 868;
y = 88;
},
{
segmentType = curve;
smooth = 1;
x = 756;
y = 88;
},
{
smooth = 0;
x = 534;
y = 88;
},
{
smooth = 0;
x = 358;
y = 184;
},
{
segmentType = curve;
smooth = 0;
x = 344;
y = 494;
},
{
segmentType = line;
smooth = 0;
x = 226;
y = 492;
},
{
smooth = 0;
x = 228;
y = 332;
},
{
smooth = 0;
x = 226;
y = 156;
},
{
segmentType = curve;
smooth = 0;
x = 196;
y = 12;
},
{
segmentType = line;
smooth = 0;
x = 234;
y = -10;
},
{
smooth = 0;
x = 288;
y = 18;
},
{
smooth = 0;
x = 360;
y = 32;
},
{
segmentType = curve;
smooth = 1;
x = 462;
y = 6;
},
{
smooth = 0;
x = 536;
y = -12;
},
{
smooth = 0;
x = 622;
y = -40;
},
{
segmentType = curve;
smooth = 1;
x = 744;
y = -40;
},
{
smooth = 0;
x = 894;
y = -40;
},
{
smooth = 0;
x = 1000;
y = -8;
},
{
segmentType = curve;
smooth = 1;
x = 1090;
y = 58;
},
{
smooth = 0;
x = 1188;
y = 130;
},
{
smooth = 0;
x = 1242;
y = 232;
},
{
segmentType = curve;
smooth = 1;
x = 1242;
y = 366;
},
{
smooth = 0;
x = 1242;
y = 448;
},
{
smooth = 0;
x = 1224;
y = 514;
},
{
segmentType = curve;
smooth = 1;
x = 1196;
y = 562;
},
{
smooth = 0;
x = 1162;
y = 622;
},
{
smooth = 0;
x = 1128;
y = 656;
},
{
segmentType = curve;
smooth = 1;
x = 1058;
y = 708;
},
{
smooth = 0;
x = 996;
y = 756;
},
{
smooth = 0;
x = 908;
y = 796;
},
{
segmentType = curve;
smooth = 1;
x = 802;
y = 840;
},
{
smooth = 0;
x = 506;
y = 962;
},
{
smooth = 0;
x = 426;
y = 1028;
},
{
segmentType = curve;
smooth = 1;
x = 426;
y = 1140;
},
{
smooth = 0;
x = 426;
y = 1186;
},
{
smooth = 0;
x = 446;
y = 1240;
},
{
segmentType = curve;
smooth = 1;
x = 488;
y = 1278;
},
{
smooth = 0;
x = 540;
y = 1326;
},
{
smooth = 0;
x = 610;
y = 1352;
},
{
segmentType = curve;
smooth = 1;
x = 710;
y = 1352;
},
{
smooth = 0;
x = 934;
y = 1352;
},
{
smooth = 0;
x = 1062;
y = 1256;
},
{
segmentType = curve;
smooth = 0;
x = 1058;
y = 958;
},
{
segmentType = line;
smooth = 0;
x = 1174;
y = 952;
},
{
smooth = 0;
x = 1182;
y = 1070;
},
{
smooth = 0;
x = 1196;
y = 1260;
},
{
segmentType = curve;
smooth = 0;
x = 1230;
y = 1422;
},
{
segmentType = line;
smooth = 0;
x = 1192;
y = 1446;
},
{
smooth = 0;
x = 1152;
y = 1428;
},
{
smooth = 0;
x = 1098;
y = 1420;
},
{
segmentType = curve;
smooth = 0;
x = 1050;
y = 1426;
},
{
smooth = 0;
x = 952;
y = 1440;
},
{
smooth = 0;
x = 862;
y = 1480;
}
);
},
{
points = (
{
segmentType = curve;
smooth = 1;
x = 2118;
y = 1480;
},
{
smooth = 0;
x = 1792;
y = 1480;
},
{
smooth = 0;
x = 1624;
y = 1292;
},
{
segmentType = curve;
smooth = 1;
x = 1624;
y = 1064;
},
{
smooth = 0;
x = 1624;
y = 918;
},
{
smooth = 0;
x = 1666;
y = 802;
},
{
segmentType = curve;
smooth = 1;
x = 1806;
y = 706;
},
{
smooth = 0;
x = 1878;
y = 658;
},
{
smooth = 0;
x = 1978;
y = 616;
},
{
segmentType = curve;
smooth = 1;
x = 2102;
y = 568;
},
{
smooth = 0;
x = 2378;
y = 460;
},
{
smooth = 0;
x = 2458;
y = 420;
},
{
segmentType = curve;
smooth = 1;
x = 2458;
y = 280;
},
{
smooth = 0;
x = 2458;
y = 168;
},
{
smooth = 0;
x = 2360;
y = 88;
},
{
segmentType = curve;
smooth = 1;
x = 2156;
y = 88;
},
{
smooth = 0;
x = 1934;
y = 88;
},
{
smooth = 0;
x = 1758;
y = 184;
},
{
segmentType = curve;
smooth = 0;
x = 1744;
y = 494;
},
{
segmentType = line;
smooth = 0;
x = 1626;
y = 492;
},
{
smooth = 0;
x = 1628;
y = 332;
},
{
smooth = 0;
x = 1626;
y = 156;
},
{
segmentType = curve;
smooth = 0;
x = 1596;
y = 12;
},
{
segmentType = line;
smooth = 0;
x = 1634;
y = -10;
},
{
smooth = 0;
x = 1688;
y = 18;
},
{
smooth = 0;
x = 1760;
y = 32;
},
{
segmentType = curve;
smooth = 1;
x = 1862;
y = 6;
},
{
smooth = 0;
x = 1936;
y = -12;
},
{
smooth = 0;
x = 2022;
y = -40;
},
{
segmentType = curve;
smooth = 1;
x = 2144;
y = -40;
},
{
smooth = 0;
x = 2478;
y = -40;
},
{
smooth = 0;
x = 2642;
y = 110;
},
{
segmentType = curve;
smooth = 1;
x = 2642;
y = 366;
},
{
smooth = 0;
x = 2642;
y = 512;
},
{
smooth = 0;
x = 2588;
y = 626;
},
{
segmentType = curve;
smooth = 1;
x = 2464;
y = 716;
},
{
smooth = 0;
x = 2400;
y = 762;
},
{
smooth = 0;
x = 2312;
y = 804;
},
{
segmentType = curve;
smooth = 1;
x = 2206;
y = 844;
},
{
smooth = 0;
x = 1906;
y = 958;
},
{
smooth = 0;
x = 1808;
y = 1002;
},
{
segmentType = curve;
smooth = 1;
x = 1808;
y = 1132;
},
{
smooth = 0;
x = 1808;
y = 1248;
},
{
smooth = 0;
x = 1902;
y = 1352;
},
{
segmentType = curve;
smooth = 1;
x = 2110;
y = 1352;
},
{
smooth = 0;
x = 2334;
y = 1352;
},
{
smooth = 0;
x = 2462;
y = 1256;
},
{
segmentType = curve;
smooth = 0;
x = 2458;
y = 958;
},
{
segmentType = line;
smooth = 0;
x = 2574;
y = 952;
},
{
smooth = 0;
x = 2582;
y = 1070;
},
{
smooth = 0;
x = 2596;
y = 1260;
},
{
segmentType = curve;
smooth = 0;
x = 2630;
y = 1422;
},
{
segmentType = line;
smooth = 0;
x = 2592;
y = 1446;
},
{
smooth = 0;
x = 2552;
y = 1428;
},
{
smooth = 0;
x = 2498;
y = 1420;
},
{
segmentType = curve;
smooth = 0;
x = 2450;
y = 1426;
},
{
smooth = 0;
x = 2352;
y = 1440;
},
{
smooth = 0;
x = 2262;
y = 1480;
}
);
}
);
lib = {
};
name = S;
unicodes = (
);
width = 1420;
};
};
};
},
{
glyphname = T;
layers = (
{
layerId = "A06561DA-A1C3-4D4F-A301-2F031DFC9FDA";
shapes = (
{
closed = 1;
nodes = (
(470,1440,o),
(340,1444,o),
(230,1458,c),
(192,1432,l),
(142,938,l),
(266,924,l),
(348,1266,o),
(374,1312,o),
(612,1312,cs),
(750,1312,l),
(750,342,ls),
(750,152,o),
(750,112,o),
(520,96,c),
(516,0,l),
(1240,0,l),
(1240,0,o),
(1236,96,o),
(1236,96,c),
(1004,110,o),
(1006,154,o),
(1006,338,cs),
(1006,1312,l),
(1168,1312,ls),
(1434,1312,o),
(1472,1248,o),
(1474,938,c),
(1600,930,l),
(1640,1432,l),
(1602,1458,l),
(1492,1444,o),
(1332,1440,o),
(1214,1440,cs),
(616,1440,ls)
);
}
);
width = 1756;
}
);
unicode = (84,116);
userData = {
com.typemytype.robofont.guides = (
{
angle = 0;
isGlobal = 0;
magnetic = 5;
x = 648;
y = 462;
}
);
com.typemytype.robofont.layerData = {
background = {
anchors = (
);
components = (
);
contours = (
{
points = (
{
segmentType = line;
smooth = 1;
x = 582;
y = 1440;
},
{
smooth = 0;
x = 436;
y = 1440;
},
{
smooth = 0;
x = 306;
y = 1444;
},
{
segmentType = curve;
smooth = 0;
x = 196;
y = 1458;
},
{
segmentType = line;
smooth = 0;
x = 158;
y = 1432;
},
{
segmentType = line;
smooth = 0;
x = 108;
y = 938;
},
{
segmentType = line;
smooth = 0;
x = 232;
y = 924;
},
{
smooth = 0;
x = 314;
y = 1266;
},
{
smooth = 0;
x = 340;
y = 1312;
},
{
segmentType = curve;
smooth = 1;
x = 578;
y = 1312;
},
{
segmentType = line;
smooth = 0;
x = 750;
y = 1312;
},
{
segmentType = line;
smooth = 1;
x = 750;
y = 342;
},
{
smooth = 0;
x = 750;
y = 152;
},
{
smooth = 0;
x = 750;
y = 112;
},
{
segmentType = curve;
smooth = 0;
x = 520;
y = 96;
},
{
segmentType = line;
smooth = 0;
x = 516;
y = 0;
},
{
segmentType = line;
smooth = 0;
x = 1240;
y = 0;
},
{
smooth = 0;
x = 1240;
y = 0;
},
{
smooth = 0;
x = 1236;
y = 96;
},
{
segmentType = curve;
smooth = 0;
x = 1236;
y = 96;
},
{
smooth = 0;
x = 1004;
y = 110;
},
{
smooth = 0;
x = 1006;
y = 154;
},
{
segmentType = curve;
smooth = 1;
x = 1006;
y = 338;
},
{
segmentType = line;
smooth = 0;
x = 1006;
y = 1312;
},
{
segmentType = line;
smooth = 1;
x = 1202;
y = 1312;
},
{
smooth = 0;
x = 1468;
y = 1312;
},
{
smooth = 0;
x = 1506;
y = 1248;
},
{
segmentType = curve;
smooth = 0;
x = 1508;
y = 938;
},
{
segmentType = line;
smooth = 0;
x = 1634;
y = 930;
},
{
segmentType = line;
smooth = 0;
x = 1674;
y = 1432;
},
{
segmentType = line;
smooth = 0;
x = 1636;
y = 1458;
},
{
smooth = 0;
x = 1526;
y = 1444;
},
{
smooth = 0;
x = 1366;
y = 1440;
},
{
segmentType = curve;
smooth = 1;
x = 1248;
y = 1440;
}
);
}
);
lib = {
};
name = T;
unicodes = (
);
width = 1756;
};
};
};
},
{
glyphname = W;
layers = (
{
layerId = "A06561DA-A1C3-4D4F-A301-2F031DFC9FDA";
shapes = (
{
closed = 1;
nodes = (
(836,224,l),
(1006,224,l),
(1342,1216,ls),
(1180,1216,l)
);
},
{
closed = 1;
nodes = (
(638,1098,ls),
(580,1298,o),
(584,1336,o),
(804,1344,c),
(808,1440,l),
(100,1440,l),
(100,1440,o),
(104,1344,o),
(104,1344,c),
(302,1332,o),
(316,1294,o),
(372,1100,cs),
(622,224,l),
(890,224,l)
);
},
{
closed = 1;
nodes = (
(1444,1440,l),
(1244,1440,l),
(1180,1216,l),
(1512,1216,l)
);
},
{
closed = 1;
nodes = (
(1006,224,l),
(622,224,l),
(676,4,l),
(708,-18,l),
(946,10,l)
);
},
{
closed = 1;
nodes = (
(2444,778,o),
(2444,1032,c),
(2444,1454,o),
(2176,1606,o),
(1786,1532,c),
(1786,1532,o),
(1790,1426,o),
(1790,1426,c),
(2014,1396,o),
(2138,1258,o),
(2166,1006,cs),
(2188,808,o),
(2156,542,o),
(1904,256,cs),
(1860,206,l),
(1878,206,l),
(1878,206,o),
(1512,1216,o),
(1512,1216,c),
(1244,1216,l),
(1606,206,l),
(1668,-16,l),
(1704,-36,l),
(1874,-10,l),
(2010,140,ls),
(2338,502,o)
);
}
);
width = 2720;
}
);
unicode = (87,119);
userData = {
com.typemytype.robofont.guides = (
{
angle = 0;
isGlobal = 0;
magnetic = 5;
x = 565;
y = 553;
}
);
com.typemytype.robofont.layerData = {
background = {
anchors = (
);
components = (
);
contours = (
{
points = (
{
segmentType = curve;
smooth = 1;
x = 2254;
y = 1368;
},
{
smooth = 0;
x = 2324;
y = 1368;
},
{
smooth = 0;
x = 2382;
y = 1312;
},
{
segmentType = curve;
smooth = 1;
x = 2382;
y = 1240;
},
{
smooth = 0;
x = 2382;
y = 1170;
},
{
smooth = 0;
x = 2324;
y = 1114;
},
{
segmentType = curve;
smooth = 1;
x = 2254;
y = 1114;
},
{
smooth = 0;
x = 2184;
y = 1114;
},
{
smooth = 0;
x = 2126;
y = 1170;
},
{
segmentType = curve;
smooth = 1;
x = 2126;
y = 1240;
},
{
smooth = 0;
x = 2126;
y = 1312;
},
{
smooth = 0;
x = 2184;
y = 1368;
}
);
},
{
points = (
{
segmentType = curve;
smooth = 1;
x = 682;
y = 648;
},
{
smooth = 0;
x = 752;
y = 648;
},
{
smooth = 0;
x = 810;
y = 592;
},
{
segmentType = curve;
smooth = 1;
x = 810;
y = 520;
},
{
smooth = 0;
x = 810;
y = 450;
},
{
smooth = 0;
x = 752;
y = 394;
},
{
segmentType = curve;
smooth = 1;
x = 682;
y = 394;
},
{
smooth = 0;
x = 612;
y = 394;
},
{
smooth = 0;
x = 554;
y = 450;
},
{
segmentType = curve;
smooth = 1;
x = 554;
y = 520;
},
{
smooth = 0;
x = 554;
y = 592;
},
{
smooth = 0;
x = 612;
y = 648;
}
);
},
{
points = (
{
segmentType = curve;
smooth = 1;
x = 1630;
y = 648;
},
{
smooth = 0;
x = 1700;
y = 648;
},
{
smooth = 0;
x = 1758;
y = 592;
},
{
segmentType = curve;
smooth = 1;
x = 1758;
y = 520;
},
{
smooth = 0;
x = 1758;
y = 450;
},
{
smooth = 0;
x = 1700;
y = 394;
},
{
segmentType = curve;
smooth = 1;
x = 1630;
y = 394;
},
{
smooth = 0;
x = 1560;
y = 394;
},
{
smooth = 0;
x = 1502;
y = 450;
},
{
segmentType = curve;
smooth = 1;
x = 1502;
y = 520;
},
{
smooth = 0;
x = 1502;
y = 592;
},
{
smooth = 0;
x = 1560;
y = 648;
}
);
}
);
lib = {
};
name = W;
unicodes = (
);
width = 2720;
};
};
};
},
{
glyphname = K.end;
layers = (
{
layerId = "A06561DA-A1C3-4D4F-A301-2F031DFC9FDA";
shapes = (
{
closed = 1;
nodes = (
(400,342,ls),
(400,152,o),
(400,112,o),
(170,96,c),
(166,0,l),
(890,0,l),
(886,96,l),
(656,112,o),
(656,154,o),
(656,338,cs),
(656,1098,ls),
(656,1288,o),
(660,1330,o),
(866,1344,c),
(870,1440,l),
(166,1440,l),
(170,1344,l),
(402,1330,o),
(400,1286,o),
(400,1102,c)
);
},
{
closed = 1;
nodes = (
(920,716,l),
(1330,1122,ls),
(1452,1242,o),
(1546,1324,o),
(1716,1344,c),
(1724,1440,l),
(1038,1440,l),
(1046,1344,l),
(1220,1334,o),
(1254,1254,o),
(1162,1158,cs),
(768,746,l),
(768,694,l),
(930,418,o),
(1092,218,o),
(1198,118,cs),
(1326,-2,o),
(1446,-36,o),
(1544,-36,cs),
(1646,-36,o),
(1754,2,o),
(1862,106,c),
(1812,192,l),
(1756,172,o),
(1700,158,o),
(1646,158,cs),
(1585,158,o),
(1528,170,o),
(1438,244,cs),
(1320,340,o),
(1158,526,o),
(924,894,c)
);
}
);
width = 1916;
}
);
userData = {
com.typemytype.robofont.guides = (
{
angle = 0;
isGlobal = 0;
magnetic = 5;
x = 443;
y = 48;
},
{
angle = 90;
isGlobal = 0;
magnetic = 5;
x = 876;
y = 0;
}
);
com.typemytype.robofont.layerData = {
background = {
anchors = (
);
components = (
);
contours = (
{
points = (
{
segmentType = line;
smooth = 0;
x = 812;
y = 640;
},
{
smooth = 0;
x = 812;
y = 640;
},
{
smooth = 0;
x = 920;
y = 716;
},
{
segmentType = curve;
smooth = 0;
x = 920;
y = 716;
},
{
segmentType = line;
smooth = 1;
x = 1330;
y = 1122;
},
{
smooth = 0;
x = 1452;
y = 1242;
},
{
smooth = 0;
x = 1546;
y = 1324;
},
{
segmentType = curve;
smooth = 0;
x = 1716;
y = 1344;
},
{
segmentType = line;
smooth = 0;
x = 1724;
y = 1440;
},
{
segmentType = line;
smooth = 0;
x = 1038;
y = 1440;
},
{
segmentType = line;
smooth = 0;
x = 1046;
y = 1344;
},
{
smooth = 0;
x = 1220;
y = 1334;
},
{
smooth = 0;
x = 1254;
y = 1254;
},
{
segmentType = curve;
smooth = 1;
x = 1162;
y = 1158;
},
{
segmentType = line;
smooth = 0;
x = 768;
y = 746;
},
{
segmentType = line;
smooth = 0;
x = 768;
y = 694;
}
);
},
{
points = (
{
segmentType = line;
smooth = 0;
x = 856;
y = 598;
},
{
smooth = 0;
x = 1030;
y = 322;
},
{
smooth = 0;
x = 1130;
y = 190;
},
{
segmentType = curve;
smooth = 1;
x = 1204;
y = 112;
},
{
smooth = 0;
x = 1322;
y = -10;
},
{
smooth = 0;
x = 1422;
y = -36;
},
{
segmentType = curve;
smooth = 1;
x = 1516;
y = -36;
},
{
smooth = 0;
x = 1618;
y = -36;
},
{
smooth = 0;
x = 1726;
y = 2;
},
{
segmentType = curve;
smooth = 0;
x = 1834;
y = 106;
},
{
segmentType = line;
smooth = 0;
x = 1784;
y = 192;
},
{
smooth = 0;
x = 1728;
y = 172;
},
{
smooth = 0;
x = 1672;
y = 158;
},
{
segmentType = curve;
smooth = 1;
x = 1618;
y = 158;
},
{
smooth = 0;
x = 1560;
y = 158;
},
{
smooth = 0;
x = 1506;
y = 170;
},
{
segmentType = curve;
smooth = 1;
x = 1440;
y = 230;
},
{
smooth = 0;
x = 1316;
y = 340;
},
{
smooth = 0;
x = 1214;
y = 472;
},
{
segmentType = curve;
smooth = 0;
x = 1048;
y = 708;
}
);
}
);
lib = {
};
name = K.end;
unicodes = (
);
width = 1916;
};
};
};
},
{
export = 0;
glyphname = G.001;
layers = (
{
layerId = "A06561DA-A1C3-4D4F-A301-2F031DFC9FDA";
shapes = (
{
closed = 1;
nodes = (
(1362,-216,o),
(1340,-260,o),
(1280,-284,cs),
(1216,-310,o),
(1170,-300,o),
(1026,-196,c),
(924,-368,l),
(1060,-454,o),
(1220,-452,o),
(1360,-380,cs),
(1534,-290,o),
(1602,-180,o),
(1602,52,cs),
(1602,322,ls),
(1602,452,o),
(1602,518,o),
(1742,540,c),
(1750,636,l),
(1108,636,l),
(1112,540,l),
(1362,528,o),
(1362,470,o),
(1362,298,cs),
(1362,-106,ls)
);
},
{
closed = 1;
nodes = (
(1364,156,o),
(1202,88,o),
(1026,88,cs),
(668,88,o),
(474,422,o),
(474,816,cs),
(474,1144,o),
(666,1366,o),
(986,1366,cs),
(1266,1366,o),
(1438,1290,o),
(1438,954,c),
(1554,942,l),
(1610,1428,l),
(1572,1452,l),
(1534,1434,o),
(1478,1430,o),
(1430,1436,c),
(1316,1452,o),
(1224,1506,o),
(978,1506,cs),
(502,1506,o),
(196,1114,o),
(196,714,cs),
(196,284,o),
(478,-62,o),
(964,-62,cs),
(1262,-62,o),
(1408,66,o),
(1524,186,c),
(1484,360,l)
);
}
);
width = 1914;
}
);
userData = {
com.typemytype.robofont.layerData = {
background = {
anchors = (
);
components = (
);
contours = (
{
points = (
{
segmentType = move;
x = 1594;
y = 318;
},
{
smooth = 0;
x = 1594;
y = 508;
},
{
smooth = 0;
x = 1594;
y = 550;
},
{
segmentType = curve;
smooth = 0;
x = 1824;
y = 564;
},
{
segmentType = line;
smooth = 0;
x = 1828;
y = 660;
},
{
segmentType = line;
smooth = 0;
x = 1104;
y = 660;
},
{
segmentType = line;
smooth = 0;
x = 1108;
y = 564;
},
{
smooth = 0;
x = 1340;
y = 550;
},
{
smooth = 0;
x = 1338;
y = 506;
},
{
segmentType = curve;
smooth = 0;
x = 1338;
y = 322;
}
);
},
{
points = (
{
segmentType = move;
smooth = 0;
x = 1484;
y = 338;
},
{
smooth = 0;
x = 1366;
y = 176;
},
{
smooth = 0;
x = 1218;
y = 88;
},
{
segmentType = curve;
smooth = 1;
x = 1008;
y = 88;
},
{
smooth = 0;
x = 668;
y = 88;
},
{
smooth = 0;
x = 474;
y = 422;
},
{
segmentType = curve;
smooth = 1;
x = 474;
y = 816;
},
{
smooth = 0;
x = 474;
y = 1144;
},
{
smooth = 0;
x = 666;
y = 1366;
},
{
segmentType = curve;
smooth = 1;
x = 986;
y = 1366;
},
{
smooth = 0;
x = 1222;
y = 1366;
},
{
smooth = 0;
x = 1378;
y = 1284;
},
{
segmentType = curve;
smooth = 0;
x = 1378;
y = 918;
},
{
segmentType = line;
smooth = 0;
x = 1494;
y = 906;
},
{
segmentType = line;
smooth = 0;
x = 1556;
y = 1428;
},
{
segmentType = line;
smooth = 0;
x = 1518;
y = 1452;
},
{
smooth = 0;
x = 1480;
y = 1434;
},
{
smooth = 0;
x = 1424;
y = 1430;
},
{
segmentType = curve;
smooth = 0;
x = 1376;
y = 1436;
},
{
smooth = 0;
x = 1278;
y = 1450;
},
{
smooth = 0;
x = 1188;
y = 1506;
},
{
segmentType = curve;
smooth = 1;
x = 978;
y = 1506;
},
{
smooth = 0;
x = 502;
y = 1506;
},
{
smooth = 0;
x = 196;
y = 1114;
},
{
segmentType = curve;
smooth = 1;
x = 196;
y = 714;
},
{
smooth = 0;
x = 196;
y = 284;
},
{
smooth = 0;
x = 478;
y = -62;
},
{
segmentType = curve;
smooth = 1;
x = 964;
y = -62;
},
{
smooth = 0;
x = 1236;
y = -62;
},
{
smooth = 0;
x = 1440;
y = 42;
},
{
segmentType = curve;
smooth = 0;
x = 1584;
y = 262;
}
);
}
);
lib = {
};
name = G.001;
unicodes = (
);
width = 1914;
};
};
};
},
{
export = 0;
glyphname = G.002;
layers = (
{
layerId = "A06561DA-A1C3-4D4F-A301-2F031DFC9FDA";
shapes = (
{
closed = 1;
nodes = (
(1242,226,o),
(1136,88,o),
(936,88,cs),
(614,88,o),
(474,422,o),
(474,816,cs),
(474,1144,o),
(666,1366,o),
(986,1366,cs),
(1266,1366,o),
(1452,1290,o),
(1452,954,c),
(1568,942,l),
(1624,1428,l),
(1586,1452,l),
(1548,1434,o),
(1492,1430,o),
(1444,1436,c),
(1330,1452,o),
(1224,1506,o),
(978,1506,cs),
(502,1506,o),
(196,1114,o),
(196,714,cs),
(196,284,o),
(478,-62,o),
(936,-62,cs),
(1168,-62,o),
(1398,84,o),
(1396,592,c),
(1262,594,l)
);
},
{
closed = 0;
nodes = (
(1702,16,l),
(1702,346,ls),
(1702,476,o),
(1702,542,o),
(1842,564,c),
(1850,660,l),
(1128,660,l),
(1132,548,l),
(1462,548,l),
(1462,54,l),
(1662,-8,l),
(1702,16,l)
);
}
);
width = 1914;
}
);
userData = {
com.typemytype.robofont.layerData = {
background = {
anchors = (
);
components = (
);
contours = (
{
points = (
{
segmentType = move;
x = 1594;
y = 318;
},
{
smooth = 0;
x = 1594;
y = 508;
},
{
smooth = 0;
x = 1594;
y = 550;
},
{
segmentType = curve;
smooth = 0;
x = 1824;
y = 564;
},
{
segmentType = line;
smooth = 0;
x = 1828;
y = 660;
},
{
segmentType = line;
smooth = 0;
x = 1104;
y = 660;
},
{
segmentType = line;
smooth = 0;
x = 1108;
y = 564;
},
{
smooth = 0;
x = 1340;
y = 550;
},
{
smooth = 0;
x = 1338;
y = 506;
},
{
segmentType = curve;
smooth = 0;
x = 1338;
y = 322;
}
);
},
{
points = (
{
segmentType = move;
smooth = 0;
x = 1484;
y = 338;
},
{
smooth = 0;
x = 1366;
y = 176;
},
{
smooth = 0;
x = 1218;
y = 88;
},
{
segmentType = curve;
smooth = 1;
x = 1008;
y = 88;
},
{
smooth = 0;
x = 668;
y = 88;
},
{
smooth = 0;
x = 474;
y = 422;
},
{
segmentType = curve;
smooth = 1;
x = 474;
y = 816;
},
{
smooth = 0;
x = 474;
y = 1144;
},
{
smooth = 0;
x = 666;
y = 1366;
},
{
segmentType = curve;
smooth = 1;
x = 986;
y = 1366;
},
{
smooth = 0;
x = 1222;
y = 1366;
},
{
smooth = 0;
x = 1378;
y = 1284;
},
{
segmentType = curve;
smooth = 0;
x = 1378;
y = 918;
},
{
segmentType = line;
smooth = 0;
x = 1494;
y = 906;
},
{
segmentType = line;
smooth = 0;
x = 1556;
y = 1428;
},
{
segmentType = line;
smooth = 0;
x = 1518;
y = 1452;
},
{
smooth = 0;
x = 1480;
y = 1434;
},
{
smooth = 0;
x = 1424;
y = 1430;
},
{
segmentType = curve;
smooth = 0;
x = 1376;
y = 1436;
},
{
smooth = 0;
x = 1278;
y = 1450;
},
{
smooth = 0;
x = 1188;
y = 1506;
},
{
segmentType = curve;
smooth = 1;
x = 978;
y = 1506;
},
{
smooth = 0;
x = 502;
y = 1506;
},
{
smooth = 0;
x = 196;
y = 1114;
},
{
segmentType = curve;
smooth = 1;
x = 196;
y = 714;
},
{
smooth = 0;
x = 196;
y = 284;
},
{
smooth = 0;
x = 478;
y = -62;
},
{
segmentType = curve;
smooth = 1;
x = 964;
y = -62;
},
{
smooth = 0;
x = 1236;
y = -62;
},
{
smooth = 0;
x = 1440;
y = 42;
},
{
segmentType = curve;
smooth = 0;
x = 1584;
y = 262;
}
);
}
);
lib = {
};
name = G.002;
unicodes = (
);
width = 1914;
};
};
};
},
{
export = 0;
glyphname = G.003;
layers = (
{
layerId = "A06561DA-A1C3-4D4F-A301-2F031DFC9FDA";
shapes = (
{
closed = 1;
nodes = (
(1484,360,l),
(1364,156,o),
(1202,88,o),
(1026,88,cs),
(668,88,o),
(474,422,o),
(474,816,cs),
(474,1144,o),
(666,1366,o),
(986,1366,cs),
(1267,1366,o),
(1452,1290,o),
(1452,954,c),
(1568,942,l),
(1624,1428,l),
(1586,1452,l),
(1548,1434,o),
(1492,1430,o),
(1444,1436,c),
(1330,1452,o),
(1224,1506,o),
(978,1506,cs),
(502,1506,o),
(196,1114,o),
(196,714,cs),
(196,284,o),
(478,-62,o),
(964,-62,cs),
(1298,-62,o),
(1460,134,o),
(1596,80,c),
(1644,108,l),
(1632,164,o),
(1622,230,o),
(1622,310,cs),
(1622,384,o),
(1622,486,o),
(1762,508,c),
(1770,604,l),
(1128,604,l),
(1132,508,l),
(1382,496,o),
(1382,438,o),
(1382,266,cs),
(1382,144,l)
);
}
);
width = 1914;
}
);
userData = {
com.typemytype.robofont.layerData = {
background = {
anchors = (
);
components = (
);
contours = (
{
points = (
{
segmentType = move;
x = 1594;
y = 318;
},
{
smooth = 0;
x = 1594;
y = 508;
},
{
smooth = 0;
x = 1594;
y = 550;
},
{
segmentType = curve;
smooth = 0;
x = 1824;
y = 564;
},
{
segmentType = line;
smooth = 0;
x = 1828;
y = 660;
},
{
segmentType = line;
smooth = 0;
x = 1104;
y = 660;
},
{
segmentType = line;
smooth = 0;
x = 1108;
y = 564;
},
{
smooth = 0;
x = 1340;
y = 550;
},
{
smooth = 0;
x = 1338;
y = 506;
},
{
segmentType = curve;
smooth = 0;
x = 1338;
y = 322;
}
);
},
{
points = (
{
segmentType = move;
smooth = 0;
x = 1484;
y = 338;
},
{
smooth = 0;
x = 1366;
y = 176;
},
{
smooth = 0;
x = 1218;
y = 88;
},
{
segmentType = curve;
smooth = 1;
x = 1008;
y = 88;
},
{
smooth = 0;
x = 668;
y = 88;
},
{
smooth = 0;
x = 474;
y = 422;
},
{
segmentType = curve;
smooth = 1;
x = 474;
y = 816;
},
{
smooth = 0;
x = 474;
y = 1144;
},
{
smooth = 0;
x = 666;
y = 1366;
},
{
segmentType = curve;
smooth = 1;
x = 986;
y = 1366;
},
{
smooth = 0;
x = 1222;
y = 1366;
},
{
smooth = 0;
x = 1378;
y = 1284;
},
{
segmentType = curve;
smooth = 0;
x = 1378;
y = 918;
},
{
segmentType = line;
smooth = 0;
x = 1494;
y = 906;
},
{
segmentType = line;
smooth = 0;
x = 1556;
y = 1428;
},
{
segmentType = line;
smooth = 0;
x = 1518;
y = 1452;
},
{
smooth = 0;
x = 1480;
y = 1434;
},
{
smooth = 0;
x = 1424;
y = 1430;
},
{
segmentType = curve;
smooth = 0;
x = 1376;
y = 1436;
},
{
smooth = 0;
x = 1278;
y = 1450;
},
{
smooth = 0;
x = 1188;
y = 1506;
},
{
segmentType = curve;
smooth = 1;
x = 978;
y = 1506;
},
{
smooth = 0;
x = 502;
y = 1506;
},
{
smooth = 0;
x = 196;
y = 1114;
},
{
segmentType = curve;
smooth = 1;
x = 196;
y = 714;
},
{
smooth = 0;
x = 196;
y = 284;
},
{
smooth = 0;
x = 478;
y = -62;
},
{
segmentType = curve;
smooth = 1;
x = 964;
y = -62;
},
{
smooth = 0;
x = 1236;
y = -62;
},
{
smooth = 0;
x = 1440;
y = 42;
},
{
segmentType = curve;
smooth = 0;
x = 1584;
y = 262;
}
);
}
);
lib = {
};
name = G.003;
unicodes = (
);
width = 1914;
};
};
};
},
{
export = 0;
glyphname = N.001;
layers = (
{
layerId = "A06561DA-A1C3-4D4F-A301-2F031DFC9FDA";
shapes = (
{
closed = 1;
nodes = (
(380,342,ls),
(380,152,o),
(380,110,o),
(164,96,c),
(160,0,l),
(160,0,o),
(766,0,o),
(766,0,c),
(766,0,o),
(762,96,o),
(762,96,c),
(530,110,o),
(532,154,o),
(532,338,cs),
(532,1440,l),
(380,1440,l)
);
},
{
closed = 1;
nodes = (
(1690,1296,o),
(1692,1334,o),
(1904,1342,c),
(1908,1440,l),
(1308,1440,l),
(1308,1440,o),
(1312,1342,o),
(1312,1342,c),
(1538,1334,o),
(1538,1294,o),
(1538,1130,cs),
(1538,186,l),
(1586,186,l),
(1570,288,o),
(1524,358,o),
(1458,438,cs),
(686,1354,ls),
(622,1428,o),
(540,1468,o),
(424,1468,cs),
(318,1468,o),
(228,1434,o),
(154,1394,c),
(178,1308,l),
(320,1334,o),
(382,1316,o),
(462,1222,cs),
(1250,288,ls),
(1356,162,o),
(1442,64,o),
(1516,-50,c),
(1690,-32,l),
(1690,1130,ls)
);
}
);
width = 2070;
}
);
userData = {
com.typemytype.robofont.layerData = {
background = {
anchors = (
);
components = (
);
contours = (
{
points = (
{
smooth = 0;
x = 1264;
y = 678;
},
{
smooth = 0;
x = 1322;
y = 622;
},
{
segmentType = curve;
smooth = 1;
x = 1322;
y = 550;
},
{
smooth = 0;
x = 1322;
y = 480;
},
{
smooth = 0;
x = 1264;
y = 424;
},
{
segmentType = curve;
smooth = 1;
x = 1194;
y = 424;
},
{
smooth = 0;
x = 1124;
y = 424;
},
{
smooth = 0;
x = 1066;
y = 480;
},
{
segmentType = curve;
smooth = 1;
x = 1066;
y = 550;
},
{
smooth = 0;
x = 1066;
y = 622;
},
{
smooth = 0;
x = 1124;
y = 678;
},
{
segmentType = curve;
smooth = 1;
x = 1194;
y = 678;
}
);
},
{
points = (
{
segmentType = line;
smooth = 0;
x = 220;
y = 0;
},
{
segmentType = line;
smooth = 0;
x = 1660;
y = 0;
},
{
segmentType = line;
smooth = 0;
x = 1660;
y = 1442;
},
{
segmentType = line;
smooth = 0;
x = 220;
y = 1442;
}
);
},
{
points = (
{
segmentType = curve;
smooth = 1;
x = 674;
y = 1296;
},
{
smooth = 0;
x = 744;
y = 1296;
},
{
smooth = 0;
x = 802;
y = 1240;
},
{
segmentType = curve;
smooth = 1;
x = 802;
y = 1168;
},
{
smooth = 0;
x = 802;
y = 1098;
},
{
smooth = 0;
x = 744;
y = 1042;
},
{
segmentType = curve;
smooth = 1;
x = 674;
y = 1042;
},
{
smooth = 0;
x = 604;
y = 1042;
},
{
smooth = 0;
x = 546;
y = 1098;
},
{
segmentType = curve;
smooth = 1;
x = 546;
y = 1168;
},
{
smooth = 0;
x = 546;
y = 1240;
},
{
smooth = 0;
x = 604;
y = 1296;
}
);
}
);
lib = {
};
name = N;
unicodes = (
);
width = 2070;
};
};
com.typemytype.robofont.mark = (
1,
0.5675,
0.4681,
1
);
};
},
{
export = 0;
glyphname = O.001;
layers = (
{
layerId = "A06561DA-A1C3-4D4F-A301-2F031DFC9FDA";
shapes = (
{
closed = 1;
nodes = (
(1840,322,o),
(1840,740,cs),
(1840,1148,o),
(1534,1506,o),
(1044,1506,cs),
(520,1506,o),
(186,1122,o),
(186,698,cs),
(186,302,o),
(478,-62,o),
(982,-62,cs),
(1508,-62,o)
);
},
{
closed = 1;
nodes = (
(1370,72,o),
(1054,72,cs),
(668,72,o),
(474,470,o),
(474,844,cs),
(474,1144,o),
(666,1372,o),
(962,1372,cs),
(1352,1372,o),
(1550,988,o),
(1550,600,cs),
(1550,298,o)
);
}
);
width = 2024;
}
);
userData = {
com.typemytype.robofont.layerData = {
background = {
anchors = (
);
components = (
);
contours = (
{
points = (
{
smooth = 0;
x = 1508;
y = -62;
},
{
smooth = 0;
x = 1826;
y = 336;
},
{
segmentType = curve;
smooth = 1;
x = 1826;
y = 732;
},
{
smooth = 0;
x = 1826;
y = 1140;
},
{
smooth = 0;
x = 1534;
y = 1506;
},
{
segmentType = curve;
smooth = 1;
x = 1044;
y = 1506;
},
{
smooth = 0;
x = 520;
y = 1506;
},
{
smooth = 0;
x = 196;
y = 1114;
},
{
segmentType = curve;
smooth = 1;
x = 196;
y = 714;
},
{
smooth = 0;
x = 196;
y = 318;
},
{
smooth = 0;
x = 478;
y = -62;
},
{
segmentType = curve;
smooth = 1;
x = 982;
y = -62;
}
);
},
{
points = (
{
smooth = 0;
x = 1550;
y = 298;
},
{
smooth = 0;
x = 1370;
y = 72;
},
{
segmentType = curve;
smooth = 1;
x = 1054;
y = 72;
},
{
smooth = 0;
x = 668;
y = 72;
},
{
smooth = 0;
x = 474;
y = 470;
},
{
segmentType = curve;
smooth = 1;
x = 474;
y = 844;
},
{
smooth = 0;
x = 474;
y = 1144;
},
{
smooth = 0;
x = 666;
y = 1372;
},
{
segmentType = curve;
smooth = 1;
x = 962;
y = 1372;
},
{
smooth = 0;
x = 1352;
y = 1372;
},
{
smooth = 0;
x = 1550;
y = 988;
},
{
segmentType = curve;
smooth = 1;
x = 1550;
y = 600;
}
);
},
{
points = (
{
segmentType = curve;
smooth = 1;
x = -822;
y = 92;
},
{
smooth = 0;
x = -1170;
y = 0;
},
{
smooth = 0;
x = -1396;
y = 244;
},
{
segmentType = curve;
smooth = 1;
x = -1488;
y = 590;
},
{
smooth = 0;
x = -1578;
y = 938;
},
{
smooth = 0;
x = -1502;
y = 1260;
},
{
segmentType = curve;
smooth = 1;
x = -1154;
y = 1352;
},
{
smooth = 0;
x = -806;
y = 1444;
},
{
smooth = 0;
x = -580;
y = 1202;
},
{
segmentType = curve;
smooth = 1;
x = -488;
y = 854;
},
{
smooth = 0;
x = -398;
y = 508;
},
{
smooth = 0;
x = -474;
y = 184;
}
);
},
{
points = (
{
segmentType = curve;
smooth = 1;
x = -790;
y = -32;
},
{
smooth = 0;
x = -314;
y = 92;
},
{
smooth = 0;
x = -100;
y = 536;
},
{
segmentType = curve;
smooth = 1;
x = -202;
y = 928;
},
{
smooth = 0;
x = -306;
y = 1324;
},
{
smooth = 0;
x = -710;
y = 1602;
},
{
segmentType = curve;
smooth = 1;
x = -1186;
y = 1476;
},
{
smooth = 0;
x = -1662;
y = 1352;
},
{
smooth = 0;
x = -1878;
y = 910;
},
{
segmentType = curve;
smooth = 1;
x = -1774;
y = 516;
},
{
smooth = 0;
x = -1670;
y = 122;
},
{
smooth = 0;
x = -1266;
y = -158;
}
);
},
{
points = (
{
segmentType = curve;
smooth = 1;
x = 3012;
y = 70;
},
{
smooth = 0;
x = 2652;
y = 70;
},
{
smooth = 0;
x = 2496;
y = 364;
},
{
segmentType = curve;
smooth = 1;
x = 2496;
y = 722;
},
{
smooth = 0;
x = 2496;
y = 1082;
},
{
smooth = 0;
x = 2652;
y = 1374;
},
{
segmentType = curve;
smooth = 1;
x = 3012;
y = 1374;
},
{
smooth = 0;
x = 3372;
y = 1374;
},
{
smooth = 0;
x = 3528;
y = 1082;
},
{
segmentType = curve;
smooth = 1;
x = 3528;
y = 722;
},
{
smooth = 0;
x = 3528;
y = 364;
},
{
smooth = 0;
x = 3372;
y = 70;
}
);
},
{
points = (
{
segmentType = curve;
smooth = 1;
x = 3012;
y = -58;
},
{
smooth = 0;
x = 3504;
y = -58;
},
{
smooth = 0;
x = 3824;
y = 316;
},
{
segmentType = curve;
smooth = 1;
x = 3824;
y = 722;
},
{
smooth = 0;
x = 3824;
y = 1130;
},
{
smooth = 0;
x = 3504;
y = 1502;
},
{
segmentType = curve;
smooth = 1;
x = 3012;
y = 1502;
},
{
smooth = 0;
x = 2520;
y = 1502;
},
{
smooth = 0;
x = 2200;
y = 1130;
},
{
segmentType = curve;
smooth = 1;
x = 2200;
y = 722;
},
{
smooth = 0;
x = 2200;
y = 316;
},
{
smooth = 0;
x = 2520;
y = -58;
}
);
}
);
lib = {
};
name = O;
unicodes = (
);
width = 2024;
};
};
};
},
{
export = 0;
glyphname = R.001;
layers = (
{
layerId = "A06561DA-A1C3-4D4F-A301-2F031DFC9FDA";
shapes = (
{
closed = 1;
nodes = (
(400,152,o),
(400,110,o),
(184,96,c),
(180,0,l),
(890,0,l),
(890,0,o),
(886,96,o),
(886,96,c),
(654,110,o),
(656,154,o),
(656,338,cs),
(656,1360,ls),
(400,1360,l),
(400,342,ls)
);
},
{
closed = 1;
nodes = (
(172,1342,l),
(392,1318,o),
(400,1270,o),
(400,1152,c),
(536,1220,l),
(634,1328,o),
(772,1366,o),
(882,1366,cs),
(1030,1366,o),
(1144,1292,o),
(1166,1132,cs),
(1184,1002,o),
(1134,826,o),
(928,708,c),
(972,616,l),
(1344,788,o),
(1484,982,o),
(1436,1198,cs),
(1396,1380,o),
(1216,1486,o),
(930,1486,cs),
(798,1486,o),
(648,1458,o),
(540,1432,c),
(176,1440,l)
);
},
{
closed = 1;
nodes = (
(556,642,l),
(680,606,o),
(854,574,o),
(1012,558,c),
(1046,708,l),
(868,714,o),
(718,738,o),
(578,768,c)
);
},
{
closed = 1;
nodes = (
(1030,322,o),
(1130,190,o),
(1204,112,cs),
(1310,0,o),
(1420,-42,o),
(1516,-42,cs),
(1654,-42,o),
(1760,-2,o),
(1848,72,c),
(1808,160,l),
(1756,146,o),
(1716,136,o),
(1658,136,cs),
(1582,136,o),
(1532,148,o),
(1440,230,cs),
(1316,340,o),
(1214,472,o),
(1048,708,c),
(856,598,l)
);
}
);
width = 1820;
}
);
userData = {
com.typemytype.robofont.layerData = {
background = {
anchors = (
);
components = (
);
contours = (
{
points = (
{
segmentType = line;
smooth = 1;
x = 400;
y = 342;
},
{
smooth = 0;
x = 400;
y = 152;
},
{
smooth = 0;
x = 400;
y = 110;
},
{
segmentType = curve;
smooth = 0;
x = 184;
y = 96;
},
{
segmentType = line;
smooth = 0;
x = 180;
y = 0;
},
{
segmentType = line;
smooth = 0;
x = 890;
y = 0;
},
{
smooth = 0;
x = 890;
y = 0;
},
{
smooth = 0;
x = 886;
y = 96;
},
{
segmentType = curve;
smooth = 0;
x = 886;
y = 96;
},
{
smooth = 0;
x = 654;
y = 110;
},
{
smooth = 0;
x = 656;
y = 154;
},
{
segmentType = curve;
smooth = 1;
x = 656;
y = 338;
},
{
segmentType = line;
smooth = 1;
x = 656;
y = 1360;
},
{
segmentType = line;
smooth = 0;
x = 400;
y = 1360;
}
);
},
{
points = (
{
segmentType = curve;
smooth = 0;
x = 586;
y = 752;
},
{
segmentType = line;
smooth = 0;
x = 564;
y = 618;
},
{
smooth = 0;
x = 682;
y = 590;
},
{
smooth = 0;
x = 872;
y = 546;
},
{
segmentType = curve;
smooth = 0;
x = 1050;
y = 530;
},
{
segmentType = line;
smooth = 0;
x = 1084;
y = 680;
},
{
smooth = 0;
x = 902;
y = 694;
},
{
smooth = 0;
x = 730;
y = 714;
}
);
},
{
points = (
{
segmentType = line;
smooth = 0;
x = 904;
y = 590;
},
{
smooth = 0;
x = 1078;
y = 314;
},
{
smooth = 0;
x = 1178;
y = 182;
},
{
segmentType = curve;
smooth = 1;
x = 1252;
y = 104;
},
{
smooth = 0;
x = 1358;
y = -8;
},
{
smooth = 0;
x = 1468;
y = -50;
},
{
segmentType = curve;
smooth = 1;
x = 1564;
y = -50;
},
{
smooth = 0;
x = 1702;
y = -50;
},
{
smooth = 0;
x = 1808;
y = -10;
},
{
segmentType = curve;
smooth = 0;
x = 1896;
y = 64;
},
{
segmentType = line;
smooth = 0;
x = 1856;
y = 152;
},
{
smooth = 0;
x = 1804;
y = 138;
},
{
smooth = 0;
x = 1764;
y = 128;
},
{
segmentType = curve;
smooth = 1;
x = 1706;
y = 128;
},
{
smooth = 0;
x = 1630;
y = 128;
},
{
smooth = 0;
x = 1580;
y = 140;
},
{
segmentType = curve;
smooth = 1;
x = 1488;
y = 222;
},
{
smooth = 0;
x = 1364;
y = 332;
},
{
smooth = 0;
x = 1262;
y = 464;
},
{
segmentType = curve;
smooth = 0;
x = 1096;
y = 700;
}
);
},
{
points = (
{
segmentType = line;
smooth = 0;
x = 176;
y = 1440;
},
{
segmentType = line;
smooth = 0;
x = 180;
y = 1336;
},
{
smooth = 0;
x = 400;
y = 1326;
},
{
smooth = 0;
x = 400;
y = 1280;
},
{
segmentType = curve;
smooth = 0;
x = 400;
y = 1156;
},
{
segmentType = line;
smooth = 0;
x = 512;
y = 1242;
},
{
smooth = 0;
x = 622;
y = 1312;
},
{
smooth = 0;
x = 756;
y = 1366;
},
{
segmentType = curve;
smooth = 1;
x = 934;
y = 1366;
},
{
smooth = 0;
x = 1098;
y = 1366;
},
{
smooth = 0;
x = 1214;
y = 1286;
},
{
segmentType = curve;
smooth = 1;
x = 1250;
y = 1144;
},
{
smooth = 0;
x = 1290;
y = 984;
},
{
smooth = 0;
x = 1236;
y = 818;
},
{
segmentType = curve;
smooth = 0;
x = 958;
y = 676;
},
{
segmentType = line;
smooth = 0;
x = 1004;
y = 584;
},
{
smooth = 0;
x = 1414;
y = 754;
},
{
smooth = 0;
x = 1564;
y = 986;
},
{
segmentType = curve;
smooth = 1;
x = 1496;
y = 1214;
},
{
smooth = 0;
x = 1434;
y = 1420;
},
{
smooth = 0;
x = 1240;
y = 1486;
},
{
segmentType = curve;
smooth = 1;
x = 998;
y = 1486;
},
{
smooth = 0;
x = 856;
y = 1486;
},
{
smooth = 0;
x = 704;
y = 1462;
},
{
segmentType = curve;
smooth = 0;
x = 580;
y = 1440;
}
);
},
{
points = (
{
smooth = 0;
x = 1518;
y = 232;
},
{
smooth = 0;
x = 1576;
y = 176;
},
{
segmentType = curve;
smooth = 1;
x = 1576;
y = 104;
},
{
smooth = 0;
x = 1576;
y = 34;
},
{
smooth = 0;
x = 1518;
y = -22;
},
{
segmentType = curve;
smooth = 1;
x = 1448;
y = -22;
},
{
smooth = 0;
x = 1378;
y = -22;
},
{
smooth = 0;
x = 1320;
y = 34;
},
{
segmentType = curve;
smooth = 1;
x = 1320;
y = 104;
},
{
smooth = 0;
x = 1320;
y = 176;
},
{
smooth = 0;
x = 1378;
y = 232;
},
{
segmentType = curve;
smooth = 1;
x = 1448;
y = 232;
}
);
},
{
points = (
{
segmentType = curve;
smooth = 1;
x = 1292;
y = 1288;
},
{
smooth = 0;
x = 1362;
y = 1288;
},
{
smooth = 0;
x = 1420;
y = 1232;
},
{
segmentType = curve;
smooth = 1;
x = 1420;
y = 1160;
},
{
smooth = 0;
x = 1420;
y = 1090;
},
{
smooth = 0;
x = 1362;
y = 1034;
},
{
segmentType = curve;
smooth = 1;
x = 1292;
y = 1034;
},
{
smooth = 0;
x = 1222;
y = 1034;
},
{
smooth = 0;
x = 1164;
y = 1090;
},
{
segmentType = curve;
smooth = 1;
x = 1164;
y = 1160;
},
{
smooth = 0;
x = 1164;
y = 1232;
},
{
smooth = 0;
x = 1222;
y = 1288;
}
);
}
);
lib = {
};
name = R;
unicodes = (
);
width = 1820;
};
};
com.typemytype.robofont.mark = (
1,
0.5675,
0.4681,
1
);
};
},
{
export = 0;
glyphname = R.002;
layers = (
{
layerId = "A06561DA-A1C3-4D4F-A301-2F031DFC9FDA";
shapes = (
{
closed = 1;
nodes = (
(172,1342,l),
(392,1318,o),
(400,1270,o),
(400,1152,c),
(536,1220,l),
(634,1328,o),
(772,1366,o),
(882,1366,cs),
(1030,1366,o),
(1144,1292,o),
(1166,1132,cs),
(1184,1002,o),
(1134,826,o),
(928,708,c),
(972,616,l),
(1344,788,o),
(1484,982,o),
(1436,1198,cs),
(1396,1380,o),
(1216,1486,o),
(930,1486,cs),
(798,1486,o),
(648,1458,o),
(540,1432,c),
(176,1440,l)
);
},
{
closed = 1;
nodes = (
(556,642,l),
(680,606,o),
(854,574,o),
(1012,558,c),
(1046,708,l),
(868,714,o),
(718,738,o),
(578,768,c)
);
},
{
closed = 1;
nodes = (
(1030,322,o),
(1130,190,o),
(1204,112,cs),
(1322,-10,o),
(1422,-36,o),
(1516,-36,cs),
(1618,-36,o),
(1726,2,o),
(1834,106,c),
(1784,192,l),
(1728,172,o),
(1672,158,o),
(1618,158,cs),
(1560,158,o),
(1506,170,o),
(1440,230,cs),
(1316,340,o),
(1214,472,o),
(1048,708,c),
(856,598,l)
);
},
{
closed = 1;
nodes = (
(400,152,o),
(400,110,o),
(184,96,c),
(180,0,l),
(890,0,l),
(890,0,o),
(886,96,o),
(886,96,c),
(654,110,o),
(656,154,o),
(656,338,cs),
(656,1360,ls),
(400,1360,l),
(400,342,ls)
);
}
);
width = 1820;
}
);
userData = {
com.typemytype.robofont.layerData = {
background = {
anchors = (
);
components = (
);
contours = (
{
points = (
{
segmentType = line;
smooth = 0;
x = 176;
y = 1440;
},
{
segmentType = line;
smooth = 0;
x = 172;
y = 1342;
},
{
smooth = 0;
x = 392;
y = 1318;
},
{
smooth = 0;
x = 400;
y = 1270;
},
{
segmentType = curve;
smooth = 0;
x = 400;
y = 1152;
},
{
segmentType = line;
smooth = 0;
x = 536;
y = 1220;
},
{
smooth = 0;
x = 634;
y = 1328;
},
{
smooth = 0;
x = 772;
y = 1366;
},
{
segmentType = curve;
smooth = 1;
x = 882;
y = 1366;
},
{
smooth = 0;
x = 1030;
y = 1366;
},
{
smooth = 0;
x = 1144;
y = 1292;
},
{
segmentType = curve;
smooth = 1;
x = 1166;
y = 1132;
},
{
smooth = 0;
x = 1184;
y = 1002;
},
{
smooth = 0;
x = 1134;
y = 826;
},
{
segmentType = curve;
smooth = 0;
x = 928;
y = 708;
},
{
segmentType = line;
smooth = 0;
x = 972;
y = 616;
},
{
smooth = 0;
x = 1344;
y = 788;
},
{
smooth = 0;
x = 1484;
y = 982;
},
{
segmentType = curve;
smooth = 1;
x = 1436;
y = 1198;
},
{
smooth = 0;
x = 1396;
y = 1380;
},
{
smooth = 0;
x = 1216;
y = 1486;
},
{
segmentType = curve;
smooth = 1;
x = 930;
y = 1486;
},
{
smooth = 0;
x = 798;
y = 1486;
},
{
smooth = 0;
x = 648;
y = 1458;
},
{
segmentType = curve;
smooth = 0;
x = 540;
y = 1432;
}
);
},
{
points = (
{
segmentType = line;
smooth = 0;
x = 856;
y = 598;
},
{
smooth = 0;
x = 1030;
y = 322;
},
{
smooth = 0;
x = 1130;
y = 190;
},
{
segmentType = curve;
smooth = 1;
x = 1204;
y = 112;
},
{
smooth = 0;
x = 1322;
y = -10;
},
{
smooth = 0;
x = 1422;
y = -36;
},
{
segmentType = curve;
smooth = 1;
x = 1516;
y = -36;
},
{
smooth = 0;
x = 1618;
y = -36;
},
{
smooth = 0;
x = 1726;
y = 2;
},
{
segmentType = curve;
smooth = 0;
x = 1834;
y = 106;
},
{
segmentType = line;
smooth = 0;
x = 1784;
y = 192;
},
{
smooth = 0;
x = 1728;
y = 172;
},
{
smooth = 0;
x = 1672;
y = 158;
},
{
segmentType = curve;
smooth = 1;
x = 1618;
y = 158;
},
{
smooth = 0;
x = 1560;
y = 158;
},
{
smooth = 0;
x = 1506;
y = 170;
},
{
segmentType = curve;
smooth = 1;
x = 1440;
y = 230;
},
{
smooth = 0;
x = 1316;
y = 340;
},
{
smooth = 0;
x = 1214;
y = 472;
},
{
segmentType = curve;
smooth = 0;
x = 1048;
y = 708;
}
);
},
{
points = (
{
segmentType = curve;
smooth = 0;
x = 578;
y = 768;
},
{
segmentType = line;
smooth = 0;
x = 556;
y = 642;
},
{
smooth = 0;
x = 680;
y = 606;
},
{
smooth = 0;
x = 854;
y = 574;
},
{
segmentType = curve;
smooth = 0;
x = 1012;
y = 558;
},
{
segmentType = line;
smooth = 0;
x = 1046;
y = 708;
},
{
smooth = 0;
x = 868;
y = 714;
},
{
smooth = 0;
x = 718;
y = 738;
}
);
},
{
points = (
{
segmentType = line;
smooth = 1;
x = 400;
y = 342;
},
{
smooth = 0;
x = 400;
y = 152;
},
{
smooth = 0;
x = 400;
y = 110;
},
{
segmentType = curve;
smooth = 0;
x = 184;
y = 96;
},
{
segmentType = line;
smooth = 0;
x = 180;
y = 0;
},
{
segmentType = line;
smooth = 0;
x = 890;
y = 0;
},
{
smooth = 0;
x = 890;
y = 0;
},
{
smooth = 0;
x = 886;
y = 96;
},
{
segmentType = curve;
smooth = 0;
x = 886;
y = 96;
},
{
smooth = 0;
x = 654;
y = 110;
},
{
smooth = 0;
x = 656;
y = 154;
},
{
segmentType = curve;
smooth = 1;
x = 656;
y = 338;
},
{
segmentType = line;
smooth = 1;
x = 656;
y = 1360;
},
{
segmentType = line;
smooth = 0;
x = 400;
y = 1360;
}
);
}
);
lib = {
};
name = R;
unicodes = (
);
width = 1820;
};
};
};
},
{
export = 0;
glyphname = S.calt;
layers = (
{
layerId = "A06561DA-A1C3-4D4F-A301-2F031DFC9FDA";
shapes = (
{
closed = 1;
nodes = (
(372,1480,o),
(204,1292,o),
(204,1064,cs),
(204,918,o),
(246,802,o),
(386,706,cs),
(458,658,o),
(558,616,o),
(682,568,cs),
(956,460,o),
(1036,420,o),
(1036,280,cs),
(1036,168,o),
(948,88,o),
(824,88,cs),
(700,88,o),
(616,154,o),
(534,216,cs),
(416,304,o),
(272,372,o),
(60,324,cs),
(-188,268,o),
(-276,48,o),
(-154,-144,c),
(-68,-114,l),
(-108,44,o),
(-86,156,o),
(56,184,cs),
(206,212,o),
(294,138,o),
(370,82,cs),
(512,-24,o),
(620,-50,o),
(782,-50,cs),
(1058,-50,o),
(1222,110,o),
(1222,366,cs),
(1222,512,o),
(1168,626,o),
(1044,716,cs),
(980,762,o),
(892,804,o),
(786,844,cs),
(484,958,o),
(386,1002,o),
(386,1132,cs),
(386,1248,o),
(480,1352,o),
(690,1352,cs),
(914,1352,o),
(1042,1256,o),
(1038,958,c),
(1154,946,l),
(1210,1422,l),
(1172,1446,l),
(1132,1428,o),
(1078,1420,o),
(1030,1426,cs),
(932,1440,o),
(842,1480,o),
(698,1480,cs)
);
}
);
width = 1400;
}
);
userData = {
com.typemytype.robofont.layerData = {
background = {
anchors = (
);
components = (
);
contours = (
{
points = (
{
segmentType = curve;
smooth = 1;
x = 698;
y = 1480;
},
{
smooth = 0;
x = 372;
y = 1480;
},
{
smooth = 0;
x = 204;
y = 1292;
},
{
segmentType = curve;
smooth = 1;
x = 204;
y = 1064;
},
{
smooth = 0;
x = 204;
y = 918;
},
{
smooth = 0;
x = 246;
y = 803;
},
{
segmentType = curve;
smooth = 1;
x = 386;
y = 706;
},
{
smooth = 0;
x = 458;
y = 658;
},
{
smooth = 0;
x = 558;
y = 616;
},
{
segmentType = curve;
smooth = 1;
x = 682;
y = 568;
},
{
smooth = 0;
x = 955;
y = 461;
},
{
smooth = 0;
x = 1036;
y = 420;
},
{
segmentType = curve;
smooth = 1;
x = 1036;
y = 280;
},
{
smooth = 0;
x = 1036;
y = 168;
},
{
smooth = 0;
x = 938;
y = 88;
},
{
segmentType = curve;
smooth = 1;
x = 736;
y = 88;
},
{
smooth = 0;
x = 514;
y = 88;
},
{
smooth = 0;
x = 338;
y = 184;
},
{
segmentType = curve;
smooth = 0;
x = 324;
y = 494;
},
{
segmentType = line;
smooth = 0;
x = 206;
y = 500;
},
{
segmentType = line;
smooth = 0;
x = 176;
y = 12;
},
{
segmentType = line;
smooth = 0;
x = 214;
y = -10;
},
{
smooth = 0;
x = 268;
y = 19;
},
{
smooth = 0;
x = 340;
y = 32;
},
{
segmentType = curve;
smooth = 1;
x = 442;
y = 6;
},
{
smooth = 0;
x = 516;
y = -12;
},
{
smooth = 0;
x = 602;
y = -40;
},
{
segmentType = curve;
smooth = 1;
x = 724;
y = -40;
},
{
smooth = 0;
x = 1059;
y = -40;
},
{
smooth = 0;
x = 1222;
y = 110;
},
{
segmentType = curve;
smooth = 1;
x = 1222;
y = 366;
},
{
smooth = 0;
x = 1222;
y = 512;
},
{
smooth = 0;
x = 1168;
y = 626;
},
{
segmentType = curve;
smooth = 1;
x = 1044;
y = 716;
},
{
smooth = 0;
x = 980;
y = 762;
},
{
smooth = 0;
x = 892;
y = 804;
},
{
segmentType = curve;
smooth = 1;
x = 786;
y = 844;
},
{
smooth = 0;
x = 485;
y = 959;
},
{
smooth = 0;
x = 386;
y = 1002;
},
{
segmentType = curve;
smooth = 1;
x = 386;
y = 1132;
},
{
smooth = 0;
x = 386;
y = 1248;
},
{
smooth = 0;
x = 480;
y = 1352;
},
{
segmentType = curve;
smooth = 1;
x = 690;
y = 1352;
},
{
smooth = 0;
x = 914;
y = 1352;
},
{
smooth = 0;
x = 1042;
y = 1256;
},
{
segmentType = curve;
smooth = 0;
x = 1038;
y = 958;
},
{
segmentType = line;
smooth = 0;
x = 1154;
y = 946;
},
{
segmentType = line;
smooth = 0;
x = 1210;
y = 1422;
},
{
segmentType = line;
smooth = 0;
x = 1172;
y = 1446;
},
{
smooth = 0;
x = 1132;
y = 1428;
},
{
smooth = 0;
x = 1078;
y = 1420;
},
{
segmentType = curve;
smooth = 1;
x = 1030;
y = 1426;
},
{
smooth = 0;
x = 932;
y = 1440;
},
{
smooth = 0;
x = 842;
y = 1480;
}
);
}
);
lib = {
};
name = S.calt;
unicodes = (
);
width = 1400;
};
};
};
},
{
glyphname = C_K;
layers = (
{
layerId = "A06561DA-A1C3-4D4F-A301-2F031DFC9FDA";
shapes = (
{
closed = 1;
nodes = (
(2320,716,l),
(2730,1122,ls),
(2852,1242,o),
(2946,1324,o),
(3116,1344,c),
(3124,1440,l),
(2438,1440,l),
(2446,1344,l),
(2620,1334,o),
(2654,1254,o),
(2562,1158,cs),
(2168,746,l),
(2168,694,l),
(2330,418,o),
(2492,218,o),
(2598,118,cs),
(2726,-2,o),
(2846,-36,o),
(2944,-36,cs),
(3046,-36,o),
(3154,2,o),
(3262,106,c),
(3212,192,l),
(3156,172,o),
(3100,158,o),
(3046,158,cs),
(2986,158,o),
(2928,170,o),
(2838,244,cs),
(2720,340,o),
(2558,526,o),
(2324,894,c)
);
},
{
closed = 1;
nodes = (
(1800,342,ls),
(1800,152,o),
(1800,112,o),
(1570,96,c),
(1566,0,l),
(2290,0,l),
(2286,96,l),
(2056,112,o),
(2056,154,o),
(2056,338,cs),
(2056,1098,ls),
(2056,1288,o),
(2060,1330,o),
(2266,1344,c),
(2270,1440,l),
(1566,1440,l),
(1570,1344,l),
(1802,1330,o),
(1800,1286,o),
(1800,1102,c)
);
},
{
closed = 1;
nodes = (
(1222,1366,o),
(1378,1284,o),
(1378,918,c),
(1494,906,l),
(1556,1428,l),
(1518,1452,l),
(1479,1435,o),
(1424,1430,o),
(1376,1436,c),
(1278,1450,o),
(1188,1506,o),
(978,1506,cs),
(502,1506,o),
(196,1114,o),
(196,714,cs),
(196,284,o),
(478,-62,o),
(964,-62,cs),
(1413,-62,o),
(1704,182,o),
(1988,548,c),
(1896,648,l),
(1636,336,o),
(1400,88,o),
(1008,88,cs),
(668,88,o),
(474,421,o),
(474,816,cs),
(474,1144,o),
(666,1366,o),
(986,1366,cs)
);
}
);
width = 3256;
}
);
userData = {
com.typemytype.robofont.layerData = {
background = {
anchors = (
);
components = (
);
contours = (
{
points = (
{
segmentType = curve;
smooth = 0;
x = 1800;
y = 1102;
},
{
segmentType = line;
smooth = 1;
x = 1800;
y = 342;
},
{
smooth = 0;
x = 1800;
y = 152;
},
{
smooth = 0;
x = 1800;
y = 112;
},
{
segmentType = curve;
smooth = 0;
x = 1570;
y = 96;
},
{
segmentType = line;
smooth = 0;
x = 1566;
y = 0;
},
{
segmentType = line;
smooth = 0;
x = 2290;
y = 0;
},
{
segmentType = line;
smooth = 0;
x = 2286;
y = 96;
},
{
smooth = 0;
x = 2056;
y = 112;
},
{
smooth = 0;
x = 2056;
y = 154;
},
{
segmentType = curve;
smooth = 1;
x = 2056;
y = 338;
},
{
segmentType = line;
smooth = 1;
x = 2056;
y = 1098;
},
{
smooth = 0;
x = 2056;
y = 1288;
},
{
smooth = 0;
x = 2060;
y = 1330;
},
{
segmentType = curve;
smooth = 0;
x = 2266;
y = 1344;
},
{
segmentType = line;
smooth = 0;
x = 2270;
y = 1440;
},
{
segmentType = line;
smooth = 0;
x = 1566;
y = 1440;
},
{
segmentType = line;
smooth = 0;
x = 1570;
y = 1344;
},
{
smooth = 0;
x = 1802;
y = 1330;
},
{
smooth = 0;
x = 1800;
y = 1286;
}
);
},
{
points = (
{
segmentType = curve;
smooth = 1;
x = 986;
y = 1366;
},
{
smooth = 0;
x = 1222;
y = 1366;
},
{
smooth = 0;
x = 1378;
y = 1284;
},
{
segmentType = curve;
smooth = 0;
x = 1378;
y = 918;
},
{
segmentType = line;
smooth = 0;
x = 1494;
y = 906;
},
{
segmentType = line;
smooth = 0;
x = 1556;
y = 1428;
},
{
segmentType = line;
smooth = 0;
x = 1518;
y = 1452;
},
{
smooth = 0;
x = 1479;
y = 1435;
},
{
smooth = 0;
x = 1424;
y = 1430;
},
{
segmentType = curve;
smooth = 0;
x = 1376;
y = 1436;
},
{
smooth = 0;
x = 1278;
y = 1450;
},
{
smooth = 0;
x = 1188;
y = 1506;
},
{
segmentType = curve;
smooth = 1;
x = 978;
y = 1506;
},
{
smooth = 0;
x = 502;
y = 1506;
},
{
smooth = 0;
x = 196;
y = 1114;
},
{
segmentType = curve;
smooth = 1;
x = 196;
y = 714;
},
{
smooth = 0;
x = 196;
y = 284;
},
{
smooth = 0;
x = 478;
y = -62;
},
{
segmentType = curve;
smooth = 1;
x = 964;
y = -62;
},
{
smooth = 0;
x = 1236;
y = -62;
},
{
smooth = 0;
x = 1440;
y = 42;
},
{
segmentType = curve;
smooth = 0;
x = 1584;
y = 262;
},
{
segmentType = line;
smooth = 0;
x = 1484;
y = 338;
},
{
smooth = 0;
x = 1366;
y = 176;
},
{
smooth = 0;
x = 1218;
y = 88;
},
{
segmentType = curve;
smooth = 1;
x = 1008;
y = 88;
},
{
smooth = 0;
x = 668;
y = 88;
},
{
smooth = 0;
x = 474;
y = 421;
},
{
segmentType = curve;
smooth = 1;
x = 474;
y = 816;
},
{
smooth = 0;
x = 474;
y = 1144;
},
{
smooth = 0;
x = 666;
y = 1366;
}
);
},
{
points = (
{
segmentType = curve;
smooth = 0;
x = 2324;
y = 894;
},
{
segmentType = line;
smooth = 0;
x = 2320;
y = 716;
},
{
segmentType = line;
smooth = 1;
x = 2730;
y = 1122;
},
{
smooth = 0;
x = 2852;
y = 1242;
},
{
smooth = 0;
x = 2946;
y = 1324;
},
{
segmentType = curve;
smooth = 0;
x = 3116;
y = 1344;
},
{
segmentType = line;
smooth = 0;
x = 3124;
y = 1440;
},
{
segmentType = line;
smooth = 0;
x = 2438;
y = 1440;
},
{
segmentType = line;
smooth = 0;
x = 2446;
y = 1344;
},
{
smooth = 0;
x = 2620;
y = 1334;
},
{
smooth = 0;
x = 2654;
y = 1254;
},
{
segmentType = curve;
smooth = 1;
x = 2562;
y = 1158;
},
{
segmentType = line;
smooth = 0;
x = 2168;
y = 746;
},
{
segmentType = line;
smooth = 0;
x = 2168;
y = 694;
},
{
smooth = 0;
x = 2330;
y = 418;
},
{
smooth = 0;
x = 2492;
y = 218;
},
{
segmentType = curve;
smooth = 1;
x = 2598;
y = 118;
},
{
smooth = 0;
x = 2726;
y = -2;
},
{
smooth = 0;
x = 2846;
y = -36;
},
{
segmentType = curve;
smooth = 1;
x = 2944;
y = -36;
},
{
smooth = 0;
x = 3046;
y = -36;
},
{
smooth = 0;
x = 3154;
y = 2;
},
{
segmentType = curve;
smooth = 0;
x = 3262;
y = 106;
},
{
segmentType = line;
smooth = 0;
x = 3212;
y = 192;
},
{
smooth = 0;
x = 3156;
y = 172;
},
{
smooth = 0;
x = 3100;
y = 158;
},
{
segmentType = curve;
smooth = 1;
x = 3046;
y = 158;
},
{
smooth = 0;
x = 2986;
y = 158;
},
{
smooth = 0;
x = 2928;
y = 170;
},
{
segmentType = curve;
smooth = 1;
x = 2838;
y = 244;
},
{
smooth = 0;
x = 2720;
y = 340;
},
{
smooth = 0;
x = 2558;
y = 526;
}
);
}
);
lib = {
};
name = C;
unicodes = (
);
width = 3256;
};
};
};
},
{
glyphname = S_T;
layers = (
{
layerId = "A06561DA-A1C3-4D4F-A301-2F031DFC9FDA";
shapes = (
{
closed = 1;
nodes = (
(1342,932,l),
(1382,1234,o),
(1446,1312,o),
(1612,1312,cs),
(1830,1312,l),
(1830,342,ls),
(1830,152,o),
(1830,112,o),
(1600,96,c),
(1596,0,l),
(2320,0,l),
(2320,0,o),
(2316,96,o),
(2316,96,c),
(2084,110,o),
(2086,154,o),
(2086,338,cs),
(2086,1312,l),
(2248,1312,ls),
(2514,1312,o),
(2552,1248,o),
(2554,938,c),
(2680,930,l),
(2720,1432,l),
(2682,1458,l),
(2572,1444,o),
(2412,1440,o),
(2294,1440,cs),
(1616,1440,ls),
(1466,1440,o),
(1324,1424,o),
(1218,1386,c),
(1106,1426,o),
(928,1480,o),
(764,1480,cs),
(392,1480,o),
(224,1292,o),
(224,1064,cs),
(224,918,o),
(266,802,o),
(406,706,cs),
(478,658,o),
(578,616,o),
(702,568,cs),
(978,460,o),
(1058,420,o),
(1058,280,cs),
(1058,168,o),
(960,88,o),
(756,88,cs),
(534,88,o),
(358,184,o),
(344,494,c),
(226,492,l),
(228,332,o),
(226,156,o),
(196,12,c),
(234,-10,l),
(288,18,o),
(360,32,o),
(462,6,cs),
(536,-12,o),
(622,-40,o),
(744,-40,cs),
(1078,-40,o),
(1242,110,o),
(1242,366,cs),
(1242,512,o),
(1188,626,o),
(1064,716,cs),
(1000,762,o),
(912,804,o),
(806,844,cs),
(506,958,o),
(408,1002,o),
(408,1132,cs),
(408,1248,o),
(502,1352,o),
(752,1352,cs),
(1056,1352,o),
(1150,1232,o),
(1212,944,c)
);
}
);
width = 2780;
}
);
userData = {
com.typemytype.robofont.layerData = {
background = {
anchors = (
);
components = (
);
contours = (
{
points = (
{
segmentType = line;
smooth = 1;
x = 1776;
y = 1440;
},
{
smooth = 0;
x = 1630;
y = 1440;
},
{
smooth = 0;
x = 1500;
y = 1444;
},
{
segmentType = curve;
smooth = 0;
x = 1390;
y = 1458;
},
{
segmentType = line;
smooth = 0;
x = 1352;
y = 1432;
},
{
segmentType = line;
smooth = 0;
x = 1302;
y = 938;
},
{
segmentType = line;
smooth = 0;
x = 1426;
y = 924;
},
{
smooth = 0;
x = 1508;
y = 1266;
},
{
smooth = 0;
x = 1534;
y = 1312;
},
{
segmentType = curve;
smooth = 1;
x = 1772;
y = 1312;
},
{
segmentType = line;
smooth = 0;
x = 1910;
y = 1312;
},
{
segmentType = line;
smooth = 1;
x = 1910;
y = 342;
},
{
smooth = 0;
x = 1910;
y = 152;
},
{
smooth = 0;
x = 1910;
y = 112;
},
{
segmentType = curve;
smooth = 0;
x = 1680;
y = 96;
},
{
segmentType = line;
smooth = 0;
x = 1676;
y = 0;
},
{
segmentType = line;
smooth = 0;
x = 2400;
y = 0;
},
{
smooth = 0;
x = 2400;
y = 0;
},
{
smooth = 0;
x = 2396;
y = 96;
},
{
segmentType = curve;
smooth = 0;
x = 2396;
y = 96;
},
{
smooth = 0;
x = 2164;
y = 110;
},
{
smooth = 0;
x = 2166;
y = 154;
},
{
segmentType = curve;
smooth = 1;
x = 2166;
y = 338;
},
{
segmentType = line;
smooth = 0;
x = 2166;
y = 1312;
},
{
segmentType = line;
smooth = 1;
x = 2328;
y = 1312;
},
{
smooth = 0;
x = 2594;
y = 1312;
},
{
smooth = 0;
x = 2632;
y = 1248;
},
{
segmentType = curve;
smooth = 0;
x = 2634;
y = 938;
},
{
segmentType = line;
smooth = 0;
x = 2760;
y = 930;
},
{
segmentType = line;
smooth = 0;
x = 2800;
y = 1432;
},
{
segmentType = line;
smooth = 0;
x = 2762;
y = 1458;
},
{
smooth = 0;
x = 2652;
y = 1444;
},
{
smooth = 0;
x = 2492;
y = 1440;
},
{
segmentType = curve;
smooth = 1;
x = 2374;
y = 1440;
}
);
},
{
points = (
{
segmentType = curve;
smooth = 1;
x = 718;
y = 1480;
},
{
smooth = 0;
x = 392;
y = 1480;
},
{
smooth = 0;
x = 224;
y = 1292;
},
{
segmentType = curve;
smooth = 1;
x = 224;
y = 1064;
},
{
smooth = 0;
x = 224;
y = 918;
},
{
smooth = 0;
x = 266;
y = 803;
},
{
segmentType = curve;
smooth = 1;
x = 406;
y = 706;
},
{
smooth = 0;
x = 478;
y = 658;
},
{
smooth = 0;
x = 578;
y = 616;
},
{
segmentType = curve;
smooth = 1;
x = 702;
y = 568;
},
{
smooth = 0;
x = 977;
y = 459;
},
{
smooth = 0;
x = 1058;
y = 420;
},
{
segmentType = curve;
smooth = 1;
x = 1058;
y = 280;
},
{
smooth = 0;
x = 1058;
y = 168;
},
{
smooth = 0;
x = 959;
y = 88;
},
{
segmentType = curve;
smooth = 1;
x = 756;
y = 88;
},
{
smooth = 0;
x = 534;
y = 88;
},
{
smooth = 0;
x = 358;
y = 184;
},
{
segmentType = curve;
smooth = 0;
x = 344;
y = 494;
},
{
segmentType = line;
smooth = 0;
x = 226;
y = 492;
},
{
smooth = 0;
x = 228;
y = 333;
},
{
smooth = 0;
x = 226;
y = 156;
},
{
segmentType = curve;
smooth = 0;
x = 196;
y = 12;
},
{
segmentType = line;
smooth = 0;
x = 234;
y = -10;
},
{
smooth = 0;
x = 288;
y = 18;
},
{
smooth = 0;
x = 360;
y = 32;
},
{
segmentType = curve;
smooth = 1;
x = 462;
y = 6;
},
{
smooth = 0;
x = 536;
y = -12;
},
{
smooth = 0;
x = 622;
y = -40;
},
{
segmentType = curve;
smooth = 1;
x = 744;
y = -40;
},
{
smooth = 0;
x = 1079;
y = -40;
},
{
smooth = 0;
x = 1242;
y = 110;
},
{
segmentType = curve;
smooth = 1;
x = 1242;
y = 366;
},
{
smooth = 0;
x = 1242;
y = 512;
},
{
smooth = 0;
x = 1188;
y = 626;
},
{
segmentType = curve;
smooth = 1;
x = 1064;
y = 716;
},
{
smooth = 0;
x = 1000;
y = 762;
},
{
smooth = 0;
x = 912;
y = 804;
},
{
segmentType = curve;
smooth = 1;
x = 806;
y = 844;
},
{
smooth = 0;
x = 506;
y = 958;
},
{
smooth = 0;
x = 408;
y = 1002;
},
{
segmentType = curve;
smooth = 1;
x = 408;
y = 1132;
},
{
smooth = 0;
x = 408;
y = 1248;
},
{
smooth = 0;
x = 501;
y = 1352;
},
{
segmentType = curve;
smooth = 1;
x = 710;
y = 1352;
},
{
smooth = 0;
x = 934;
y = 1352;
},
{
smooth = 0;
x = 1062;
y = 1256;
},
{
segmentType = curve;
smooth = 0;
x = 1058;
y = 958;
},
{
segmentType = line;
smooth = 0;
x = 1174;
y = 952;
},
{
smooth = 0;
x = 1182;
y = 1070;
},
{
smooth = 0;
x = 1196;
y = 1260;
},
{
segmentType = curve;
smooth = 0;
x = 1230;
y = 1422;
},
{
segmentType = line;
smooth = 0;
x = 1192;
y = 1446;
},
{
smooth = 0;
x = 1152;
y = 1428;
},
{
smooth = 0;
x = 1098;
y = 1420;
},
{
segmentType = curve;
smooth = 1;
x = 1050;
y = 1426;
},
{
smooth = 0;
x = 952;
y = 1440;
},
{
smooth = 0;
x = 862;
y = 1480;
}
);
}
);
lib = {
};
name = S_T;
unicodes = (
);
width = 2780;
};
};
};
},
{
glyphname = T_T;
layers = (
{
layerId = "A06561DA-A1C3-4D4F-A301-2F031DFC9FDA";
shapes = (
{
closed = 1;
nodes = (
(470,940,o),
(340,944,o),
(230,958,c),
(192,932,l),
(142,438,l),
(266,424,l),
(348,766,o),
(374,812,o),
(612,812,c),
(750,812,l),
(1006,812,l),
(1168,812,ls),
(1434,812,o),
(1472,748,o),
(1474,438,c),
(1600,430,l),
(1640,932,l),
(1602,958,l),
(1492,944,o),
(1332,940,o),
(1214,940,cs),
(616,940,ls)
);
},
{
closed = 1;
nodes = (
(470,1620,o),
(340,1624,o),
(230,1638,c),
(192,1612,l),
(142,1118,l),
(266,1104,l),
(348,1446,o),
(374,1492,o),
(612,1492,cs),
(750,1492,l),
(750,342,ls),
(750,152,o),
(750,112,o),
(520,96,c),
(516,0,l),
(1240,0,l),
(1240,0,o),
(1236,96,o),
(1236,96,c),
(1004,110,o),
(1006,154,o),
(1006,338,cs),
(1006,1492,l),
(1168,1492,ls),
(1434,1492,o),
(1472,1428,o),
(1474,1118,c),
(1600,1110,l),
(1640,1612,l),
(1602,1638,l),
(1492,1624,o),
(1332,1620,o),
(1214,1620,cs),
(616,1620,ls)
);
}
);
width = 1756;
}
);
userData = {
com.typemytype.robofont.layerData = {
background = {
anchors = (
);
components = (
);
contours = (
);
lib = {
};
name = T_T;
unicodes = (
);
width = 1756;
};
};
};
},
{
glyphname = aring;
layers = (
{
layerId = "A06561DA-A1C3-4D4F-A301-2F031DFC9FDA";
shapes = (
{
closed = 1;
nodes = (
(806,1811,o),
(712,1718,o),
(712,1604,cs),
(712,1489,o),
(806,1396,o),
(920,1396,cs),
(1034,1396,o),
(1128,1489,o),
(1128,1604,cs),
(1128,1718,o),
(1034,1811,o),
(920,1811,cs)
);
},
{
ref = A;
}
);
width = 1906;
}
);
unicode = 229;
userData = {
com.typemytype.robofont.layerData = {
background = {
anchors = (
);
components = (
);
contours = (
);
lib = {
};
name = aring;
unicodes = (
);
width = 1906;
};
};
com.typemytype.robofont.mark = (
0.3692,
0.5456,
0.891,
1
);
};
},
{
glyphname = zero;
layers = (
{
layerId = "A06561DA-A1C3-4D4F-A301-2F031DFC9FDA";
shapes = (
{
closed = 1;
nodes = (
(1024,1492,o),
(798,1492,cs),
(444,1492,o),
(150,1186,o),
(150,710,cs),
(150,550,o),
(186,390,o),
(258,260,c),
(360,74,o),
(572,-50,o),
(798,-50,cs),
(1152,-50,o),
(1446,252,o),
(1446,732,cs),
(1446,892,o),
(1410,1052,o),
(1338,1182,c),
(1236,1368,o)
);
},
{
closed = 1;
nodes = (
(410,682,o),
(410,840,cs),
(410,1198,o),
(570,1338,o),
(728,1338,cs),
(860,1338,o),
(982,1238,o),
(1072,1076,cs),
(1150,932,o),
(1186,760,o),
(1186,602,cs),
(1186,240,o),
(1026,104,o),
(868,104,cs),
(736,104,o),
(614,204,o),
(524,366,cs),
(446,510,o)
);
}
);
width = 1596;
}
);
unicode = 48;
userData = {
com.typemytype.robofont.layerData = {
background = {
anchors = (
);
components = (
);
contours = (
{
points = (
{
segmentType = curve;
smooth = 0;
x = 524;
y = 366;
},
{
smooth = 0;
x = 338;
y = 708;
},
{
smooth = 0;
x = 390;
y = 1198;
},
{
segmentType = curve;
smooth = 1;
x = 594;
y = 1310;
},
{
smooth = 0;
x = 776;
y = 1410;
},
{
smooth = 0;
x = 950;
y = 1296;
},
{
segmentType = curve;
smooth = 0;
x = 1072;
y = 1076;
},
{
smooth = 0;
x = 1258;
y = 734;
},
{
smooth = 0;
x = 1206;
y = 244;
},
{
segmentType = curve;
smooth = 1;
x = 1002;
y = 132;
},
{
smooth = 0;
x = 820;
y = 32;
},
{
smooth = 0;
x = 646;
y = 146;
}
);
},
{
points = (
{
segmentType = curve;
smooth = 0;
x = 1338;
y = 1182;
},
{
smooth = 0;
x = 1196;
y = 1442;
},
{
smooth = 0;
x = 834;
y = 1582;
},
{
segmentType = curve;
smooth = 1;
x = 528;
y = 1428;
},
{
smooth = 0;
x = 128;
y = 1226;
},
{
smooth = 0;
x = 58;
y = 624;
},
{
segmentType = curve;
smooth = 0;
x = 258;
y = 260;
},
{
smooth = 0;
x = 400;
y = 0;
},
{
smooth = 0;
x = 762;
y = -140;
},
{
segmentType = curve;
smooth = 1;
x = 1068;
y = 14;
},
{
smooth = 0;
x = 1468;
y = 216;
},
{
smooth = 0;
x = 1538;
y = 818;
}
);
},
{
points = (
{
segmentType = move;
x = -1596;
y = 1316;
},
{
smooth = 0;
x = -1424;
y = 1406;
},
{
smooth = 0;
x = -1240;
y = 1328;
},
{
segmentType = curve;
smooth = 1;
x = -1112;
y = 1056;
},
{
smooth = 0;
x = -902;
y = 612;
},
{
smooth = 0;
x = -988;
y = 214;
},
{
segmentType = curve;
smooth = 1;
x = -1182;
y = 120;
}
);
},
{
points = (
{
segmentType = move;
x = -1126;
y = 0;
},
{
smooth = 0;
x = -724;
y = 168;
},
{
smooth = 0;
x = -642;
y = 780;
},
{
segmentType = curve;
smooth = 1;
x = -844;
y = 1180;
},
{
smooth = 0;
x = -984;
y = 1456;
},
{
smooth = 0;
x = -1356;
y = 1604;
},
{
segmentType = curve;
smooth = 1;
x = -1678;
y = 1426;
}
);
},
{
points = (
{
smooth = 0;
x = 2780;
y = 306;
},
{
smooth = 0;
x = 2658;
y = 72;
},
{
segmentType = curve;
smooth = 1;
x = 2444;
y = 72;
},
{
smooth = 0;
x = 2164;
y = 72;
},
{
smooth = 0;
x = 2024;
y = 460;
},
{
segmentType = curve;
smooth = 1;
x = 2024;
y = 824;
},
{
smooth = 0;
x = 2024;
y = 1136;
},
{
smooth = 0;
x = 2154;
y = 1372;
},
{
segmentType = curve;
smooth = 1;
x = 2352;
y = 1372;
},
{
smooth = 0;
x = 2636;
y = 1372;
},
{
smooth = 0;
x = 2780;
y = 998;
},
{
segmentType = curve;
smooth = 1;
x = 2780;
y = 620;
}
);
},
{
points = (
{
smooth = 0;
x = 2798;
y = -62;
},
{
smooth = 0;
x = 3056;
y = 346;
},
{
segmentType = curve;
smooth = 1;
x = 3056;
y = 752;
},
{
smooth = 0;
x = 3056;
y = 1150;
},
{
smooth = 0;
x = 2824;
y = 1506;
},
{
segmentType = curve;
smooth = 1;
x = 2434;
y = 1506;
},
{
smooth = 0;
x = 2008;
y = 1506;
},
{
smooth = 0;
x = 1746;
y = 1104;
},
{
segmentType = curve;
smooth = 1;
x = 1746;
y = 694;
},
{
smooth = 0;
x = 1746;
y = 308;
},
{
smooth = 0;
x = 1970;
y = -62;
},
{
segmentType = curve;
smooth = 1;
x = 2372;
y = -62;
}
);
}
);
lib = {
};
name = zero;
unicodes = (
);
width = 1596;
};
};
};
},
{
glyphname = one;
layers = (
{
layerId = "A06561DA-A1C3-4D4F-A301-2F031DFC9FDA";
shapes = (
{
closed = 1;
nodes = (
(380,342,ls),
(380,152,o),
(380,112,o),
(150,96,c),
(146,0,l),
(870,0,l),
(870,0,o),
(866,96,o),
(866,96,c),
(634,110,o),
(636,154,o),
(636,338,cs),
(636,1110,ls),
(636,1190,o),
(646,1316,o),
(666,1428,c),
(598,1488,l),
(70,1336,l),
(70,1336,o),
(100,1242,o),
(100,1242,c),
(348,1290,o),
(380,1250,o),
(380,1114,cs)
);
}
);
width = 936;
}
);
unicode = 49;
userData = {
com.typemytype.robofont.layerData = {
background = {
anchors = (
);
components = (
);
contours = (
{
points = (
{
segmentType = curve;
smooth = 0;
x = 380;
y = 1102;
},
{
segmentType = line;
smooth = 1;
x = 380;
y = 342;
},
{
smooth = 0;
x = 380;
y = 152;
},
{
smooth = 0;
x = 380;
y = 112;
},
{
segmentType = curve;
smooth = 0;
x = 150;
y = 96;
},
{
segmentType = line;
smooth = 0;
x = 146;
y = 0;
},
{
segmentType = line;
smooth = 0;
x = 870;
y = 0;
},
{
smooth = 0;
x = 870;
y = 0;
},
{
smooth = 0;
x = 866;
y = 96;
},
{
segmentType = curve;
smooth = 0;
x = 866;
y = 96;
},
{
smooth = 0;
x = 634;
y = 110;
},
{
smooth = 0;
x = 636;
y = 154;
},
{
segmentType = curve;
smooth = 1;
x = 636;
y = 338;
},
{
segmentType = line;
smooth = 1;
x = 636;
y = 1098;
},
{
smooth = 0;
x = 636;
y = 1288;
},
{
smooth = 0;
x = 636;
y = 1330;
},
{
segmentType = curve;
smooth = 0;
x = 866;
y = 1344;
},
{
segmentType = line;
smooth = 0;
x = 870;
y = 1440;
},
{
segmentType = line;
smooth = 0;
x = 146;
y = 1440;
},
{
smooth = 0;
x = 146;
y = 1440;
},
{
smooth = 0;
x = 150;
y = 1344;
},
{
segmentType = curve;
smooth = 0;
x = 150;
y = 1344;
},
{
smooth = 0;
x = 382;
y = 1330;
},
{
smooth = 0;
x = 380;
y = 1286;
}
);
}
);
lib = {
};
name = I;
unicodes = (
);
width = 936;
};
};
};
},
{
glyphname = two;
layers = (
{
layerId = "A06561DA-A1C3-4D4F-A301-2F031DFC9FDA";
shapes = (
{
closed = 1;
nodes = (
(224,45,o),
(375,115,o),
(546,221,cs),
(760,354,o),
(923.477,519.776,o),
(1020,677,cs),
(1138.701,868.354,o),
(1152,1028,o),
(1105,1177,cs),
(1040,1385,o),
(847.404,1485,o),
(608,1485,cs),
(417,1485,o),
(234,1427,o),
(156,1390,c),
(118,1022,l),
(232,1003,l),
(311.691,1262.263,o),
(392,1341,o),
(548,1341,cs),
(701,1341,o),
(814,1234,o),
(860,1055,cs),
(892,933,o),
(891,834,o),
(853,735,cs),
(802,604,o),
(679,476,o),
(473,342,cs),
(321,243,o),
(189,185,o),
(60,130,c),
(114,3,l)
);
},
{
closed = 1;
nodes = (
(497,21,o),
(672,-30,o),
(858,-30,cs),
(963,-30,o),
(1064,-8,o),
(1132,18,c),
(1199,392,l),
(1086,418,l),
(1022,243,o),
(980,182,o),
(850,182,cs),
(721,182,o),
(596,205,o),
(446,247,c),
(289,111,l)
);
}
);
width = 1319;
}
);
unicode = 50;
userData = {
com.typemytype.robofont.layerData = {
background = {
anchors = (
);
components = (
);
contours = (
);
lib = {
};
name = two;
unicodes = (
);
width = 1319;
};
};
};
},
{
glyphname = three;
layers = (
{
layerId = "A06561DA-A1C3-4D4F-A301-2F031DFC9FDA";
shapes = (
{
closed = 1;
nodes = (
(334,1290,o),
(459,1351,o),
(590,1351,cs),
(679,1351,o),
(781,1303,o),
(799,1179,cs),
(820,1038,o),
(793,890,o),
(407,767,c),
(443,647,l),
(695,724,o),
(866,639,o),
(901,480,cs),
(927,362,o),
(900,279,o),
(758,197,cs),
(616,115,o),
(423,95,o),
(145,170,c),
(100,124,l),
(193,-56,l),
(481,-44,o),
(757,21,o),
(940,133,cs),
(1090,226,o),
(1225,372,o),
(1171,577,cs),
(1110,809,o),
(858,919,o),
(481,728,c),
(491,698,l),
(1071,863,o),
(1079,1094,o),
(1051,1238,cs),
(1018,1406,o),
(861,1488,o),
(655,1488,cs),
(499,1488,o),
(316,1440,o),
(205,1404,c),
(151,1103,l),
(261,1068,l)
);
}
);
width = 1302.91182;
}
);
unicode = 51;
userData = {
com.typemytype.robofont.layerData = {
background = {
anchors = (
);
components = (
);
contours = (
{
points = (
{
segmentType = line;
smooth = 0;
x = 207;
y = 1440;
},
{
segmentType = line;
smooth = 0;
x = 161;
y = 1400;
},
{
segmentType = line;
smooth = 0;
x = 123;
y = 996;
},
{
segmentType = line;
smooth = 0;
x = 231;
y = 978;
},
{
smooth = 0;
x = 301;
y = 1214;
},
{
smooth = 0;
x = 357;
y = 1270;
},
{
segmentType = curve;
smooth = 1;
x = 517;
y = 1270;
},
{
segmentType = line;
smooth = 0;
x = 925;
y = 1270;
},
{
segmentType = line;
smooth = 0;
x = 881;
y = 1332;
},
{
segmentType = line;
smooth = 0;
x = 455;
y = 760;
},
{
segmentType = line;
smooth = 0;
x = 493;
y = 684;
},
{
smooth = 0;
x = 648;
y = 694;
},
{
smooth = 0;
x = 864;
y = 670;
},
{
segmentType = curve;
smooth = 1;
x = 909;
y = 483;
},
{
smooth = 0;
x = 932;
y = 388;
},
{
smooth = 0;
x = 901;
y = 288;
},
{
segmentType = curve;
smooth = 1;
x = 791;
y = 209;
},
{
smooth = 0;
x = 658;
y = 114;
},
{
smooth = 0;
x = 443;
y = 82;
},
{
segmentType = curve;
smooth = 0;
x = 145;
y = 170;
},
{
segmentType = line;
smooth = 0;
x = 100;
y = 124;
},
{
segmentType = line;
smooth = 0;
x = 193;
y = -56;
},
{
smooth = 0;
x = 481;
y = -44;
},
{
smooth = 0;
x = 757;
y = 21;
},
{
segmentType = curve;
smooth = 1;
x = 940;
y = 133;
},
{
smooth = 0;
x = 1089;
y = 225;
},
{
smooth = 0;
x = 1221;
y = 379;
},
{
segmentType = curve;
smooth = 1;
x = 1166;
y = 588;
},
{
smooth = 0;
x = 1096;
y = 854;
},
{
smooth = 0;
x = 761;
y = 862;
},
{
segmentType = curve;
smooth = 0;
x = 531;
y = 778;
},
{
segmentType = line;
smooth = 0;
x = 661;
y = 778;
},
{
segmentType = line;
smooth = 0;
x = 1107;
y = 1322;
},
{
segmentType = line;
smooth = 0;
x = 1087;
y = 1440;
}
);
},
{
points = (
{
segmentType = line;
smooth = 0;
x = 1427;
y = 1440;
},
{
segmentType = line;
smooth = 0;
x = 1381;
y = 1400;
},
{
segmentType = line;
smooth = 0;
x = 1343;
y = 996;
},
{
segmentType = line;
smooth = 0;
x = 1451;
y = 978;
},
{
smooth = 0;
x = 1521;
y = 1214;
},
{
smooth = 0;
x = 1577;
y = 1270;
},
{
segmentType = curve;
smooth = 1;
x = 1737;
y = 1270;
},
{
segmentType = line;
smooth = 0;
x = 2125;
y = 1270;
},
{
segmentType = line;
smooth = 0;
x = 2081;
y = 1332;
},
{
segmentType = line;
smooth = 0;
x = 1655;
y = 760;
},
{
segmentType = line;
smooth = 0;
x = 1693;
y = 684;
},
{
smooth = 0;
x = 1841;
y = 694;
},
{
smooth = 0;
x = 2027;
y = 658;
},
{
segmentType = curve;
smooth = 1;
x = 2089;
y = 426;
},
{
smooth = 0;
x = 2145;
y = 220;
},
{
smooth = 0;
x = 2079;
y = 88;
},
{
segmentType = curve;
smooth = 1;
x = 1821;
y = 88;
},
{
smooth = 0;
x = 1599;
y = 88;
},
{
smooth = 0;
x = 1533;
y = 162;
},
{
segmentType = curve;
smooth = 0;
x = 1439;
y = 490;
},
{
segmentType = line;
smooth = 0;
x = 1329;
y = 478;
},
{
segmentType = line;
smooth = 0;
x = 1363;
y = 104;
},
{
segmentType = line;
smooth = 0;
x = 1391;
y = 66;
},
{
smooth = 0;
x = 1481;
y = 14;
},
{
smooth = 0;
x = 1633;
y = -44;
},
{
segmentType = curve;
smooth = 1;
x = 1831;
y = -44;
},
{
smooth = 0;
x = 1905;
y = -44;
},
{
smooth = 0;
x = 2015;
y = -32;
},
{
segmentType = curve;
smooth = 1;
x = 2113;
y = 22;
},
{
smooth = 0;
x = 2323;
y = 138;
},
{
smooth = 0;
x = 2411;
y = 362;
},
{
segmentType = curve;
smooth = 1;
x = 2331;
y = 578;
},
{
smooth = 0;
x = 2237;
y = 832;
},
{
smooth = 0;
x = 1961;
y = 862;
},
{
segmentType = curve;
smooth = 0;
x = 1731;
y = 778;
},
{
segmentType = line;
smooth = 0;
x = 1861;
y = 778;
},
{
segmentType = line;
smooth = 0;
x = 2307;
y = 1322;
},
{
segmentType = line;
smooth = 0;
x = 2287;
y = 1440;
}
);
}
);
lib = {
};
name = three;
unicodes = (
);
width = 1302.91182;
};
};
};
},
{
glyphname = four;
layers = (
{
layerId = "A06561DA-A1C3-4D4F-A301-2F031DFC9FDA";
shapes = (
{
closed = 1;
nodes = (
(732,152,o),
(732,112,o),
(502,96,c),
(498,0,l),
(1222,0,l),
(1222,0,o),
(1218,96,o),
(1218,96,c),
(986,110,o),
(988,154,o),
(988,338,cs),
(988,1460,l),
(850,1460,l),
(42,490,l),
(84,400,l),
(1256,400,l),
(1274,544,l),
(150,544,l),
(244,520,l),
(796,1200,l),
(732,1200,l),
(732,342,ls)
);
}
);
width = 1284;
}
);
unicode = 52;
userData = {
com.typemytype.robofont.layerData = {
background = {
anchors = (
);
components = (
);
contours = (
{
points = (
{
segmentType = line;
smooth = 0;
x = 986;
y = 0;
},
{
segmentType = line;
smooth = 0;
x = 990;
y = 1460;
},
{
segmentType = line;
smooth = 0;
x = 850;
y = 1460;
},
{
segmentType = line;
smooth = 0;
x = 42;
y = 490;
},
{
segmentType = line;
smooth = 0;
x = 84;
y = 400;
},
{
segmentType = line;
smooth = 0;
x = 1256;
y = 400;
},
{
segmentType = line;
smooth = 0;
x = 1274;
y = 544;
},
{
segmentType = line;
smooth = 0;
x = 150;
y = 544;
},
{
segmentType = line;
smooth = 0;
x = 244;
y = 520;
},
{
segmentType = line;
smooth = 0;
x = 796;
y = 1200;
},
{
segmentType = line;
smooth = 0;
x = 732;
y = 1200;
},
{
segmentType = line;
smooth = 0;
x = 732;
y = 0;
},
{
segmentType = line;
smooth = 0;
x = 786;
y = -40;
}
);
}
);
lib = {
};
name = four;
unicodes = (
);
width = 1284;
};
};
};
},
{
glyphname = five;
layers = (
{
layerId = "A06561DA-A1C3-4D4F-A301-2F031DFC9FDA";
shapes = (
{
closed = 1;
nodes = (
(266,688,l),
(704,790,o),
(872,670,o),
(908,434,cs),
(942,206,o),
(864,88,o),
(620,88,cs),
(398,88,o),
(334,166,o),
(240,460,c),
(130,448,l),
(162,104,l),
(190,66,l),
(280,14,o),
(432,-44,o),
(624,-44,cs),
(704,-44,o),
(816,-24,o),
(916,22,cs),
(1118,116,o),
(1220,334,o),
(1150,586,cs),
(1076,854,o),
(782,1010,o),
(306,812,c),
(382,800,l),
(480,1392,l),
(442,1240,l),
(1054,1240,l),
(1100,1280,l),
(1122,1560,l),
(1014,1570,l),
(986,1470,o),
(956,1440,o),
(866,1440,cs),
(326,1440,l),
(214,738,l)
);
}
);
width = 1329.22481;
}
);
unicode = 53;
userData = {
com.typemytype.robofont.layerData = {
background = {
anchors = (
);
components = (
);
contours = (
{
points = (
{
segmentType = line;
smooth = 0;
x = 226;
y = 1440;
},
{
segmentType = line;
smooth = 0;
x = 180;
y = 1400;
},
{
segmentType = line;
smooth = 0;
x = 142;
y = 996;
},
{
segmentType = line;
smooth = 0;
x = 250;
y = 978;
},
{
smooth = 0;
x = 320;
y = 1214;
},
{
smooth = 0;
x = 376;
y = 1270;
},
{
segmentType = curve;
smooth = 1;
x = 536;
y = 1270;
},
{
segmentType = line;
smooth = 0;
x = 924;
y = 1270;
},
{
segmentType = line;
smooth = 0;
x = 880;
y = 1332;
},
{
segmentType = line;
smooth = 0;
x = 454;
y = 760;
},
{
segmentType = line;
smooth = 0;
x = 492;
y = 684;
},
{
smooth = 0;
x = 640;
y = 694;
},
{
smooth = 0;
x = 826;
y = 658;
},
{
segmentType = curve;
smooth = 1;
x = 888;
y = 426;
},
{
smooth = 0;
x = 944;
y = 220;
},
{
smooth = 0;
x = 878;
y = 88;
},
{
segmentType = curve;
smooth = 1;
x = 620;
y = 88;
},
{
smooth = 0;
x = 398;
y = 88;
},
{
smooth = 0;
x = 332;
y = 162;
},
{
segmentType = curve;
smooth = 0;
x = 238;
y = 490;
},
{
segmentType = line;
smooth = 0;
x = 128;
y = 478;
},
{
segmentType = line;
smooth = 0;
x = 162;
y = 104;
},
{
segmentType = line;
smooth = 0;
x = 190;
y = 66;
},
{
smooth = 0;
x = 280;
y = 14;
},
{
smooth = 0;
x = 432;
y = -44;
},
{
segmentType = curve;
smooth = 1;
x = 630;
y = -44;
},
{
smooth = 0;
x = 704;
y = -44;
},
{
smooth = 0;
x = 814;
y = -32;
},
{
segmentType = curve;
smooth = 1;
x = 912;
y = 22;
},
{
smooth = 0;
x = 1122;
y = 138;
},
{
smooth = 0;
x = 1210;
y = 362;
},
{
segmentType = curve;
smooth = 1;
x = 1130;
y = 578;
},
{
smooth = 0;
x = 1036;
y = 832;
},
{
smooth = 0;
x = 760;
y = 862;
},
{
segmentType = curve;
smooth = 0;
x = 530;
y = 778;
},
{
segmentType = line;
smooth = 0;
x = 660;
y = 778;
},
{
segmentType = line;
smooth = 0;
x = 1106;
y = 1322;
},
{
segmentType = line;
smooth = 0;
x = 1086;
y = 1440;
}
);
}
);
lib = {
};
name = five;
unicodes = (
);
width = 1329.22481;
};
};
};
},
{
glyphname = six;
layers = (
{
layerId = "A06561DA-A1C3-4D4F-A301-2F031DFC9FDA";
shapes = (
{
closed = 1;
nodes = (
(474,864,o),
(636,924,o),
(772,924,cs),
(964,924,o),
(1138,822,o),
(1218,656,cs),
(1376,328,o),
(1150,-48,o),
(754,-48,cs),
(474,-48,o),
(252,114,o),
(166,390,cs),
(72,690,o),
(146,1090,o),
(406,1300,cs),
(528,1398,o),
(674,1460,o),
(872,1460,cs),
(994,1460,o),
(1122,1414,o),
(1218,1330,c),
(1148,1232,l),
(1058,1284,o),
(974,1306,o),
(862,1306,cs),
(754,1306,o),
(670,1274,o),
(594,1220,cs),
(358,1054,o),
(350,638,o),
(484,352,cs),
(562,186,o),
(662,80,o),
(806,80,cs),
(938,80,o),
(1028,170,o),
(1028,314,cs),
(1028,492,o),
(884,770,o),
(660,770,cs),
(564,770,o),
(474,736,o),
(396,676,c),
(340,752,l)
);
}
);
width = 1428;
}
);
unicode = 54;
userData = {
com.typemytype.robofont.layerData = {
background = {
anchors = (
);
components = (
);
contours = (
{
points = (
{
segmentType = line;
smooth = 0;
x = 340;
y = 752;
},
{
smooth = 0;
x = 474;
y = 864;
},
{
smooth = 0;
x = 636;
y = 924;
},
{
segmentType = curve;
smooth = 1;
x = 772;
y = 924;
},
{
smooth = 0;
x = 964;
y = 924;
},
{
smooth = 0;
x = 1138;
y = 822;
},
{
segmentType = curve;
smooth = 1;
x = 1218;
y = 656;
},
{
smooth = 0;
x = 1376;
y = 328;
},
{
smooth = 0;
x = 1150;
y = -48;
},
{
segmentType = curve;
smooth = 1;
x = 754;
y = -48;
},
{
smooth = 0;
x = 474;
y = -48;
},
{
smooth = 0;
x = 252;
y = 114;
},
{
segmentType = curve;
smooth = 1;
x = 166;
y = 390;
},
{
smooth = 0;
x = 72;
y = 690;
},
{
smooth = 0;
x = 140;
y = 1076;
},
{
segmentType = curve;
smooth = 1;
x = 474;
y = 1318;
},
{
smooth = 0;
x = 646;
y = 1442;
},
{
smooth = 0;
x = 884;
y = 1490;
},
{
segmentType = curve;
smooth = 0;
x = 1092;
y = 1498;
},
{
segmentType = line;
smooth = 0;
x = 1202;
y = 1316;
},
{
segmentType = line;
smooth = 0;
x = 1162;
y = 1266;
},
{
smooth = 0;
x = 970;
y = 1338;
},
{
smooth = 0;
x = 728;
y = 1308;
},
{
segmentType = curve;
smooth = 1;
x = 616;
y = 1236;
},
{
smooth = 0;
x = 352;
y = 1068;
},
{
smooth = 0;
x = 350;
y = 638;
},
{
segmentType = curve;
smooth = 1;
x = 484;
y = 352;
},
{
smooth = 0;
x = 562;
y = 186;
},
{
smooth = 0;
x = 662;
y = 80;
},
{
segmentType = curve;
smooth = 1;
x = 806;
y = 80;
},
{
smooth = 0;
x = 938;
y = 80;
},
{
smooth = 0;
x = 1028;
y = 170;
},
{
segmentType = curve;
smooth = 1;
x = 1028;
y = 314;
},
{
smooth = 0;
x = 1028;
y = 492;
},
{
smooth = 0;
x = 884;
y = 770;
},
{
segmentType = curve;
smooth = 1;
x = 660;
y = 770;
},
{
smooth = 0;
x = 564;
y = 770;
},
{
smooth = 0;
x = 474;
y = 736;
},
{
segmentType = curve;
smooth = 0;
x = 396;
y = 676;
}
);
}
);
lib = {
};
name = nine;
unicodes = (
);
width = 1428;
};
};
};
},
{
glyphname = seven;
layers = (
{
layerId = "A06561DA-A1C3-4D4F-A301-2F031DFC9FDA";
shapes = (
{
closed = 1;
nodes = (
(1118,1322,l),
(1074,1440,l),
(138,1440,l),
(92,1400,l),
(54,996,l),
(162,978,l),
(232,1214,o),
(288,1270,o),
(448,1270,cs),
(936,1270,l),
(878,1332,l),
(290,-16,l),
(332,-66,l),
(554,0,l)
);
}
);
width = 1160;
}
);
unicode = 55;
userData = {
com.typemytype.robofont.layerData = {
background = {
anchors = (
);
components = (
);
contours = (
);
lib = {
};
name = seven;
unicodes = (
);
width = 1160;
};
};
};
},
{
glyphname = eight;
layers = (
{
layerId = "A06561DA-A1C3-4D4F-A301-2F031DFC9FDA";
shapes = (
{
closed = 1;
nodes = (
(977.934,891.385,o),
(956,1063,o),
(910,1172,cs),
(851,1313,o),
(739,1360,o),
(643,1360,cs),
(518,1360,o),
(424,1291,o),
(424,1183,cs),
(424,1134,o),
(438,1090,o),
(490,1038,cs),
(550,978,o),
(646.36,918.531,o),
(749,859,cs),
(900.414,771.607,o),
(1041,714,o),
(1140,624,cs),
(1230,543,o),
(1274,434,o),
(1274,342,cs),
(1274,94,o),
(1008.195,-52,o),
(685,-52,cs),
(467.893,-52,o),
(224,10,o),
(149,209,cs),
(74,407,o),
(159.583,629.318,o),
(591,812,c),
(653,709,l),
(340.136,585.586,o),
(323,442,o),
(368,313,cs),
(424,152,o),
(622,96,o),
(766,96,cs),
(942,96,o),
(1065,166,o),
(1065,276,cs),
(1065,332,o),
(1031.606,378.945,o),
(965,439,cs),
(889.495,507.458,o),
(758,566,o),
(629,641,cs),
(392,778,o),
(224,892.376,o),
(224,1120,cs),
(224,1298,o),
(373,1492,o),
(698,1492,cs),
(893,1492,o),
(1107,1426,o),
(1165,1203,cs),
(1211,1027,o),
(1154,857,o),
(843,719,c),
(778,808,l)
);
}
);
width = 1404;
}
);
unicode = 56;
userData = {
com.typemytype.robofont.guides = (
{
angle = 90;
isGlobal = 0;
magnetic = 5;
x = 131;
y = 397;
},
{
angle = 90;
isGlobal = 0;
magnetic = 5;
x = 234;
y = 479;
},
{
angle = 90;
isGlobal = 0;
magnetic = 5;
x = 1280;
y = 449;
},
{
angle = 90;
isGlobal = 0;
magnetic = 5;
x = 1189;
y = 490;
}
);
com.typemytype.robofont.layerData = {
background = {
anchors = (
);
components = (
);
contours = (
{
points = (
{
segmentType = line;
smooth = 0;
x = 778;
y = 808;
},
{
smooth = 0;
x = 1018;
y = 916;
},
{
smooth = 0;
x = 980;
y = 1076;
},
{
segmentType = curve;
smooth = 1;
x = 916;
y = 1184;
},
{
smooth = 0;
x = 845;
y = 1306;
},
{
smooth = 0;
x = 742;
y = 1362;
},
{
segmentType = curve;
smooth = 1;
x = 642;
y = 1362;
},
{
smooth = 0;
x = 524;
y = 1362;
},
{
smooth = 0;
x = 434;
y = 1303;
},
{
segmentType = curve;
smooth = 1;
x = 434;
y = 1202;
},
{
smooth = 0;
x = 434;
y = 1144;
},
{
smooth = 0;
x = 468;
y = 1088;
},
{
segmentType = curve;
smooth = 1;
x = 514;
y = 1036;
},
{
smooth = 0;
x = 566;
y = 976;
},
{
smooth = 0;
x = 660;
y = 920;
},
{
segmentType = curve;
smooth = 1;
x = 756;
y = 864;
},
{
smooth = 0;
x = 892;
y = 786;
},
{
smooth = 0;
x = 1010;
y = 720;
},
{
segmentType = curve;
smooth = 1;
x = 1100;
y = 638;
},
{
smooth = 0;
x = 1194;
y = 552;
},
{
smooth = 0;
x = 1230;
y = 468;
},
{
segmentType = curve;
smooth = 1;
x = 1230;
y = 366;
},
{
smooth = 0;
x = 1230;
y = 106;
},
{
smooth = 0;
x = 959;
y = -52;
},
{
segmentType = curve;
smooth = 1;
x = 680;
y = -52;
},
{
smooth = 0;
x = 490;
y = -52;
},
{
smooth = 0;
x = 308;
y = 34;
},
{
segmentType = curve;
smooth = 1;
x = 208;
y = 206;
},
{
smooth = 0;
x = 92;
y = 408;
},
{
smooth = 0;
x = 190;
y = 642;
},
{
segmentType = curve;
smooth = 0;
x = 586;
y = 820;
},
{
segmentType = line;
smooth = 0;
x = 648;
y = 720;
},
{
smooth = 0;
x = 368;
y = 566;
},
{
smooth = 0;
x = 370;
y = 446;
},
{
segmentType = curve;
smooth = 1;
x = 434;
y = 316;
},
{
smooth = 0;
x = 509;
y = 168;
},
{
smooth = 0;
x = 646;
y = 94;
},
{
segmentType = curve;
smooth = 1;
x = 778;
y = 94;
},
{
smooth = 0;
x = 887;
y = 94;
},
{
smooth = 0;
x = 1014;
y = 168;
},
{
segmentType = curve;
smooth = 1;
x = 1014;
y = 284;
},
{
smooth = 0;
x = 1014;
y = 338;
},
{
smooth = 0;
x = 989;
y = 391;
},
{
segmentType = curve;
smooth = 1;
x = 928;
y = 442;
},
{
smooth = 0;
x = 856;
y = 502;
},
{
smooth = 0;
x = 744;
y = 568;
},
{
segmentType = curve;
smooth = 1;
x = 626;
y = 636;
},
{
smooth = 0;
x = 394;
y = 770;
},
{
smooth = 0;
x = 234;
y = 890;
},
{
segmentType = curve;
smooth = 1;
x = 234;
y = 1120;
},
{
smooth = 0;
x = 234;
y = 1312;
},
{
smooth = 0;
x = 380;
y = 1492;
},
{
segmentType = curve;
smooth = 1;
x = 706;
y = 1492;
},
{
smooth = 0;
x = 880;
y = 1492;
},
{
smooth = 0;
x = 1065;
y = 1428;
},
{
segmentType = curve;
smooth = 1;
x = 1148;
y = 1278;
},
{
smooth = 0;
x = 1230;
y = 1132;
},
{
smooth = 0;
x = 1258;
y = 886;
},
{
segmentType = curve;
smooth = 0;
x = 856;
y = 704;
}
);
}
);
lib = {
};
name = eight;
unicodes = (
);
width = 1404;
};
};
};
},
{
glyphname = nine;
layers = (
{
layerId = "A06561DA-A1C3-4D4F-A301-2F031DFC9FDA";
shapes = (
{
closed = 1;
nodes = (
(922,576,o),
(760,516,o),
(624,516,cs),
(432,516,o),
(258,618,o),
(178,784,cs),
(20,1112,o),
(246,1488,o),
(642,1488,cs),
(922,1488,o),
(1144,1326,o),
(1230,1050,cs),
(1324,750,o),
(1256,364,o),
(922,122,cs),
(750,-2,o),
(512,-50,o),
(304,-58,c),
(194,124,l),
(234,174,l),
(426,102,o),
(668,132,o),
(780,204,cs),
(1044,372,o),
(1046,802,o),
(912,1088,cs),
(834,1254,o),
(734,1360,o),
(590,1360,cs),
(458,1360,o),
(368,1270,o),
(368,1126,cs),
(368,948,o),
(512,670,o),
(736,670,cs),
(832,670,o),
(922,704,o),
(1000,764,c),
(1056,688,l)
);
}
);
width = 1428;
}
);
unicode = 57;
userData = {
com.typemytype.robofont.layerData = {
background = {
anchors = (
);
components = (
);
contours = (
{
points = (
{
segmentType = line;
smooth = 0;
x = 1082;
y = 700;
},
{
smooth = 0;
x = 936;
y = 544;
},
{
smooth = 0;
x = 768;
y = 522;
},
{
segmentType = curve;
smooth = 1;
x = 628;
y = 528;
},
{
smooth = 0;
x = 428;
y = 536;
},
{
smooth = 0;
x = 278;
y = 638;
},
{
segmentType = curve;
smooth = 1;
x = 200;
y = 800;
},
{
smooth = 0;
x = 86;
y = 1036;
},
{
smooth = 0;
x = 166;
y = 1312;
},
{
segmentType = curve;
smooth = 1;
x = 390;
y = 1434;
},
{
smooth = 0;
x = 540;
y = 1516;
},
{
smooth = 0;
x = 762;
y = 1514;
},
{
segmentType = curve;
smooth = 1;
x = 920;
y = 1420;
},
{
smooth = 0;
x = 1044;
y = 1348;
},
{
smooth = 0;
x = 1167;
y = 1228;
},
{
segmentType = curve;
smooth = 1;
x = 1228;
y = 1030;
},
{
smooth = 0;
x = 1326;
y = 714;
},
{
smooth = 0;
x = 1226;
y = 320;
},
{
segmentType = curve;
smooth = 1;
x = 952;
y = 122;
},
{
smooth = 0;
x = 781;
y = -2;
},
{
smooth = 0;
x = 542;
y = -50;
},
{
segmentType = curve;
smooth = 0;
x = 334;
y = -58;
},
{
segmentType = line;
smooth = 0;
x = 248;
y = 98;
},
{
segmentType = line;
smooth = 0;
x = 278;
y = 140;
},
{
smooth = 0;
x = 492;
y = 112;
},
{
smooth = 0;
x = 697;
y = 132;
},
{
segmentType = curve;
smooth = 1;
x = 810;
y = 204;
},
{
smooth = 0;
x = 1074;
y = 372;
},
{
smooth = 0;
x = 1044;
y = 782;
},
{
segmentType = curve;
smooth = 1;
x = 910;
y = 1068;
},
{
smooth = 0;
x = 866;
y = 1162;
},
{
smooth = 0;
x = 818;
y = 1230;
},
{
segmentType = curve;
smooth = 1;
x = 766;
y = 1280;
},
{
smooth = 0;
x = 676;
y = 1366;
},
{
smooth = 0;
x = 546;
y = 1378;
},
{
segmentType = curve;
smooth = 1;
x = 472;
y = 1334;
},
{
smooth = 0;
x = 374;
y = 1276;
},
{
smooth = 0;
x = 372;
y = 1143;
},
{
segmentType = curve;
smooth = 1;
x = 422;
y = 992;
},
{
smooth = 0;
x = 464;
y = 872;
},
{
smooth = 0;
x = 534;
y = 724;
},
{
segmentType = curve;
smooth = 1;
x = 690;
y = 682;
},
{
smooth = 0;
x = 778;
y = 660;
},
{
smooth = 0;
x = 906;
y = 680;
},
{
segmentType = curve;
smooth = 0;
x = 1030;
y = 764;
}
);
}
);
lib = {
};
name = nine;
unicodes = (
);
width = 1428;
};
};
};
},
{
glyphname = two.001;
layers = (
{
layerId = "A06561DA-A1C3-4D4F-A301-2F031DFC9FDA";
shapes = (
{
closed = 1;
nodes = (
(474,942,o),
(418,1032,o),
(418,1132,cs),
(418,1256,o),
(524,1346,o),
(640,1346,cs),
(770,1346,o),
(870,1266,o),
(930,1122,cs),
(954,1064,o),
(966,1008,o),
(966,934,cs),
(966,824,o),
(928,712,o),
(806,582,cs),
(658,426,o),
(428,288,o),
(194,162,c),
(218,0,l),
(1172,0,l),
(1284,316,l),
(1232,338,l),
(988,170,o),
(804,172,o),
(284,158,c),
(294,74,l),
(522,192,o),
(792,364,o),
(960,522,cs),
(1108,660,o),
(1224,824,o),
(1224,1018,cs),
(1224,1080,o),
(1212,1142,o),
(1184,1210,cs),
(1104,1396,o),
(908,1488,o),
(718,1488,cs),
(410,1488,o),
(204,1286,o),
(204,1028,cs),
(204,912,o),
(252,796,o),
(336,702,c),
(568,788,l),
(578,852,l)
);
}
);
width = 1420;
}
);
userData = {
com.typemytype.robofont.layerData = {
background = {
anchors = (
);
components = (
);
contours = (
{
points = (
{
segmentType = line;
smooth = 0;
x = 578;
y = 852;
},
{
smooth = 0;
x = 474;
y = 922;
},
{
smooth = 0;
x = 410;
y = 1034;
},
{
segmentType = curve;
smooth = 1;
x = 410;
y = 1134;
},
{
smooth = 0;
x = 410;
y = 1202;
},
{
smooth = 0;
x = 438;
y = 1262;
},
{
segmentType = curve;
smooth = 1;
x = 502;
y = 1302;
},
{
smooth = 0;
x = 556;
y = 1336;
},
{
smooth = 0;
x = 608;
y = 1352;
},
{
segmentType = curve;
smooth = 1;
x = 658;
y = 1352;
},
{
smooth = 0;
x = 772;
y = 1352;
},
{
smooth = 0;
x = 870;
y = 1266;
},
{
segmentType = curve;
smooth = 1;
x = 930;
y = 1122;
},
{
smooth = 0;
x = 954;
y = 1064;
},
{
smooth = 0;
x = 966;
y = 1008;
},
{
segmentType = curve;
smooth = 1;
x = 966;
y = 954;
},
{
smooth = 0;
x = 966;
y = 836;
},
{
smooth = 0;
x = 908;
y = 724;
},
{
segmentType = curve;
smooth = 1;
x = 788;
y = 590;
},
{
smooth = 0;
x = 656;
y = 440;
},
{
smooth = 0;
x = 446;
y = 294;
},
{
segmentType = curve;
smooth = 0;
x = 204;
y = 144;
},
{
segmentType = line;
smooth = 0;
x = 228;
y = 0;
},
{
segmentType = line;
smooth = 0;
x = 1168;
y = 0;
},
{
segmentType = line;
smooth = 0;
x = 1280;
y = 316;
},
{
segmentType = line;
smooth = 0;
x = 1228;
y = 338;
},
{
smooth = 0;
x = 984;
y = 170;
},
{
smooth = 0;
x = 814;
y = 172;
},
{
segmentType = curve;
smooth = 0;
x = 294;
y = 158;
},
{
segmentType = line;
smooth = 0;
x = 314;
y = 66;
},
{
smooth = 0;
x = 588;
y = 226;
},
{
smooth = 0;
x = 794;
y = 372;
},
{
segmentType = curve;
smooth = 1;
x = 960;
y = 532;
},
{
smooth = 0;
x = 1121;
y = 689;
},
{
smooth = 0;
x = 1224;
y = 824;
},
{
segmentType = curve;
smooth = 1;
x = 1224;
y = 1018;
},
{
smooth = 0;
x = 1224;
y = 1080;
},
{
smooth = 0;
x = 1212;
y = 1142;
},
{
segmentType = curve;
smooth = 1;
x = 1184;
y = 1210;
},
{
smooth = 0;
x = 1104;
y = 1396;
},
{
smooth = 0;
x = 908;
y = 1488;
},
{
segmentType = curve;
smooth = 1;
x = 718;
y = 1488;
},
{
smooth = 0;
x = 616;
y = 1488;
},
{
smooth = 0;
x = 516;
y = 1462;
},
{
segmentType = curve;
smooth = 1;
x = 436;
y = 1412;
},
{
smooth = 0;
x = 274;
y = 1312;
},
{
smooth = 0;
x = 204;
y = 1170;
},
{
segmentType = curve;
smooth = 1;
x = 204;
y = 1028;
},
{
smooth = 0;
x = 204;
y = 912;
},
{
smooth = 0;
x = 252;
y = 796;
},
{
segmentType = curve;
smooth = 0;
x = 336;
y = 702;
}
);
}
);
lib = {
};
name = two;
unicodes = (
);
width = 1420;
};
};
};
},
{
glyphname = three.001;
layers = (
{
layerId = "A06561DA-A1C3-4D4F-A301-2F031DFC9FDA";
shapes = (
{
closed = 1;
nodes = (
(252,1400,l),
(214,996,l),
(322,978,l),
(392,1214,o),
(448,1270,o),
(608,1270,cs),
(1016,1270,l),
(972,1332,l),
(546,760,l),
(584,684,l),
(739,694,o),
(955,670,o),
(1000,483,cs),
(1023,388,o),
(992,288,o),
(882,209,cs),
(749,114,o),
(534,82,o),
(236,170,c),
(191,124,l),
(284,-56,l),
(572,-44,o),
(848,21,o),
(1031,133,cs),
(1180,225,o),
(1312,379,o),
(1257,588,cs),
(1187,854,o),
(852,862,o),
(622,778,c),
(752,778,l),
(1198,1322,l),
(1178,1440,l),
(298,1440,l)
);
}
);
width = 1420.91182;
}
);
userData = {
com.typemytype.robofont.layerData = {
background = {
anchors = (
);
components = (
);
contours = (
{
points = (
{
segmentType = line;
smooth = 0;
x = 298;
y = 1440;
},
{
segmentType = line;
smooth = 0;
x = 252;
y = 1400;
},
{
segmentType = line;
smooth = 0;
x = 214;
y = 996;
},
{
segmentType = line;
smooth = 0;
x = 322;
y = 978;
},
{
smooth = 0;
x = 392;
y = 1214;
},
{
smooth = 0;
x = 448;
y = 1270;
},
{
segmentType = curve;
smooth = 1;
x = 608;
y = 1270;
},
{
segmentType = line;
smooth = 0;
x = 1016;
y = 1270;
},
{
segmentType = line;
smooth = 0;
x = 972;
y = 1332;
},
{
segmentType = line;
smooth = 0;
x = 546;
y = 760;
},
{
segmentType = line;
smooth = 0;
x = 584;
y = 684;
},
{
smooth = 0;
x = 739;
y = 694;
},
{
smooth = 0;
x = 955;
y = 670;
},
{
segmentType = curve;
smooth = 1;
x = 1000;
y = 483;
},
{
smooth = 0;
x = 1023;
y = 388;
},
{
smooth = 0;
x = 992;
y = 288;
},
{
segmentType = curve;
smooth = 1;
x = 882;
y = 209;
},
{
smooth = 0;
x = 749;
y = 114;
},
{
smooth = 0;
x = 534;
y = 82;
},
{
segmentType = curve;
smooth = 0;
x = 236;
y = 170;
},
{
segmentType = line;
smooth = 0;
x = 191;
y = 124;
},
{
segmentType = line;
smooth = 0;
x = 284;
y = -56;
},
{
smooth = 0;
x = 572;
y = -44;
},
{
smooth = 0;
x = 848;
y = 21;
},
{
segmentType = curve;
smooth = 1;
x = 1031;
y = 133;
},
{
smooth = 0;
x = 1180;
y = 225;
},
{
smooth = 0;
x = 1312;
y = 379;
},
{
segmentType = curve;
smooth = 1;
x = 1257;
y = 588;
},
{
smooth = 0;
x = 1187;
y = 854;
},
{
smooth = 0;
x = 852;
y = 862;
},
{
segmentType = curve;
smooth = 0;
x = 622;
y = 778;
},
{
segmentType = line;
smooth = 0;
x = 752;
y = 778;
},
{
segmentType = line;
smooth = 0;
x = 1198;
y = 1322;
},
{
segmentType = line;
smooth = 0;
x = 1178;
y = 1440;
}
);
},
{
points = (
{
segmentType = line;
smooth = 0;
x = 1518;
y = 1440;
},
{
segmentType = line;
smooth = 0;
x = 1472;
y = 1400;
},
{
segmentType = line;
smooth = 0;
x = 1434;
y = 996;
},
{
segmentType = line;
smooth = 0;
x = 1542;
y = 978;
},
{
smooth = 0;
x = 1612;
y = 1214;
},
{
smooth = 0;
x = 1668;
y = 1270;
},
{
segmentType = curve;
smooth = 1;
x = 1828;
y = 1270;
},
{
segmentType = line;
smooth = 0;
x = 2216;
y = 1270;
},
{
segmentType = line;
smooth = 0;
x = 2172;
y = 1332;
},
{
segmentType = line;
smooth = 0;
x = 1746;
y = 760;
},
{
segmentType = line;
smooth = 0;
x = 1784;
y = 684;
},
{
smooth = 0;
x = 1932;
y = 694;
},
{
smooth = 0;
x = 2118;
y = 658;
},
{
segmentType = curve;
smooth = 1;
x = 2180;
y = 426;
},
{
smooth = 0;
x = 2236;
y = 220;
},
{
smooth = 0;
x = 2170;
y = 88;
},
{
segmentType = curve;
smooth = 1;
x = 1912;
y = 88;
},
{
smooth = 0;
x = 1690;
y = 88;
},
{
smooth = 0;
x = 1624;
y = 162;
},
{
segmentType = curve;
smooth = 0;
x = 1530;
y = 490;
},
{
segmentType = line;
smooth = 0;
x = 1420;
y = 478;
},
{
segmentType = line;
smooth = 0;
x = 1454;
y = 104;
},
{
segmentType = line;
smooth = 0;
x = 1482;
y = 66;
},
{
smooth = 0;
x = 1572;
y = 14;
},
{
smooth = 0;
x = 1724;
y = -44;
},
{
segmentType = curve;
smooth = 1;
x = 1922;
y = -44;
},
{
smooth = 0;
x = 1996;
y = -44;
},
{
smooth = 0;
x = 2106;
y = -32;
},
{
segmentType = curve;
smooth = 1;
x = 2204;
y = 22;
},
{
smooth = 0;
x = 2414;
y = 138;
},
{
smooth = 0;
x = 2502;
y = 362;
},
{
segmentType = curve;
smooth = 1;
x = 2422;
y = 578;
},
{
smooth = 0;
x = 2328;
y = 832;
},
{
smooth = 0;
x = 2052;
y = 862;
},
{
segmentType = curve;
smooth = 0;
x = 1822;
y = 778;
},
{
segmentType = line;
smooth = 0;
x = 1952;
y = 778;
},
{
segmentType = line;
smooth = 0;
x = 2398;
y = 1322;
},
{
segmentType = line;
smooth = 0;
x = 2378;
y = 1440;
}
);
}
);
lib = {
};
name = three;
unicodes = (
);
width = 1420.91182;
};
};
};
},
{
glyphname = two.002;
layers = (
{
layerId = "A06561DA-A1C3-4D4F-A301-2F031DFC9FDA";
shapes = (
{
closed = 1;
nodes = (
(405,1231,o),
(484,1358,o),
(657,1358,cs),
(777,1358,o),
(888,1276,o),
(930,1122,cs),
(977,950,o),
(950,828,o),
(643,693,cs),
(346,562,o),
(102,409,o),
(225,-19,c),
(328,-9,l),
(335.153,58.237,o),
(358,133,o),
(492,133,cs),
(637,133,o),
(768.715,-32,o),
(944,-32,cs),
(1135,-32,o),
(1241,82,o),
(1287,391,c),
(1181,407,l),
(1139.624,278.562,o),
(1052,228,o),
(958,228,cs),
(803,228,o),
(754,340,o),
(602,340,cs),
(483,340,o),
(331.657,274.712,o),
(283,107,c),
(379,148,l),
(312,362,o),
(434.463,424.4,o),
(721,554,cs),
(1032,695,o),
(1296,890,o),
(1184,1210,cs),
(1117,1400,o),
(924,1488,o),
(711,1488,cs),
(520,1488,o),
(337,1430,o),
(259,1393,c),
(221,1025,l),
(335,1006,l)
);
}
);
width = 1420;
}
);
userData = {
com.typemytype.robofont.layerData = {
background = {
anchors = (
);
components = (
);
contours = (
{
points = (
{
segmentType = line;
smooth = 0;
x = -1069;
y = 1068;
},
{
smooth = 0;
x = -996;
y = 1290;
},
{
smooth = 0;
x = -871;
y = 1351;
},
{
segmentType = curve;
smooth = 1;
x = -740;
y = 1351;
},
{
smooth = 0;
x = -651;
y = 1351;
},
{
smooth = 0;
x = -549;
y = 1303;
},
{
segmentType = curve;
smooth = 1;
x = -531;
y = 1179;
},
{
smooth = 0;
x = -510;
y = 1038;
},
{
smooth = 0;
x = -537;
y = 890;
},
{
segmentType = curve;
smooth = 0;
x = -923;
y = 767;
},
{
segmentType = line;
smooth = 0;
x = -887;
y = 647;
},
{
smooth = 0;
x = -635;
y = 724;
},
{
smooth = 0;
x = -464;
y = 639;
},
{
segmentType = curve;
smooth = 1;
x = -429;
y = 480;
},
{
smooth = 0;
x = -403;
y = 362;
},
{
smooth = 0;
x = -430;
y = 279;
},
{
segmentType = curve;
smooth = 1;
x = -572;
y = 197;
},
{
smooth = 0;
x = -714;
y = 115;
},
{
smooth = 0;
x = -907;
y = 95;
},
{
segmentType = curve;
smooth = 0;
x = -1185;
y = 170;
},
{
segmentType = line;
smooth = 0;
x = -1230;
y = 124;
},
{
segmentType = line;
smooth = 0;
x = -1137;
y = -56;
},
{
smooth = 0;
x = -849;
y = -44;
},
{
smooth = 0;
x = -573;
y = 21;
},
{
segmentType = curve;
smooth = 1;
x = -390;
y = 133;
},
{
smooth = 0;
x = -240;
y = 226;
},
{
smooth = 0;
x = -105;
y = 372;
},
{
segmentType = curve;
smooth = 1;
x = -159;
y = 577;
},
{
smooth = 0;
x = -220;
y = 809;
},
{
smooth = 0;
x = -472;
y = 919;
},
{
segmentType = curve;
smooth = 0;
x = -849;
y = 728;
},
{
segmentType = line;
smooth = 0;
x = -839;
y = 698;
},
{
smooth = 0;
x = -259;
y = 863;
},
{
smooth = 0;
x = -251;
y = 1094;
},
{
segmentType = curve;
smooth = 1;
x = -279;
y = 1238;
},
{
smooth = 0;
x = -312;
y = 1406;
},
{
smooth = 0;
x = -469;
y = 1488;
},
{
segmentType = curve;
smooth = 1;
x = -675;
y = 1488;
},
{
smooth = 0;
x = -831;
y = 1488;
},
{
smooth = 0;
x = -1014;
y = 1440;
},
{
segmentType = curve;
smooth = 0;
x = -1125;
y = 1404;
},
{
segmentType = line;
smooth = 0;
x = -1179;
y = 1103;
}
);
},
{
points = (
{
segmentType = line;
smooth = 0;
x = 578;
y = 852;
},
{
smooth = 0;
x = 474;
y = 942;
},
{
smooth = 0;
x = 418;
y = 1032;
},
{
segmentType = curve;
smooth = 1;
x = 418;
y = 1132;
},
{
smooth = 0;
x = 418;
y = 1256;
},
{
smooth = 0;
x = 524;
y = 1346;
},
{
segmentType = curve;
smooth = 1;
x = 640;
y = 1346;
},
{
smooth = 0;
x = 770;
y = 1346;
},
{
smooth = 0;
x = 870;
y = 1266;
},
{
segmentType = curve;
smooth = 1;
x = 930;
y = 1122;
},
{
smooth = 0;
x = 954;
y = 1064;
},
{
smooth = 0;
x = 966;
y = 1008;
},
{
segmentType = curve;
smooth = 1;
x = 966;
y = 934;
},
{
smooth = 0;
x = 966;
y = 824;
},
{
smooth = 0;
x = 928;
y = 712;
},
{
segmentType = curve;
smooth = 1;
x = 806;
y = 582;
},
{
smooth = 0;
x = 658;
y = 426;
},
{
smooth = 0;
x = 428;
y = 288;
},
{
segmentType = curve;
smooth = 0;
x = 194;
y = 162;
},
{
segmentType = line;
smooth = 0;
x = 218;
y = 0;
},
{
segmentType = line;
smooth = 0;
x = 1172;
y = 0;
},
{
segmentType = line;
smooth = 0;
x = 1284;
y = 316;
},
{
segmentType = line;
smooth = 0;
x = 1232;
y = 338;
},
{
smooth = 0;
x = 988;
y = 170;
},
{
smooth = 0;
x = 804;
y = 172;
},
{
segmentType = curve;
smooth = 0;
x = 284;
y = 158;
},
{
segmentType = line;
smooth = 0;
x = 294;
y = 74;
},
{
smooth = 0;
x = 522;
y = 192;
},
{
smooth = 0;
x = 792;
y = 364;
},
{
segmentType = curve;
smooth = 1;
x = 960;
y = 522;
},
{
smooth = 0;
x = 1108;
y = 660;
},
{
smooth = 0;
x = 1224;
y = 824;
},
{
segmentType = curve;
smooth = 1;
x = 1224;
y = 1018;
},
{
smooth = 0;
x = 1224;
y = 1080;
},
{
smooth = 0;
x = 1212;
y = 1142;
},
{
segmentType = curve;
smooth = 1;
x = 1184;
y = 1210;
},
{
smooth = 0;
x = 1104;
y = 1396;
},
{
smooth = 0;
x = 908;
y = 1488;
},
{
segmentType = curve;
smooth = 1;
x = 718;
y = 1488;
},
{
smooth = 0;
x = 410;
y = 1488;
},
{
smooth = 0;
x = 204;
y = 1286;
},
{
segmentType = curve;
smooth = 1;
x = 204;
y = 1028;
},
{
smooth = 0;
x = 204;
y = 912;
},
{
smooth = 0;
x = 252;
y = 796;
},
{
segmentType = curve;
smooth = 0;
x = 336;
y = 702;
},
{
segmentType = line;
smooth = 0;
x = 568;
y = 788;
}
);
}
);
lib = {
};
name = two;
unicodes = (
);
width = 1420;
};
};
};
},
{
glyphname = three.002;
layers = (
{
layerId = "A06561DA-A1C3-4D4F-A301-2F031DFC9FDA";
shapes = (
{
closed = 1;
nodes = (
(272,1400,l),
(234,996,l),
(342,978,l),
(412,1214,o),
(468,1270,o),
(628,1270,cs),
(1016,1270,l),
(972,1332,l),
(546,760,l),
(584,684,l),
(732,694,o),
(918,658,o),
(980,426,cs),
(1036,220,o),
(970,88,o),
(712,88,cs),
(490,88,o),
(424,162,o),
(330,490,c),
(220,478,l),
(254,104,l),
(282,66,l),
(372,14,o),
(524,-44,o),
(722,-44,cs),
(796,-44,o),
(906,-32,o),
(1004,22,cs),
(1214,138,o),
(1302,362,o),
(1222,578,cs),
(1128,832,o),
(852,862,o),
(622,778,c),
(752,778,l),
(1198,1322,l),
(1178,1440,l),
(318,1440,l)
);
}
);
width = 1420.91182;
}
);
userData = {
com.typemytype.robofont.layerData = {
background = {
anchors = (
);
components = (
);
contours = (
);
lib = {
};
name = three;
unicodes = (
);
width = 1420.91182;
};
};
};
},
{
glyphname = period;
layers = (
{
layerId = "A06561DA-A1C3-4D4F-A301-2F031DFC9FDA";
shapes = (
{
closed = 1;
nodes = (
(575,-40,o),
(647,28,o),
(647,122,cs),
(647,214,o),
(575,288,o),
(481,288,cs),
(383,288,o),
(313,214,o),
(313,122,cs),
(313,30,o),
(385,-40,o),
(481,-40,cs)
);
}
);
width = 960;
}
);
unicode = 46;
userData = {
com.typemytype.robofont.layerData = {
background = {
anchors = (
);
components = (
);
contours = (
);
lib = {
};
name = period;
unicodes = (
);
width = 960;
};
};
};
},
{
glyphname = hyphen;
layers = (
{
layerId = "A06561DA-A1C3-4D4F-A301-2F031DFC9FDA";
shapes = (
{
closed = 1;
nodes = (
(472,640,l),
(918,640,l),
(922,798,l),
(904,810,l),
(626,800,l),
(202,800,l),
(198,636,l),
(220,628,l)
);
}
);
width = 1120;
}
);
unicode = 45;
userData = {
com.typemytype.robofont.layerData = {
background = {
anchors = (
);
components = (
);
contours = (
{
points = (
{
segmentType = line;
smooth = 0;
x = 614;
y = 802;
},
{
segmentType = line;
smooth = 0;
x = 614;
y = 674;
},
{
segmentType = line;
smooth = 0;
x = 1710;
y = 674;
},
{
segmentType = line;
smooth = 0;
x = 1710;
y = 802;
}
);
},
{
points = (
{
segmentType = curve;
smooth = 0;
x = 1588;
y = 1102;
},
{
segmentType = line;
smooth = 1;
x = 1588;
y = 342;
},
{
smooth = 0;
x = 1588;
y = 152;
},
{
smooth = 0;
x = 1588;
y = 112;
},
{
segmentType = curve;
smooth = 0;
x = 1358;
y = 96;
},
{
segmentType = line;
smooth = 0;
x = 1354;
y = 0;
},
{
segmentType = line;
smooth = 0;
x = 2078;
y = 0;
},
{
smooth = 0;
x = 2078;
y = 0;
},
{
smooth = 0;
x = 2074;
y = 96;
},
{
segmentType = curve;
smooth = 0;
x = 2074;
y = 96;
},
{
smooth = 0;
x = 1842;
y = 110;
},
{
smooth = 0;
x = 1844;
y = 154;
},
{
segmentType = curve;
smooth = 1;
x = 1844;
y = 338;
},
{
segmentType = line;
smooth = 0;
x = 1844;
y = 1098;
},
{
smooth = 0;
x = 1844;
y = 1288;
},
{
smooth = 0;
x = 1844;
y = 1330;
},
{
segmentType = curve;
smooth = 0;
x = 2074;
y = 1344;
},
{
segmentType = line;
smooth = 0;
x = 2078;
y = 1440;
},
{
segmentType = line;
smooth = 0;
x = 1354;
y = 1440;
},
{
smooth = 0;
x = 1354;
y = 1440;
},
{
smooth = 0;
x = 1358;
y = 1344;
},
{
segmentType = curve;
smooth = 0;
x = 1358;
y = 1344;
},
{
smooth = 0;
x = 1590;
y = 1330;
},
{
smooth = 0;
x = 1588;
y = 1286;
}
);
},
{
points = (
{
segmentType = curve;
smooth = 0;
x = 454;
y = 1102;
},
{
segmentType = line;
smooth = 1;
x = 454;
y = 342;
},
{
smooth = 0;
x = 454;
y = 152;
},
{
smooth = 0;
x = 454;
y = 112;
},
{
segmentType = curve;
smooth = 0;
x = 224;
y = 96;
},
{
segmentType = line;
smooth = 0;
x = 220;
y = 0;
},
{
segmentType = line;
smooth = 0;
x = 944;
y = 0;
},
{
smooth = 0;
x = 944;
y = 0;
},
{
smooth = 0;
x = 940;
y = 96;
},
{
segmentType = curve;
smooth = 0;
x = 940;
y = 96;
},
{
smooth = 0;
x = 708;
y = 110;
},
{
smooth = 0;
x = 710;
y = 154;
},
{
segmentType = curve;
smooth = 1;
x = 710;
y = 338;
},
{
segmentType = line;
smooth = 0;
x = 710;
y = 1098;
},
{
smooth = 0;
x = 710;
y = 1288;
},
{
smooth = 0;
x = 710;
y = 1330;
},
{
segmentType = curve;
smooth = 0;
x = 940;
y = 1344;
},
{
segmentType = line;
smooth = 0;
x = 944;
y = 1440;
},
{
segmentType = line;
smooth = 0;
x = 220;
y = 1440;
},
{
smooth = 0;
x = 220;
y = 1440;
},
{
smooth = 0;
x = 224;
y = 1344;
},
{
segmentType = curve;
smooth = 0;
x = 224;
y = 1344;
},
{
smooth = 0;
x = 456;
y = 1330;
},
{
smooth = 0;
x = 454;
y = 1286;
}
);
}
);
lib = {
};
name = hyphen;
unicodes = (
);
width = 1120;
};
};
};
},
{
glyphname = endash;
layers = (
{
layerId = "A06561DA-A1C3-4D4F-A301-2F031DFC9FDA";
shapes = (
{
closed = 1;
nodes = (
(472,640,l),
(1798,640,l),
(1802,798,l),
(1784,810,l),
(1498,800,l),
(202,800,l),
(198,642,l),
(220,628,l)
);
}
);
width = 2000;
}
);
unicode = 8211;
userData = {
com.typemytype.robofont.guides = (
{
angle = 0;
isGlobal = 0;
magnetic = 5;
x = 101;
y = 400;
},
{
angle = 0;
isGlobal = 0;
magnetic = 5;
x = 250;
y = 320;
}
);
com.typemytype.robofont.layerData = {
background = {
anchors = (
);
components = (
);
contours = (
{
points = (
{
segmentType = line;
smooth = 0;
x = 614;
y = 802;
},
{
segmentType = line;
smooth = 0;
x = 614;
y = 674;
},
{
segmentType = line;
smooth = 0;
x = 1710;
y = 674;
},
{
segmentType = line;
smooth = 0;
x = 1710;
y = 802;
}
);
},
{
points = (
{
segmentType = curve;
smooth = 0;
x = 1588;
y = 1102;
},
{
segmentType = line;
smooth = 1;
x = 1588;
y = 342;
},
{
smooth = 0;
x = 1588;
y = 152;
},
{
smooth = 0;
x = 1588;
y = 112;
},
{
segmentType = curve;
smooth = 0;
x = 1358;
y = 96;
},
{
segmentType = line;
smooth = 0;
x = 1354;
y = 0;
},
{
segmentType = line;
smooth = 0;
x = 2078;
y = 0;
},
{
smooth = 0;
x = 2078;
y = 0;
},
{
smooth = 0;
x = 2074;
y = 96;
},
{
segmentType = curve;
smooth = 0;
x = 2074;
y = 96;
},
{
smooth = 0;
x = 1842;
y = 110;
},
{
smooth = 0;
x = 1844;
y = 154;
},
{
segmentType = curve;
smooth = 1;
x = 1844;
y = 338;
},
{
segmentType = line;
smooth = 0;
x = 1844;
y = 1098;
},
{
smooth = 0;
x = 1844;
y = 1288;
},
{
smooth = 0;
x = 1844;
y = 1330;
},
{
segmentType = curve;
smooth = 0;
x = 2074;
y = 1344;
},
{
segmentType = line;
smooth = 0;
x = 2078;
y = 1440;
},
{
segmentType = line;
smooth = 0;
x = 1354;
y = 1440;
},
{
smooth = 0;
x = 1354;
y = 1440;
},
{
smooth = 0;
x = 1358;
y = 1344;
},
{
segmentType = curve;
smooth = 0;
x = 1358;
y = 1344;
},
{
smooth = 0;
x = 1590;
y = 1330;
},
{
smooth = 0;
x = 1588;
y = 1286;
}
);
},
{
points = (
{
segmentType = curve;
smooth = 0;
x = 454;
y = 1102;
},
{
segmentType = line;
smooth = 1;
x = 454;
y = 342;
},
{
smooth = 0;
x = 454;
y = 152;
},
{
smooth = 0;
x = 454;
y = 112;
},
{
segmentType = curve;
smooth = 0;
x = 224;
y = 96;
},
{
segmentType = line;
smooth = 0;
x = 220;
y = 0;
},
{
segmentType = line;
smooth = 0;
x = 944;
y = 0;
},
{
smooth = 0;
x = 944;
y = 0;
},
{
smooth = 0;
x = 940;
y = 96;
},
{
segmentType = curve;
smooth = 0;
x = 940;
y = 96;
},
{
smooth = 0;
x = 708;
y = 110;
},
{
smooth = 0;
x = 710;
y = 154;
},
{
segmentType = curve;
smooth = 1;
x = 710;
y = 338;
},
{
segmentType = line;
smooth = 0;
x = 710;
y = 1098;
},
{
smooth = 0;
x = 710;
y = 1288;
},
{
smooth = 0;
x = 710;
y = 1330;
},
{
segmentType = curve;
smooth = 0;
x = 940;
y = 1344;
},
{
segmentType = line;
smooth = 0;
x = 944;
y = 1440;
},
{
segmentType = line;
smooth = 0;
x = 220;
y = 1440;
},
{
smooth = 0;
x = 220;
y = 1440;
},
{
smooth = 0;
x = 224;
y = 1344;
},
{
segmentType = curve;
smooth = 0;
x = 224;
y = 1344;
},
{
smooth = 0;
x = 456;
y = 1330;
},
{
smooth = 0;
x = 454;
y = 1286;
}
);
}
);
lib = {
};
name = hyphen;
unicodes = (
);
width = 2000;
};
};
};
},
{
glyphname = emdash;
layers = (
{
layerId = "A06561DA-A1C3-4D4F-A301-2F031DFC9FDA";
shapes = (
{
closed = 1;
nodes = (
(472,640,l),
(1798,640,l),
(1802,798,l),
(1784,810,l),
(1498,800,l),
(202,800,l),
(198,642,l),
(220,628,l)
);
}
);
width = 2000;
}
);
unicode = 8212;
userData = {
com.typemytype.robofont.guides = (
{
angle = 0;
isGlobal = 0;
magnetic = 5;
x = 101;
y = 400;
},
{
angle = 0;
isGlobal = 0;
magnetic = 5;
x = 250;
y = 320;
}
);
com.typemytype.robofont.layerData = {
background = {
anchors = (
);
components = (
);
contours = (
{
points = (
{
segmentType = line;
smooth = 0;
x = 614;
y = 802;
},
{
segmentType = line;
smooth = 0;
x = 614;
y = 674;
},
{
segmentType = line;
smooth = 0;
x = 1710;
y = 674;
},
{
segmentType = line;
smooth = 0;
x = 1710;
y = 802;
}
);
},
{
points = (
{
segmentType = curve;
smooth = 0;
x = 1588;
y = 1102;
},
{
segmentType = line;
smooth = 1;
x = 1588;
y = 342;
},
{
smooth = 0;
x = 1588;
y = 152;
},
{
smooth = 0;
x = 1588;
y = 112;
},
{
segmentType = curve;
smooth = 0;
x = 1358;
y = 96;
},
{
segmentType = line;
smooth = 0;
x = 1354;
y = 0;
},
{
segmentType = line;
smooth = 0;
x = 2078;
y = 0;
},
{
smooth = 0;
x = 2078;
y = 0;
},
{
smooth = 0;
x = 2074;
y = 96;
},
{
segmentType = curve;
smooth = 0;
x = 2074;
y = 96;
},
{
smooth = 0;
x = 1842;
y = 110;
},
{
smooth = 0;
x = 1844;
y = 154;
},
{
segmentType = curve;
smooth = 1;
x = 1844;
y = 338;
},
{
segmentType = line;
smooth = 0;
x = 1844;
y = 1098;
},
{
smooth = 0;
x = 1844;
y = 1288;
},
{
smooth = 0;
x = 1844;
y = 1330;
},
{
segmentType = curve;
smooth = 0;
x = 2074;
y = 1344;
},
{
segmentType = line;
smooth = 0;
x = 2078;
y = 1440;
},
{
segmentType = line;
smooth = 0;
x = 1354;
y = 1440;
},
{
smooth = 0;
x = 1354;
y = 1440;
},
{
smooth = 0;
x = 1358;
y = 1344;
},
{
segmentType = curve;
smooth = 0;
x = 1358;
y = 1344;
},
{
smooth = 0;
x = 1590;
y = 1330;
},
{
smooth = 0;
x = 1588;
y = 1286;
}
);
},
{
points = (
{
segmentType = curve;
smooth = 0;
x = 454;
y = 1102;
},
{
segmentType = line;
smooth = 1;
x = 454;
y = 342;
},
{
smooth = 0;
x = 454;
y = 152;
},
{
smooth = 0;
x = 454;
y = 112;
},
{
segmentType = curve;
smooth = 0;
x = 224;
y = 96;
},
{
segmentType = line;
smooth = 0;
x = 220;
y = 0;
},
{
segmentType = line;
smooth = 0;
x = 944;
y = 0;
},
{
smooth = 0;
x = 944;
y = 0;
},
{
smooth = 0;
x = 940;
y = 96;
},
{
segmentType = curve;
smooth = 0;
x = 940;
y = 96;
},
{
smooth = 0;
x = 708;
y = 110;
},
{
smooth = 0;
x = 710;
y = 154;
},
{
segmentType = curve;
smooth = 1;
x = 710;
y = 338;
},
{
segmentType = line;
smooth = 0;
x = 710;
y = 1098;
},
{
smooth = 0;
x = 710;
y = 1288;
},
{
smooth = 0;
x = 710;
y = 1330;
},
{
segmentType = curve;
smooth = 0;
x = 940;
y = 1344;
},
{
segmentType = line;
smooth = 0;
x = 944;
y = 1440;
},
{
segmentType = line;
smooth = 0;
x = 220;
y = 1440;
},
{
smooth = 0;
x = 220;
y = 1440;
},
{
smooth = 0;
x = 224;
y = 1344;
},
{
segmentType = curve;
smooth = 0;
x = 224;
y = 1344;
},
{
smooth = 0;
x = 456;
y = 1330;
},
{
smooth = 0;
x = 454;
y = 1286;
}
);
}
);
lib = {
};
name = hyphen;
unicodes = (
);
width = 2000;
};
};
};
},
{
glyphname = cross;
layers = (
{
layerId = "A06561DA-A1C3-4D4F-A301-2F031DFC9FDA";
shapes = (
{
closed = 1;
nodes = (
(560,-126,l),
(560,1344,l),
(520,1328,l),
(520,-142,l)
);
},
{
closed = 1;
nodes = (
(468,44,l),
(468,1478,l),
(428,1462,l),
(428,28,l)
);
},
{
closed = 1;
nodes = (
(206,540,o),
(232,532,o),
(260,528,c),
(246,542,o),
(240,554,o),
(234,574,c),
(244,578,l),
(254,552,o),
(272,534,o),
(292,522,c),
(306,528,o),
(318,540,o),
(326,554,c),
(336,550,l),
(332,534,o),
(324,522,o),
(312,512,c),
(324,510,o),
(334,502,o),
(338,496,c),
(330,484,l),
(320,492,o),
(304,496,o),
(290,496,c),
(274,466,o),
(246,436,o),
(202,402,c),
(194,412,l),
(226,440,o),
(250,470,o),
(256,500,c),
(228,510,o),
(198,522,o),
(180,538,c),
(184,548,l)
);
},
{
closed = 1;
nodes = (
(656,822,o),
(594,794,o),
(546,772,c),
(554,742,l),
(612,768,o),
(690,806,o),
(734,874,c),
(692,874,l)
);
},
{
closed = 1;
nodes = (
(656,364,o),
(642,364,o),
(632,364,c),
(626,378,o),
(622,388,o),
(604,404,c),
(610,410,l),
(626,400,o),
(642,384,o),
(648,370,c),
(648,392,o),
(664,418,o),
(686,438,c),
(694,432,l),
(672,404,o),
(668,390,o),
(666,368,c)
);
},
{
closed = 0;
nodes = (
(334,568,l),
(342,596,o),
(358,624,o),
(380,644,cs),
(400,662,o),
(424,678,o),
(448,692,c),
(448,728,l),
(416,712,o),
(384,694,o),
(358,670,cs),
(322,638,o),
(294,590,o),
(290,538,cs),
(290,538,o),
(290,538,o),
(290,538,c),
(334,568,l)
);
},
{
closed = 1;
nodes = (
(778,1164,o),
(798,1166,o),
(816,1164,c),
(807,1176,o),
(793,1193,o),
(776,1212,c),
(784,1218,l),
(800,1205,o),
(819,1189,o),
(830,1178,c),
(838,1196,o),
(854,1213,o),
(878,1228,c),
(886,1220,l),
(866,1200,o),
(854,1184,o),
(852,1168,c),
(854,1154,o),
(863,1140,o),
(878,1130,c),
(872,1120,l),
(861,1125,o),
(846,1136,o),
(840,1150,c),
(840,1132,o),
(838,1112,o),
(834,1100,c),
(824,1102,l),
(826,1116,o),
(826,1134,o),
(822,1148,c),
(803,1153,o),
(781,1152,o),
(767,1150,c),
(766,1160,l)
);
},
{
closed = 1;
nodes = (
(339,1238,o),
(335,1243,o),
(329,1243,cs),
(323,1243,o),
(316,1238,o),
(312,1210,cs),
(300,1112,o),
(336,1038,o),
(458,1038,cs),
(548,1038,o),
(618,1070,o),
(670,1058,cs),
(716,1048,o),
(728,1010,o),
(722,960,c),
(764,960,l),
(772,1026,o),
(748,1084,o),
(680,1096,cs),
(614,1108,o),
(544,1074,o),
(454,1074,cs),
(372,1074,o),
(335,1114,o),
(338,1208,cs)
);
},
{
closed = 1;
nodes = (
(442,940,l),
(442,976,l),
(136,976,l),
(130,940,l)
);
},
{
closed = 1;
nodes = (
(208,608,o),
(206,598,o),
(192,588,cs),
(174,578,o),
(159,571,o),
(148,562,cs),
(140,556,o),
(139,551,o),
(144,546,cs),
(156,534,o),
(156,514,o),
(174,502,c),
(158,484,o),
(172,471,o),
(166,448,cs),
(158,416,o),
(162,379,o),
(171,375,cs),
(186,368,o),
(211,376,o),
(225,386,cs),
(236,394,o),
(247,413,o),
(268,430,cs),
(293,451,o),
(312,458,o),
(340,468,cs),
(352,472,o),
(360,480,o),
(360,488,cs),
(360,498,o),
(352,498,o),
(352,516,cs),
(352,534,o),
(360,540,o),
(360,550,cs),
(360,558,o),
(350,560,o),
(350,568,cs),
(350,584,o),
(356,594,o),
(350,600,cs),
(338,612,o),
(296,576,o),
(294,550,c),
(296,590,o),
(242,608,o),
(224,608,cs)
);
},
{
closed = 1;
nodes = (
(340,374,o),
(438,346,o),
(502,326,cs),
(582,300,o),
(650,272,o),
(644,212,cs),
(640,164,o),
(594,134,o),
(538,124,c),
(546,100,l),
(614,112,o),
(674,146,o),
(680,208,cs),
(690,302,o),
(598,334,o),
(512,362,cs),
(476,374,o),
(438,386,o),
(406,406,cs),
(384,420,o),
(356,442,o),
(338,484,c),
(302,466,l)
);
},
{
closed = 1;
nodes = (
(668,258,l),
(668,296,o),
(664,320,o),
(654,346,c),
(658,352,l),
(672,354,o),
(684,360,o),
(694,374,c),
(694,380,o),
(696,386,o),
(698,390,c),
(704,396,o),
(718,404,o),
(718,412,cs),
(718,420,o),
(714,427,o),
(712,440,cs),
(710,452,o),
(710,466,o),
(708,468,c),
(704,474,o),
(640,436,o),
(622,430,c),
(614,436,o),
(600,435,o),
(592,432,cs),
(586,430,o),
(586,424,o),
(586,420,cs),
(584,412,o),
(572,374,o),
(594,366,cs),
(604,362,o),
(624,349,o),
(634,340,c),
(644,312,o),
(648,282,o),
(644,258,c)
);
},
{
closed = 1;
nodes = (
(442,856,l),
(442,892,l),
(56,892,l),
(50,856,l)
);
},
{
closed = 1;
nodes = (
(540,976,l),
(540,940,l),
(988,940,l),
(994,976,l)
);
},
{
closed = 1;
nodes = (
(766,1040,o),
(784,1096,o),
(820,1136,c),
(808,1144,l),
(772,1110,o),
(748,1062,o),
(744,998,c),
(764,986,l)
);
},
{
closed = 1;
nodes = (
(213,1130,o),
(222,1116,o),
(234,1106,c),
(235,1112,o),
(238,1119,o),
(244,1124,c),
(250,1121,l),
(243,1110,o),
(240,1099,o),
(240,1086,c),
(236,1076,o),
(227,1066,o),
(213,1060,c),
(209,1066,l),
(215,1070,o),
(222,1076,o),
(224,1084,c),
(214,1088,o),
(201,1089,o),
(184,1086,c),
(182,1092,l),
(194,1098,o),
(209,1101,o),
(224,1100,c),
(211,1110,o),
(203,1126,o),
(200,1144,c),
(208,1146,l)
);
},
{
closed = 1;
nodes = (
(187,1148,o),
(182,1131,o),
(188,1116,c),
(176,1108,o),
(169,1098,o),
(166,1093,cs),
(164,1089,o),
(164,1085,o),
(169,1082,cs),
(178,1076,o),
(191,1065,o),
(200,1054,c),
(224,1053,o),
(232,1059,o),
(242,1077,c),
(243,1074,o),
(245,1071,o),
(249,1071,c),
(253,1071,o),
(261,1081,o),
(259,1089,cs),
(257,1098,o),
(260,1102,o),
(259,1110,cs),
(258,1118,o),
(256,1125,o),
(257,1131,cs),
(259,1140,o),
(254,1140,o),
(250,1140,c),
(248,1144,o),
(244,1146,o),
(236,1144,c),
(235,1155,o),
(222,1164,o),
(216,1164,cs),
(213,1164,o),
(209,1162,o),
(206,1162,cs),
(203,1162,o),
(197,1165,o),
(193,1169,cs),
(191,1171,o),
(187,1170,o),
(187,1165,cs)
);
},
{
closed = 1;
nodes = (
(289,1083,o),
(325,1076,o),
(364,1062,c),
(364,1082,l),
(328,1096,o),
(282,1100,o),
(246,1096,c),
(246,1080,l)
);
},
{
closed = 1;
nodes = (
(540,892,l),
(540,856,l),
(858,856,l),
(864,892,l)
);
},
{
closed = 1;
nodes = (
(780,1102,o),
(798,1076,o),
(824,1064,c),
(855,1095,o),
(866,1090,o),
(886,1092,cs),
(902,1094,o),
(912,1096,o),
(918,1108,c),
(914,1116,o),
(908,1122,o),
(902,1130,cs),
(890,1146,o),
(886,1160,o),
(896,1188,cs),
(900,1200,o),
(904,1210,o),
(910,1222,cs),
(916,1234,o),
(914,1242,o),
(910,1246,cs),
(904,1252,o),
(898,1250,o),
(866,1242,cs),
(831,1232,o),
(822,1230,o),
(802,1230,cs),
(774,1230,o),
(774,1248,o),
(744,1264,c),
(740,1262,l),
(738,1252,o),
(736,1234,o),
(738,1216,cs),
(740,1198,o),
(742,1182,o),
(740,1174,cs),
(738,1168,o),
(730,1166,o),
(732,1152,cs),
(734,1142,o),
(742,1132,o),
(756,1126,cs),
(766,1122,o),
(784,1122,o),
(800,1122,c)
);
}
);
width = 1024;
}
);
unicode = 10013;
userData = {
com.typemytype.robofont.layerData = {
background = {
anchors = (
);
components = (
);
contours = (
{
points = (
{
segmentType = line;
smooth = 0;
x = 184;
y = 548;
},
{
smooth = 0;
x = 206;
y = 540;
},
{
smooth = 0;
x = 232;
y = 532;
},
{
segmentType = curve;
smooth = 0;
x = 260;
y = 528;
},
{
smooth = 0;
x = 246;
y = 542;
},
{
smooth = 0;
x = 240;
y = 554;
},
{
segmentType = curve;
smooth = 0;
x = 234;
y = 574;
},
{
segmentType = line;
smooth = 0;
x = 244;
y = 578;
},
{
smooth = 0;
x = 254;
y = 552;
},
{
smooth = 0;
x = 272;
y = 534;
},
{
segmentType = curve;
smooth = 0;
x = 292;
y = 522;
},
{
smooth = 0;
x = 306;
y = 528;
},
{
smooth = 0;
x = 318;
y = 540;
},
{
segmentType = curve;
smooth = 0;
x = 326;
y = 554;
},
{
segmentType = line;
smooth = 0;
x = 336;
y = 550;
},
{
smooth = 0;
x = 332;
y = 534;
},
{
smooth = 0;
x = 324;
y = 522;
},
{
segmentType = curve;
smooth = 0;
x = 312;
y = 512;
},
{
smooth = 0;
x = 324;
y = 510;
},
{
smooth = 0;
x = 334;
y = 502;
},
{
segmentType = curve;
smooth = 0;
x = 338;
y = 496;
},
{
segmentType = line;
smooth = 0;
x = 330;
y = 484;
},
{
smooth = 0;
x = 320;
y = 492;
},
{
smooth = 0;
x = 304;
y = 496;
},
{
segmentType = curve;
smooth = 0;
x = 290;
y = 496;
},
{
smooth = 0;
x = 274;
y = 466;
},
{
smooth = 0;
x = 246;
y = 436;
},
{
segmentType = curve;
smooth = 0;
x = 202;
y = 402;
},
{
segmentType = line;
smooth = 0;
x = 194;
y = 412;
},
{
smooth = 0;
x = 226;
y = 440;
},
{
smooth = 0;
x = 250;
y = 470;
},
{
segmentType = curve;
smooth = 0;
x = 256;
y = 500;
},
{
smooth = 0;
x = 228;
y = 510;
},
{
smooth = 0;
x = 198;
y = 522;
},
{
segmentType = curve;
smooth = 0;
x = 180;
y = 538;
}
);
},
{
points = (
{
segmentType = curve;
smooth = 0;
x = 468;
y = 394;
},
{
segmentType = line;
smooth = 0;
x = 468;
y = 1018;
},
{
smooth = 0;
x = 458;
y = 1018;
},
{
smooth = 0;
x = 438;
y = 1020;
},
{
segmentType = curve;
smooth = 0;
x = 428;
y = 1022;
},
{
segmentType = line;
smooth = 0;
x = 428;
y = 410;
},
{
smooth = 0;
x = 436;
y = 404;
},
{
smooth = 0;
x = 456;
y = 396;
}
);
},
{
points = (
{
segmentType = line;
smooth = 0;
x = 692;
y = 874;
},
{
smooth = 0;
x = 656;
y = 822;
},
{
smooth = 0;
x = 594;
y = 794;
},
{
segmentType = curve;
smooth = 0;
x = 546;
y = 772;
},
{
segmentType = line;
smooth = 0;
x = 554;
y = 742;
},
{
smooth = 0;
x = 612;
y = 768;
},
{
smooth = 0;
x = 690;
y = 806;
},
{
segmentType = curve;
smooth = 0;
x = 734;
y = 874;
}
);
},
{
points = (
{
segmentType = curve;
smooth = 0;
x = 666;
y = 368;
},
{
smooth = 0;
x = 656;
y = 364;
},
{
smooth = 0;
x = 642;
y = 364;
},
{
segmentType = curve;
smooth = 0;
x = 632;
y = 364;
},
{
smooth = 0;
x = 626;
y = 378;
},
{
smooth = 0;
x = 622;
y = 388;
},
{
segmentType = curve;
smooth = 0;
x = 604;
y = 404;
},
{
segmentType = line;
smooth = 0;
x = 610;
y = 410;
},
{
smooth = 0;
x = 626;
y = 400;
},
{
smooth = 0;
x = 642;
y = 384;
},
{
segmentType = curve;
smooth = 0;
x = 648;
y = 370;
},
{
smooth = 0;
x = 648;
y = 392;
},
{
smooth = 0;
x = 664;
y = 418;
},
{
segmentType = curve;
smooth = 0;
x = 686;
y = 438;
},
{
segmentType = line;
smooth = 0;
x = 694;
y = 432;
},
{
smooth = 0;
x = 672;
y = 404;
},
{
smooth = 0;
x = 668;
y = 390;
}
);
},
{
points = (
{
segmentType = move;
smooth = 0;
x = 334;
y = 568;
},
{
smooth = 0;
x = 342;
y = 596;
},
{
smooth = 0;
x = 358;
y = 624;
},
{
segmentType = curve;
smooth = 1;
x = 380;
y = 644;
},
{
smooth = 0;
x = 400;
y = 662;
},
{
smooth = 0;
x = 424;
y = 678;
},
{
segmentType = curve;
smooth = 0;
x = 448;
y = 692;
},
{
segmentType = line;
smooth = 0;
x = 448;
y = 728;
},
{
smooth = 0;
x = 416;
y = 712;
},
{
smooth = 0;
x = 384;
y = 694;
},
{
segmentType = curve;
smooth = 1;
x = 358;
y = 670;
},
{
smooth = 0;
x = 322;
y = 638;
},
{
smooth = 0;
x = 294;
y = 590;
},
{
segmentType = curve;
smooth = 1;
x = 290;
y = 538;
},
{
smooth = 0;
x = 290;
y = 538;
},
{
smooth = 0;
x = 290;
y = 538;
},
{
segmentType = curve;
smooth = 0;
x = 290;
y = 538;
},
{
segmentType = line;
smooth = 0;
x = 334;
y = 568;
}
);
},
{
points = (
{
segmentType = line;
smooth = 0;
x = 766;
y = 1160;
},
{
smooth = 0;
x = 778;
y = 1164;
},
{
smooth = 0;
x = 798;
y = 1166;
},
{
segmentType = curve;
smooth = 0;
x = 816;
y = 1164;
},
{
smooth = 0;
x = 807;
y = 1176;
},
{
smooth = 0;
x = 793;
y = 1193;
},
{
segmentType = curve;
smooth = 0;
x = 776;
y = 1212;
},
{
segmentType = line;
smooth = 0;
x = 784;
y = 1218;
},
{
smooth = 0;
x = 800;
y = 1205;
},
{
smooth = 0;
x = 819;
y = 1189;
},
{
segmentType = curve;
smooth = 0;
x = 830;
y = 1178;
},
{
smooth = 0;
x = 838;
y = 1196;
},
{
smooth = 0;
x = 854;
y = 1213;
},
{
segmentType = curve;
smooth = 0;
x = 878;
y = 1228;
},
{
segmentType = line;
smooth = 0;
x = 886;
y = 1220;
},
{
smooth = 0;
x = 866;
y = 1200;
},
{
smooth = 0;
x = 854;
y = 1184;
},
{
segmentType = curve;
smooth = 0;
x = 852;
y = 1168;
},
{
smooth = 0;
x = 854;
y = 1154;
},
{
smooth = 0;
x = 863;
y = 1140;
},
{
segmentType = curve;
smooth = 0;
x = 878;
y = 1130;
},
{
segmentType = line;
smooth = 0;
x = 872;
y = 1120;
},
{
smooth = 0;
x = 861;
y = 1125;
},
{
smooth = 0;
x = 846;
y = 1136;
},
{
segmentType = curve;
smooth = 0;
x = 840;
y = 1150;
},
{
smooth = 0;
x = 840;
y = 1132;
},
{
smooth = 0;
x = 838;
y = 1112;
},
{
segmentType = curve;
smooth = 0;
x = 834;
y = 1100;
},
{
segmentType = line;
smooth = 0;
x = 824;
y = 1102;
},
{
smooth = 0;
x = 826;
y = 1116;
},
{
smooth = 0;
x = 826;
y = 1134;
},
{
segmentType = curve;
smooth = 0;
x = 822;
y = 1148;
},
{
smooth = 0;
x = 803;
y = 1153;
},
{
smooth = 0;
x = 781;
y = 1152;
},
{
segmentType = curve;
smooth = 0;
x = 767;
y = 1150;
}
);
},
{
points = (
{
segmentType = curve;
smooth = 1;
x = 338;
y = 1208;
},
{
smooth = 0;
x = 339;
y = 1238;
},
{
smooth = 0;
x = 335;
y = 1243;
},
{
segmentType = curve;
smooth = 1;
x = 329;
y = 1243;
},
{
smooth = 0;
x = 323;
y = 1243;
},
{
smooth = 0;
x = 316;
y = 1238;
},
{
segmentType = curve;
smooth = 1;
x = 312;
y = 1210;
},
{
smooth = 0;
x = 300;
y = 1112;
},
{
smooth = 0;
x = 336;
y = 1038;
},
{
segmentType = curve;
smooth = 1;
x = 458;
y = 1038;
},
{
smooth = 0;
x = 548;
y = 1038;
},
{
smooth = 0;
x = 618;
y = 1070;
},
{
segmentType = curve;
smooth = 1;
x = 670;
y = 1058;
},
{
smooth = 0;
x = 716;
y = 1048;
},
{
smooth = 0;
x = 728;
y = 1010;
},
{
segmentType = curve;
smooth = 0;
x = 722;
y = 960;
},
{
segmentType = line;
smooth = 0;
x = 764;
y = 960;
},
{
smooth = 0;
x = 772;
y = 1026;
},
{
smooth = 0;
x = 748;
y = 1084;
},
{
segmentType = curve;
smooth = 1;
x = 680;
y = 1096;
},
{
smooth = 0;
x = 614;
y = 1108;
},
{
smooth = 0;
x = 544;
y = 1074;
},
{
segmentType = curve;
smooth = 1;
x = 454;
y = 1074;
},
{
smooth = 0;
x = 372;
y = 1074;
},
{
smooth = 0;
x = 335;
y = 1114;
}
);
},
{
points = (
{
segmentType = line;
smooth = 0;
x = 130;
y = 940;
},
{
segmentType = line;
smooth = 0;
x = 442;
y = 940;
},
{
segmentType = line;
smooth = 0;
x = 442;
y = 976;
},
{
segmentType = line;
smooth = 0;
x = 136;
y = 976;
}
);
},
{
points = (
{
segmentType = line;
smooth = 0;
x = 428;
y = 28;
},
{
segmentType = line;
smooth = 0;
x = 468;
y = 44;
},
{
segmentType = line;
smooth = 0;
x = 468;
y = 318;
},
{
smooth = 0;
x = 456;
y = 322;
},
{
smooth = 0;
x = 440;
y = 328;
},
{
segmentType = curve;
smooth = 0;
x = 428;
y = 334;
}
);
},
{
points = (
{
segmentType = curve;
smooth = 1;
x = 224;
y = 608;
},
{
smooth = 0;
x = 208;
y = 608;
},
{
smooth = 0;
x = 206;
y = 598;
},
{
segmentType = curve;
smooth = 1;
x = 192;
y = 588;
},
{
smooth = 0;
x = 174;
y = 578;
},
{
smooth = 0;
x = 159;
y = 571;
},
{
segmentType = curve;
smooth = 1;
x = 148;
y = 562;
},
{
smooth = 0;
x = 140;
y = 556;
},
{
smooth = 0;
x = 139;
y = 551;
},
{
segmentType = curve;
smooth = 1;
x = 144;
y = 546;
},
{
smooth = 0;
x = 156;
y = 534;
},
{
smooth = 0;
x = 156;
y = 514;
},
{
segmentType = curve;
smooth = 0;
x = 174;
y = 502;
},
{
smooth = 0;
x = 158;
y = 484;
},
{
smooth = 0;
x = 172;
y = 471;
},
{
segmentType = curve;
smooth = 1;
x = 166;
y = 448;
},
{
smooth = 0;
x = 158;
y = 416;
},
{
smooth = 0;
x = 162;
y = 379;
},
{
segmentType = curve;
smooth = 1;
x = 171;
y = 375;
},
{
smooth = 0;
x = 186;
y = 368;
},
{
smooth = 0;
x = 211;
y = 376;
},
{
segmentType = curve;
smooth = 1;
x = 225;
y = 386;
},
{
smooth = 0;
x = 236;
y = 394;
},
{
smooth = 0;
x = 247;
y = 413;
},
{
segmentType = curve;
smooth = 1;
x = 268;
y = 430;
},
{
smooth = 0;
x = 293;
y = 451;
},
{
smooth = 0;
x = 312;
y = 458;
},
{
segmentType = curve;
smooth = 1;
x = 340;
y = 468;
},
{
smooth = 0;
x = 352;
y = 472;
},
{
smooth = 0;
x = 360;
y = 480;
},
{
segmentType = curve;
smooth = 1;
x = 360;
y = 488;
},
{
smooth = 0;
x = 360;
y = 498;
},
{
smooth = 0;
x = 352;
y = 498;
},
{
segmentType = curve;
smooth = 1;
x = 352;
y = 516;
},
{
smooth = 0;
x = 352;
y = 534;
},
{
smooth = 0;
x = 360;
y = 540;
},
{
segmentType = curve;
smooth = 1;
x = 360;
y = 550;
},
{
smooth = 0;
x = 360;
y = 558;
},
{
smooth = 0;
x = 350;
y = 560;
},
{
segmentType = curve;
smooth = 1;
x = 350;
y = 568;
},
{
smooth = 0;
x = 350;
y = 584;
},
{
smooth = 0;
x = 356;
y = 594;
},
{
segmentType = curve;
smooth = 1;
x = 350;
y = 600;
},
{
smooth = 0;
x = 338;
y = 612;
},
{
smooth = 0;
x = 296;
y = 576;
},
{
segmentType = curve;
smooth = 0;
x = 294;
y = 550;
},
{
smooth = 0;
x = 296;
y = 590;
},
{
smooth = 0;
x = 242;
y = 608;
}
);
},
{
points = (
{
segmentType = line;
smooth = 0;
x = 302;
y = 466;
},
{
smooth = 0;
x = 340;
y = 374;
},
{
smooth = 0;
x = 438;
y = 346;
},
{
segmentType = curve;
smooth = 1;
x = 502;
y = 326;
},
{
smooth = 0;
x = 582;
y = 300;
},
{
smooth = 0;
x = 650;
y = 272;
},
{
segmentType = curve;
smooth = 1;
x = 644;
y = 212;
},
{
smooth = 0;
x = 640;
y = 164;
},
{
smooth = 0;
x = 594;
y = 134;
},
{
segmentType = curve;
smooth = 0;
x = 538;
y = 124;
},
{
segmentType = line;
smooth = 0;
x = 546;
y = 100;
},
{
smooth = 0;
x = 614;
y = 112;
},
{
smooth = 0;
x = 674;
y = 146;
},
{
segmentType = curve;
smooth = 1;
x = 680;
y = 208;
},
{
smooth = 0;
x = 690;
y = 302;
},
{
smooth = 0;
x = 598;
y = 334;
},
{
segmentType = curve;
smooth = 1;
x = 512;
y = 362;
},
{
smooth = 0;
x = 476;
y = 374;
},
{
smooth = 0;
x = 438;
y = 386;
},
{
segmentType = curve;
smooth = 1;
x = 406;
y = 406;
},
{
smooth = 0;
x = 384;
y = 420;
},
{
smooth = 0;
x = 356;
y = 442;
},
{
segmentType = curve;
smooth = 0;
x = 338;
y = 484;
}
);
},
{
points = (
{
segmentType = curve;
smooth = 0;
x = 644;
y = 258;
},
{
segmentType = line;
smooth = 0;
x = 668;
y = 258;
},
{
smooth = 0;
x = 668;
y = 296;
},
{
smooth = 0;
x = 664;
y = 320;
},
{
segmentType = curve;
smooth = 0;
x = 654;
y = 346;
},
{
segmentType = line;
smooth = 0;
x = 658;
y = 352;
},
{
smooth = 0;
x = 672;
y = 354;
},
{
smooth = 0;
x = 684;
y = 360;
},
{
segmentType = curve;
smooth = 0;
x = 694;
y = 374;
},
{
smooth = 0;
x = 694;
y = 380;
},
{
smooth = 0;
x = 696;
y = 386;
},
{
segmentType = curve;
smooth = 0;
x = 698;
y = 390;
},
{
smooth = 0;
x = 704;
y = 396;
},
{
smooth = 0;
x = 718;
y = 404;
},
{
segmentType = curve;
smooth = 1;
x = 718;
y = 412;
},
{
smooth = 0;
x = 718;
y = 420;
},
{
smooth = 0;
x = 714;
y = 427;
},
{
segmentType = curve;
smooth = 1;
x = 712;
y = 440;
},
{
smooth = 0;
x = 710;
y = 452;
},
{
smooth = 0;
x = 710;
y = 466;
},
{
segmentType = curve;
smooth = 0;
x = 708;
y = 468;
},
{
smooth = 0;
x = 704;
y = 474;
},
{
smooth = 0;
x = 640;
y = 436;
},
{
segmentType = curve;
smooth = 0;
x = 622;
y = 430;
},
{
smooth = 0;
x = 614;
y = 436;
},
{
smooth = 0;
x = 600;
y = 435;
},
{
segmentType = curve;
smooth = 1;
x = 592;
y = 432;
},
{
smooth = 0;
x = 586;
y = 430;
},
{
smooth = 0;
x = 586;
y = 424;
},
{
segmentType = curve;
smooth = 1;
x = 586;
y = 420;
},
{
smooth = 0;
x = 584;
y = 412;
},
{
smooth = 0;
x = 572;
y = 374;
},
{
segmentType = curve;
smooth = 1;
x = 594;
y = 366;
},
{
smooth = 0;
x = 604;
y = 362;
},
{
smooth = 0;
x = 624;
y = 349;
},
{
segmentType = curve;
smooth = 0;
x = 634;
y = 340;
},
{
smooth = 0;
x = 644;
y = 312;
},
{
smooth = 0;
x = 648;
y = 282;
}
);
},
{
points = (
{
segmentType = line;
smooth = 0;
x = 520;
y = -142;
},
{
segmentType = line;
smooth = 0;
x = 560;
y = -126;
},
{
segmentType = line;
smooth = 0;
x = 560;
y = 286;
},
{
smooth = 0;
x = 550;
y = 292;
},
{
smooth = 0;
x = 532;
y = 298;
},
{
segmentType = curve;
smooth = 0;
x = 520;
y = 300;
}
);
},
{
points = (
{
segmentType = curve;
smooth = 0;
x = 560;
y = 362;
},
{
segmentType = line;
smooth = 0;
x = 560;
y = 1028;
},
{
segmentType = line;
smooth = 0;
x = 520;
y = 1022;
},
{
segmentType = line;
smooth = 0;
x = 520;
y = 376;
},
{
smooth = 0;
x = 532;
y = 372;
},
{
smooth = 0;
x = 550;
y = 366;
}
);
},
{
points = (
{
segmentType = line;
smooth = 0;
x = 50;
y = 856;
},
{
segmentType = line;
smooth = 0;
x = 442;
y = 856;
},
{
segmentType = line;
smooth = 0;
x = 442;
y = 892;
},
{
segmentType = line;
smooth = 0;
x = 56;
y = 892;
}
);
},
{
points = (
{
segmentType = line;
smooth = 0;
x = 994;
y = 976;
},
{
segmentType = line;
smooth = 0;
x = 540;
y = 976;
},
{
segmentType = line;
smooth = 0;
x = 540;
y = 940;
},
{
segmentType = line;
smooth = 0;
x = 988;
y = 940;
}
);
},
{
points = (
{
segmentType = curve;
smooth = 0;
x = 560;
y = 1106;
},
{
segmentType = line;
smooth = 0;
x = 560;
y = 1344;
},
{
segmentType = line;
smooth = 0;
x = 520;
y = 1328;
},
{
segmentType = line;
smooth = 0;
x = 520;
y = 1098;
},
{
smooth = 0;
x = 536;
y = 1100;
},
{
smooth = 0;
x = 552;
y = 1104;
}
);
},
{
points = (
{
segmentType = line;
smooth = 0;
x = 764;
y = 986;
},
{
smooth = 0;
x = 766;
y = 1040;
},
{
smooth = 0;
x = 784;
y = 1096;
},
{
segmentType = curve;
smooth = 0;
x = 820;
y = 1136;
},
{
segmentType = line;
smooth = 0;
x = 808;
y = 1144;
},
{
smooth = 0;
x = 772;
y = 1110;
},
{
smooth = 0;
x = 748;
y = 1062;
},
{
segmentType = curve;
smooth = 0;
x = 744;
y = 998;
}
);
},
{
points = (
{
segmentType = curve;
smooth = 0;
x = 468;
y = 1094;
},
{
segmentType = line;
smooth = 0;
x = 468;
y = 1478;
},
{
segmentType = line;
smooth = 0;
x = 428;
y = 1462;
},
{
segmentType = line;
smooth = 0;
x = 428;
y = 1096;
},
{
smooth = 0;
x = 440;
y = 1092;
},
{
smooth = 0;
x = 456;
y = 1092;
}
);
},
{
points = (
{
segmentType = line;
smooth = 0;
x = 208;
y = 1146;
},
{
smooth = 0;
x = 213;
y = 1130;
},
{
smooth = 0;
x = 222;
y = 1116;
},
{
segmentType = curve;
smooth = 0;
x = 234;
y = 1106;
},
{
smooth = 0;
x = 235;
y = 1112;
},
{
smooth = 0;
x = 238;
y = 1119;
},
{
segmentType = curve;
smooth = 0;
x = 244;
y = 1124;
},
{
segmentType = line;
smooth = 0;
x = 250;
y = 1121;
},
{
smooth = 0;
x = 243;
y = 1110;
},
{
smooth = 0;
x = 240;
y = 1099;
},
{
segmentType = curve;
smooth = 0;
x = 240;
y = 1086;
},
{
smooth = 0;
x = 236;
y = 1076;
},
{
smooth = 0;
x = 227;
y = 1066;
},
{
segmentType = curve;
smooth = 0;
x = 213;
y = 1060;
},
{
segmentType = line;
smooth = 0;
x = 209;
y = 1066;
},
{
smooth = 0;
x = 215;
y = 1070;
},
{
smooth = 0;
x = 222;
y = 1076;
},
{
segmentType = curve;
smooth = 0;
x = 224;
y = 1084;
},
{
smooth = 0;
x = 214;
y = 1088;
},
{
smooth = 0;
x = 201;
y = 1089;
},
{
segmentType = curve;
smooth = 0;
x = 184;
y = 1086;
},
{
segmentType = line;
smooth = 0;
x = 182;
y = 1092;
},
{
smooth = 0;
x = 194;
y = 1098;
},
{
smooth = 0;
x = 209;
y = 1101;
},
{
segmentType = curve;
smooth = 0;
x = 224;
y = 1100;
},
{
smooth = 0;
x = 211;
y = 1110;
},
{
smooth = 0;
x = 203;
y = 1126;
},
{
segmentType = curve;
smooth = 0;
x = 200;
y = 1144;
}
);
},
{
points = (
{
segmentType = curve;
smooth = 1;
x = 187;
y = 1165;
},
{
smooth = 0;
x = 187;
y = 1148;
},
{
smooth = 0;
x = 182;
y = 1131;
},
{
segmentType = curve;
smooth = 0;
x = 188;
y = 1116;
},
{
smooth = 0;
x = 176;
y = 1108;
},
{
smooth = 0;
x = 169;
y = 1098;
},
{
segmentType = curve;
smooth = 1;
x = 166;
y = 1093;
},
{
smooth = 0;
x = 164;
y = 1089;
},
{
smooth = 0;
x = 164;
y = 1085;
},
{
segmentType = curve;
smooth = 1;
x = 169;
y = 1082;
},
{
smooth = 0;
x = 178;
y = 1076;
},
{
smooth = 0;
x = 191;
y = 1065;
},
{
segmentType = curve;
smooth = 0;
x = 200;
y = 1054;
},
{
smooth = 0;
x = 224;
y = 1053;
},
{
smooth = 0;
x = 232;
y = 1059;
},
{
segmentType = curve;
smooth = 0;
x = 242;
y = 1077;
},
{
smooth = 0;
x = 243;
y = 1074;
},
{
smooth = 0;
x = 245;
y = 1071;
},
{
segmentType = curve;
smooth = 0;
x = 249;
y = 1071;
},
{
smooth = 0;
x = 253;
y = 1071;
},
{
smooth = 0;
x = 261;
y = 1081;
},
{
segmentType = curve;
smooth = 1;
x = 259;
y = 1089;
},
{
smooth = 0;
x = 257;
y = 1098;
},
{
smooth = 0;
x = 260;
y = 1102;
},
{
segmentType = curve;
smooth = 1;
x = 259;
y = 1110;
},
{
smooth = 0;
x = 258;
y = 1118;
},
{
smooth = 0;
x = 256;
y = 1125;
},
{
segmentType = curve;
smooth = 1;
x = 257;
y = 1131;
},
{
smooth = 0;
x = 259;
y = 1140;
},
{
smooth = 0;
x = 254;
y = 1140;
},
{
segmentType = curve;
smooth = 0;
x = 250;
y = 1140;
},
{
smooth = 0;
x = 248;
y = 1144;
},
{
smooth = 0;
x = 244;
y = 1146;
},
{
segmentType = curve;
smooth = 0;
x = 236;
y = 1144;
},
{
smooth = 0;
x = 235;
y = 1155;
},
{
smooth = 0;
x = 222;
y = 1164;
},
{
segmentType = curve;
smooth = 1;
x = 216;
y = 1164;
},
{
smooth = 0;
x = 213;
y = 1164;
},
{
smooth = 0;
x = 209;
y = 1162;
},
{
segmentType = curve;
smooth = 1;
x = 206;
y = 1162;
},
{
smooth = 0;
x = 203;
y = 1162;
},
{
smooth = 0;
x = 197;
y = 1165;
},
{
segmentType = curve;
smooth = 1;
x = 193;
y = 1169;
},
{
smooth = 0;
x = 191;
y = 1171;
},
{
smooth = 0;
x = 187;
y = 1170;
}
);
},
{
points = (
{
segmentType = line;
smooth = 0;
x = 246;
y = 1080;
},
{
smooth = 0;
x = 289;
y = 1083;
},
{
smooth = 0;
x = 325;
y = 1076;
},
{
segmentType = curve;
smooth = 0;
x = 364;
y = 1062;
},
{
segmentType = line;
smooth = 0;
x = 364;
y = 1082;
},
{
smooth = 0;
x = 328;
y = 1096;
},
{
smooth = 0;
x = 282;
y = 1100;
},
{
segmentType = curve;
smooth = 0;
x = 246;
y = 1096;
}
);
},
{
points = (
{
segmentType = line;
smooth = 0;
x = 864;
y = 892;
},
{
segmentType = line;
smooth = 0;
x = 540;
y = 892;
},
{
segmentType = line;
smooth = 0;
x = 540;
y = 856;
},
{
segmentType = line;
smooth = 0;
x = 858;
y = 856;
}
);
},
{
points = (
{
segmentType = curve;
smooth = 0;
x = 800;
y = 1122;
},
{
smooth = 0;
x = 780;
y = 1102;
},
{
smooth = 0;
x = 798;
y = 1076;
},
{
segmentType = curve;
smooth = 0;
x = 824;
y = 1064;
},
{
smooth = 0;
x = 855;
y = 1095;
},
{
smooth = 0;
x = 866;
y = 1090;
},
{
segmentType = curve;
smooth = 1;
x = 886;
y = 1092;
},
{
smooth = 0;
x = 902;
y = 1094;
},
{
smooth = 0;
x = 912;
y = 1096;
},
{
segmentType = curve;
smooth = 0;
x = 918;
y = 1108;
},
{
smooth = 0;
x = 914;
y = 1116;
},
{
smooth = 0;
x = 908;
y = 1122;
},
{
segmentType = curve;
smooth = 1;
x = 902;
y = 1130;
},
{
smooth = 0;
x = 890;
y = 1146;
},
{
smooth = 0;
x = 886;
y = 1160;
},
{
segmentType = curve;
smooth = 1;
x = 896;
y = 1188;
},
{
smooth = 0;
x = 900;
y = 1200;
},
{
smooth = 0;
x = 904;
y = 1210;
},
{
segmentType = curve;
smooth = 1;
x = 910;
y = 1222;
},
{
smooth = 0;
x = 916;
y = 1234;
},
{
smooth = 0;
x = 914;
y = 1242;
},
{
segmentType = curve;
smooth = 1;
x = 910;
y = 1246;
},
{
smooth = 0;
x = 904;
y = 1252;
},
{
smooth = 0;
x = 898;
y = 1250;
},
{
segmentType = curve;
smooth = 1;
x = 866;
y = 1242;
},
{
smooth = 0;
x = 831;
y = 1232;
},
{
smooth = 0;
x = 822;
y = 1230;
},
{
segmentType = curve;
smooth = 1;
x = 802;
y = 1230;
},
{
smooth = 0;
x = 774;
y = 1230;
},
{
smooth = 0;
x = 774;
y = 1248;
},
{
segmentType = curve;
smooth = 0;
x = 744;
y = 1264;
},
{
segmentType = line;
smooth = 0;
x = 740;
y = 1262;
},
{
smooth = 0;
x = 738;
y = 1252;
},
{
smooth = 0;
x = 736;
y = 1234;
},
{
segmentType = curve;
smooth = 1;
x = 738;
y = 1216;
},
{
smooth = 0;
x = 740;
y = 1198;
},
{
smooth = 0;
x = 742;
y = 1182;
},
{
segmentType = curve;
smooth = 1;
x = 740;
y = 1174;
},
{
smooth = 0;
x = 738;
y = 1168;
},
{
smooth = 0;
x = 730;
y = 1166;
},
{
segmentType = curve;
smooth = 1;
x = 732;
y = 1152;
},
{
smooth = 0;
x = 734;
y = 1142;
},
{
smooth = 0;
x = 742;
y = 1132;
},
{
segmentType = curve;
smooth = 1;
x = 756;
y = 1126;
},
{
smooth = 0;
x = 766;
y = 1122;
},
{
smooth = 0;
x = 784;
y = 1122;
}
);
}
);
lib = {
com.typemytype.robofont.image = {
blackAndWhite = 0;
brightness = 0;
contrast = 1;
path = "/Users/kuti/Documents/Schriften/Hermann/800px-Ivy_Hedera_Red_Brick_Wall_2892px.jpg";
saturation = 1;
sharpness = 0.4;
transform = (
0,
1.32697,
-1,
0,
-64,
861.90438
);
};
};
name = uni271D;
unicodes = (
);
width = 1024;
};
};
};
},
{
glyphname = raisedFist;
layers = (
{
layerId = "A06561DA-A1C3-4D4F-A301-2F031DFC9FDA";
shapes = (
{
closed = 1;
nodes = (
(640,1202,o),
(614,1132,c),
(660,1152,o),
(734,1176,o),
(768,1176,cs),
(780,1176,o),
(792,1174,o),
(804,1172,c),
(822,1182,o),
(836,1202,o),
(836,1226,c),
(874,1228,o),
(916,1210,o),
(946,1190,c),
(962,1210,l),
(936,1236,o),
(902,1252,o),
(856,1262,cs),
(836,1266,o),
(784,1276,o),
(746,1276,cs),
(698,1276,o)
);
},
{
closed = 1;
nodes = (
(434,836,o),
(434,836,c),
(420,856,o),
(408,894,o),
(408,924,c),
(392,952,o),
(380,982,o),
(380,1018,cs),
(380,1052,o),
(394,1084,o),
(410,1110,cs),
(428,1138,o),
(440,1168,o),
(458,1182,cs),
(486,1206,o),
(564,1200,o),
(604,1194,c),
(590,1172,o),
(582,1154,o),
(578,1132,c),
(572,1132,o),
(564,1134,o),
(558,1134,c),
(550,1162,l),
(536,1162,l),
(532,1134,l),
(506,1134,o),
(478,1132,o),
(456,1126,c),
(438,1090,o),
(430,1038,o),
(468,984,cs),
(470,982,o),
(472,978,o),
(474,976,c),
(466,960,o),
(462,922,o),
(466,900,c),
(450,880,o),
(438,858,o),
(436,836,c),
(436,836,o)
);
},
{
closed = 1;
nodes = (
(506,998,o),
(510,994,c),
(548,996,o),
(596,1008,o),
(614,1030,c),
(666,1006,o),
(728,1010,o),
(752,1058,c),
(768,1060,o),
(786,1070,o),
(792,1100,c),
(814,1102,l),
(822,1042,o),
(878,1018,o),
(938,1012,c),
(926,1040,o),
(906,1068,o),
(876,1094,cs),
(854,1112,o),
(816,1138,o),
(768,1138,cs),
(730,1138,o),
(650,1108,o),
(606,1092,c),
(564,1100,o),
(508,1098,o),
(476,1094,c),
(472,1076,o),
(472,1038,o),
(498,1006,cs),
(502,1002,o)
);
},
{
closed = 1;
nodes = (
(1170,1012,l),
(1202,932,o),
(1218,818,o),
(1210,752,cs),
(1164,328,ls),
(1156,250,o),
(1176,188,o),
(1190,154,c),
(1206,158,l),
(1196,210,o),
(1188,260,o),
(1196,316,cs),
(1252,740,ls),
(1258,790,o),
(1244,852,o),
(1226,894,c),
(1236,900,l),
(1272,838,o),
(1298,812,o),
(1368,816,c),
(1442,778,l),
(1444,734,o),
(1466,698,o),
(1514,680,cs),
(1578,656,o),
(1632,694,o),
(1618,758,c),
(1494,844,o),
(1310,960,o),
(1182,1022,c)
);
},
{
closed = 1;
nodes = (
(298,714,o),
(302,712,c),
(292,742,o),
(296,770,o),
(312,798,c),
(326,806,o),
(348,804,o),
(366,796,c),
(362,838,o),
(372,860,o),
(384,876,c),
(384,882,o),
(382,888,o),
(382,894,c),
(380,898,o),
(378,900,o),
(376,904,c),
(336,922,l),
(338,940,l),
(362,938,l),
(354,960,o),
(348,984,o),
(346,1010,c),
(332,998,o),
(318,968,o),
(302,952,cs),
(260,914,o),
(258,880,o),
(258,854,cs),
(258,836,o),
(264,812,o),
(278,786,c),
(280,766,o),
(284,734,o),
(292,716,c),
(296,714,o)
);
},
{
closed = 1;
nodes = (
(232,578,o),
(236,572,c),
(278,570,o),
(320,580,o),
(344,608,c),
(344,632,o),
(342,656,o),
(338,670,c),
(320,670,o),
(300,676,o),
(280,684,c),
(258,674,o),
(252,662,o),
(254,648,c),
(242,638,o),
(228,628,o),
(228,600,cs),
(228,588,o)
);
},
{
closed = 1;
nodes = (
(1000,116,o),
(1114,94,o),
(1200,36,c),
(1218,54,l),
(1180,128,o),
(1114,186,o),
(1048,210,c),
(1002,328,o),
(940,404,o),
(834,474,c),
(868,510,o),
(896,566,o),
(884,616,c),
(938,626,o),
(976,666,o),
(994,712,cs),
(1020,776,o),
(1012,836,o),
(1062,836,cs),
(1094,836,o),
(1136,818,o),
(1150,840,cs),
(1164,862,o),
(1148,892,o),
(1122,924,c),
(1122,980,l),
(1154,1006,o),
(1164,1036,o),
(1148,1100,cs),
(1138,1140,o),
(1108,1154,o),
(1060,1154,cs),
(1004,1154,o),
(948,1138,o),
(924,1104,c),
(928,1100,ls),
(1000,1024,o),
(1000,942,o),
(968,882,c),
(940,884,o),
(918,870,o),
(904,848,c),
(866,854,o),
(820,866,o),
(776,880,c),
(680,868,o),
(642,836,o),
(632,778,c),
(598,768,l),
(578,808,o),
(562,852,o),
(556,922,c),
(554,924,o),
(550,924,o),
(548,924,c),
(546,898,o),
(542,876,o),
(536,860,c),
(542,804,o),
(544,736,o),
(540,690,c),
(510,684,l),
(500,716,o),
(482,766,o),
(458,798,c),
(446,798,o),
(434,798,o),
(420,800,c),
(414,808,o),
(406,818,o),
(400,830,c),
(398,812,o),
(398,796,o),
(400,770,cs),
(402,752,o),
(402,736,o),
(398,724,c),
(418,652,o),
(430,580,o),
(426,528,c),
(404,524,l),
(402,554,o),
(396,586,o),
(388,620,c),
(388,574,o),
(378,534,o),
(364,500,c),
(384,434,o),
(416,374,o),
(442,332,cs),
(500,234,o),
(560,170,o),
(592,26,c),
(594,10,o),
(600,-50,o),
(602,-84,c),
(628,-86,l),
(686,20,o),
(750,70,o),
(868,92,cs)
);
},
{
closed = 1;
nodes = (
(400,270,o),
(434,272,c),
(412,300,o),
(392,340,o),
(376,380,c),
(356,364,o),
(352,340,o),
(360,316,cs),
(372,280,o)
);
},
{
closed = 1;
nodes = (
(1388,260,o),
(1318,310,o),
(1270,334,c),
(1220,334,l),
(1214,288,l),
(1258,286,l),
(1302,258,o),
(1374,208,o),
(1430,160,c),
(1446,172,l)
);
}
);
width = 2108;
}
);
unicode = 9994;
userData = {
com.typemytype.robofont.image = {
path = "/Users/kuti/Documents/Schriften/Hermann/IMG_4955.png";
transform = (
5.27816,
0,
0,
5.27816,
-2,
-498
);
};
com.typemytype.robofont.layerData = {
background = {
anchors = (
);
components = (
);
contours = (
{
points = (
{
segmentType = line;
smooth = 0;
x = 556;
y = 928;
},
{
smooth = 0;
x = 562;
y = 852;
},
{
smooth = 0;
x = 578;
y = 808;
},
{
segmentType = curve;
smooth = 0;
x = 598;
y = 768;
},
{
segmentType = line;
smooth = 0;
x = 632;
y = 778;
},
{
smooth = 0;
x = 642;
y = 840;
},
{
smooth = 0;
x = 686;
y = 872;
},
{
segmentType = curve;
smooth = 0;
x = 796;
y = 882;
},
{
segmentType = line;
smooth = 0;
x = 708;
y = 912;
}
);
},
{
points = (
{
segmentType = curve;
smooth = 0;
x = 306;
y = 696;
},
{
segmentType = line;
smooth = 0;
x = 360;
y = 692;
},
{
segmentType = line;
smooth = 0;
x = 386;
y = 788;
},
{
smooth = 0;
x = 372;
y = 798;
},
{
smooth = 0;
x = 334;
y = 810;
},
{
segmentType = curve;
smooth = 0;
x = 312;
y = 798;
},
{
smooth = 0;
x = 294;
y = 766;
},
{
smooth = 0;
x = 292;
y = 734;
}
);
},
{
points = (
{
smooth = 0;
x = 512;
y = 816;
},
{
smooth = 0;
x = 486;
y = 814;
},
{
segmentType = curve;
smooth = 0;
x = 452;
y = 808;
},
{
smooth = 0;
x = 482;
y = 766;
},
{
smooth = 0;
x = 500;
y = 716;
},
{
segmentType = curve;
smooth = 0;
x = 510;
y = 684;
},
{
segmentType = line;
smooth = 0;
x = 540;
y = 690;
},
{
smooth = 0;
x = 544;
y = 740;
},
{
smooth = 0;
x = 542;
y = 818;
},
{
segmentType = curve;
smooth = 0;
x = 534;
y = 876;
}
);
},
{
points = (
{
segmentType = curve;
smooth = 0;
x = 486;
y = 994;
},
{
segmentType = line;
smooth = 0;
x = 566;
y = 932;
},
{
segmentType = line;
smooth = 0;
x = 710;
y = 920;
},
{
segmentType = line;
smooth = 0;
x = 888;
y = 866;
},
{
segmentType = line;
smooth = 0;
x = 964;
y = 902;
},
{
segmentType = line;
smooth = 0;
x = 960;
y = 1010;
},
{
smooth = 0;
x = 894;
y = 1012;
},
{
smooth = 0;
x = 822;
y = 1034;
},
{
segmentType = curve;
smooth = 0;
x = 814;
y = 1102;
},
{
segmentType = line;
smooth = 0;
x = 792;
y = 1100;
},
{
smooth = 0;
x = 786;
y = 1070;
},
{
smooth = 0;
x = 768;
y = 1060;
},
{
segmentType = curve;
smooth = 0;
x = 752;
y = 1058;
},
{
smooth = 0;
x = 728;
y = 1010;
},
{
smooth = 0;
x = 666;
y = 1006;
},
{
segmentType = curve;
smooth = 0;
x = 614;
y = 1030;
},
{
smooth = 0;
x = 592;
y = 1004;
},
{
smooth = 0;
x = 524;
y = 990;
}
);
},
{
points = (
{
segmentType = line;
smooth = 0;
x = 530;
y = 1122;
},
{
segmentType = line;
smooth = 0;
x = 562;
y = 1122;
},
{
segmentType = line;
smooth = 0;
x = 550;
y = 1162;
},
{
segmentType = line;
smooth = 0;
x = 536;
y = 1162;
}
);
},
{
points = (
{
segmentType = curve;
smooth = 1;
x = 876;
y = 1094;
},
{
smooth = 0;
x = 942;
y = 1040;
},
{
smooth = 0;
x = 956;
y = 970;
},
{
segmentType = curve;
smooth = 0;
x = 946;
y = 916;
},
{
smooth = 0;
x = 920;
y = 918;
},
{
smooth = 0;
x = 900;
y = 902;
},
{
segmentType = curve;
smooth = 0;
x = 892;
y = 888;
},
{
smooth = 0;
x = 840;
y = 896;
},
{
smooth = 0;
x = 776;
y = 914;
},
{
segmentType = curve;
smooth = 0;
x = 712;
y = 946;
},
{
smooth = 0;
x = 596;
y = 934;
},
{
smooth = 0;
x = 530;
y = 966;
},
{
segmentType = curve;
smooth = 1;
x = 498;
y = 1006;
},
{
smooth = 0;
x = 472;
y = 1038;
},
{
smooth = 0;
x = 472;
y = 1076;
},
{
segmentType = curve;
smooth = 0;
x = 476;
y = 1094;
},
{
smooth = 0;
x = 508;
y = 1098;
},
{
smooth = 0;
x = 564;
y = 1100;
},
{
segmentType = curve;
smooth = 0;
x = 606;
y = 1092;
},
{
smooth = 0;
x = 650;
y = 1108;
},
{
smooth = 0;
x = 730;
y = 1138;
},
{
segmentType = curve;
smooth = 1;
x = 768;
y = 1138;
},
{
smooth = 0;
x = 816;
y = 1138;
},
{
smooth = 0;
x = 854;
y = 1112;
}
);
},
{
points = (
{
segmentType = line;
smooth = 0;
x = 336;
y = 678;
},
{
smooth = 0;
x = 350;
y = 622;
},
{
smooth = 0;
x = 344;
y = 552;
},
{
segmentType = curve;
smooth = 0;
x = 336;
y = 508;
},
{
segmentType = line;
smooth = 0;
x = 360;
y = 490;
},
{
smooth = 0;
x = 384;
y = 542;
},
{
smooth = 0;
x = 398;
y = 610;
},
{
segmentType = curve;
smooth = 0;
x = 378;
y = 686;
}
);
},
{
points = (
{
segmentType = line;
smooth = 0;
x = 914;
y = 1082;
},
{
smooth = 0;
x = 926;
y = 1130;
},
{
smooth = 0;
x = 994;
y = 1154;
},
{
segmentType = curve;
smooth = 1;
x = 1060;
y = 1154;
},
{
smooth = 0;
x = 1108;
y = 1154;
},
{
smooth = 0;
x = 1138;
y = 1140;
},
{
segmentType = curve;
smooth = 1;
x = 1148;
y = 1100;
},
{
smooth = 0;
x = 1164;
y = 1036;
},
{
smooth = 0;
x = 1154;
y = 1006;
},
{
segmentType = curve;
smooth = 0;
x = 1122;
y = 980;
},
{
segmentType = line;
smooth = 0;
x = 1122;
y = 924;
},
{
smooth = 0;
x = 1148;
y = 892;
},
{
smooth = 0;
x = 1164;
y = 862;
},
{
segmentType = curve;
smooth = 1;
x = 1150;
y = 840;
},
{
smooth = 0;
x = 1136;
y = 818;
},
{
smooth = 0;
x = 1094;
y = 836;
},
{
segmentType = curve;
smooth = 1;
x = 1062;
y = 836;
},
{
smooth = 0;
x = 1012;
y = 836;
},
{
smooth = 0;
x = 1020;
y = 776;
},
{
segmentType = curve;
smooth = 1;
x = 994;
y = 712;
},
{
smooth = 0;
x = 976;
y = 666;
},
{
smooth = 0;
x = 938;
y = 626;
},
{
segmentType = curve;
smooth = 0;
x = 884;
y = 616;
},
{
smooth = 0;
x = 896;
y = 566;
},
{
smooth = 0;
x = 868;
y = 510;
},
{
segmentType = curve;
smooth = 0;
x = 834;
y = 474;
},
{
smooth = 0;
x = 940;
y = 404;
},
{
smooth = 0;
x = 1002;
y = 328;
},
{
segmentType = curve;
smooth = 0;
x = 1048;
y = 210;
},
{
smooth = 0;
x = 1114;
y = 186;
},
{
smooth = 0;
x = 1164;
y = 134;
},
{
segmentType = curve;
smooth = 1;
x = 1202;
y = 78;
},
{
smooth = 0;
x = 1302;
y = -72;
},
{
smooth = 0;
x = 1398;
y = -344;
},
{
segmentType = curve;
smooth = 0;
x = 1440;
y = -506;
},
{
segmentType = line;
smooth = 0;
x = 632;
y = -518;
},
{
smooth = 0;
x = 618;
y = -382;
},
{
smooth = 0;
x = 602;
y = -158;
},
{
segmentType = curve;
smooth = 0;
x = 592;
y = 26;
},
{
smooth = 0;
x = 560;
y = 170;
},
{
smooth = 0;
x = 500;
y = 234;
},
{
segmentType = curve;
smooth = 1;
x = 442;
y = 332;
},
{
smooth = 0;
x = 412;
y = 382;
},
{
smooth = 0;
x = 372;
y = 454;
},
{
segmentType = curve;
smooth = 0;
x = 356;
y = 532;
},
{
smooth = 0;
x = 314;
y = 522;
},
{
smooth = 0;
x = 284;
y = 526;
},
{
segmentType = curve;
smooth = 0;
x = 270;
y = 548;
},
{
smooth = 0;
x = 252;
y = 554;
},
{
smooth = 0;
x = 228;
y = 568;
},
{
segmentType = curve;
smooth = 1;
x = 228;
y = 600;
},
{
smooth = 0;
x = 228;
y = 628;
},
{
smooth = 0;
x = 242;
y = 638;
},
{
segmentType = curve;
smooth = 0;
x = 254;
y = 648;
},
{
smooth = 0;
x = 252;
y = 662;
},
{
smooth = 0;
x = 258;
y = 676;
},
{
segmentType = curve;
smooth = 0;
x = 284;
y = 686;
},
{
segmentType = line;
smooth = 0;
x = 266;
y = 692;
},
{
smooth = 0;
x = 328;
y = 656;
},
{
smooth = 0;
x = 412;
y = 656;
},
{
segmentType = curve;
smooth = 1;
x = 400;
y = 770;
},
{
smooth = 0;
x = 396;
y = 810;
},
{
smooth = 0;
x = 398;
y = 826;
},
{
segmentType = curve;
smooth = 0;
x = 408;
y = 856;
},
{
segmentType = line;
smooth = 0;
x = 396;
y = 890;
},
{
smooth = 0;
x = 378;
y = 870;
},
{
smooth = 0;
x = 360;
y = 848;
},
{
segmentType = curve;
smooth = 1;
x = 366;
y = 794;
},
{
smooth = 0;
x = 376;
y = 712;
},
{
smooth = 0;
x = 340;
y = 692;
},
{
segmentType = curve;
smooth = 0;
x = 292;
y = 716;
},
{
smooth = 0;
x = 284;
y = 734;
},
{
smooth = 0;
x = 280;
y = 766;
},
{
segmentType = curve;
smooth = 0;
x = 278;
y = 786;
},
{
smooth = 0;
x = 264;
y = 812;
},
{
smooth = 0;
x = 258;
y = 836;
},
{
segmentType = curve;
smooth = 1;
x = 258;
y = 854;
},
{
smooth = 0;
x = 258;
y = 880;
},
{
smooth = 0;
x = 260;
y = 914;
},
{
segmentType = curve;
smooth = 1;
x = 302;
y = 952;
},
{
smooth = 0;
x = 318;
y = 968;
},
{
smooth = 0;
x = 332;
y = 998;
},
{
segmentType = curve;
smooth = 0;
x = 346;
y = 1010;
},
{
smooth = 0;
x = 350;
y = 966;
},
{
smooth = 0;
x = 362;
y = 928;
},
{
segmentType = curve;
smooth = 0;
x = 382;
y = 894;
},
{
smooth = 0;
x = 388;
y = 848;
},
{
smooth = 0;
x = 404;
y = 818;
},
{
segmentType = curve;
smooth = 0;
x = 420;
y = 800;
},
{
smooth = 0;
x = 500;
y = 788;
},
{
smooth = 0;
x = 546;
y = 824;
},
{
segmentType = curve;
smooth = 0;
x = 548;
y = 936;
},
{
segmentType = line;
smooth = 0;
x = 518;
y = 950;
},
{
smooth = 0;
x = 518;
y = 858;
},
{
smooth = 0;
x = 478;
y = 834;
},
{
segmentType = curve;
smooth = 0;
x = 434;
y = 836;
},
{
smooth = 0;
x = 420;
y = 856;
},
{
smooth = 0;
x = 408;
y = 894;
},
{
segmentType = curve;
smooth = 0;
x = 408;
y = 924;
},
{
smooth = 0;
x = 392;
y = 952;
},
{
smooth = 0;
x = 380;
y = 982;
},
{
segmentType = curve;
smooth = 1;
x = 380;
y = 1018;
},
{
smooth = 0;
x = 380;
y = 1052;
},
{
smooth = 0;
x = 394;
y = 1084;
},
{
segmentType = curve;
smooth = 1;
x = 410;
y = 1110;
},
{
smooth = 0;
x = 428;
y = 1138;
},
{
smooth = 0;
x = 440;
y = 1168;
},
{
segmentType = curve;
smooth = 1;
x = 458;
y = 1182;
},
{
smooth = 0;
x = 486;
y = 1206;
},
{
smooth = 0;
x = 564;
y = 1200;
},
{
segmentType = curve;
smooth = 0;
x = 604;
y = 1194;
},
{
smooth = 0;
x = 586;
y = 1166;
},
{
smooth = 0;
x = 578;
y = 1142;
},
{
segmentType = curve;
smooth = 0;
x = 574;
y = 1114;
},
{
segmentType = line;
smooth = 0;
x = 608;
y = 1112;
},
{
smooth = 0;
x = 628;
y = 1188;
},
{
smooth = 0;
x = 694;
y = 1276;
},
{
segmentType = curve;
smooth = 1;
x = 746;
y = 1276;
},
{
smooth = 0;
x = 784;
y = 1276;
},
{
smooth = 0;
x = 836;
y = 1266;
},
{
segmentType = curve;
smooth = 1;
x = 856;
y = 1262;
},
{
smooth = 0;
x = 916;
y = 1248;
},
{
smooth = 0;
x = 956;
y = 1224;
},
{
segmentType = curve;
smooth = 0;
x = 986;
y = 1182;
},
{
smooth = 0;
x = 940;
y = 1176;
},
{
smooth = 0;
x = 902;
y = 1146;
},
{
segmentType = curve;
smooth = 0;
x = 886;
y = 1106;
}
);
},
{
points = (
{
segmentType = curve;
smooth = 0;
x = 434;
y = 272;
},
{
smooth = 0;
x = 400;
y = 270;
},
{
smooth = 0;
x = 372;
y = 280;
},
{
segmentType = curve;
smooth = 1;
x = 360;
y = 316;
},
{
smooth = 0;
x = 352;
y = 340;
},
{
smooth = 0;
x = 356;
y = 364;
},
{
segmentType = curve;
smooth = 0;
x = 376;
y = 380;
},
{
smooth = 0;
x = 392;
y = 340;
},
{
smooth = 0;
x = 412;
y = 300;
}
);
},
{
points = (
{
segmentType = line;
smooth = 0;
x = 338;
y = 940;
},
{
segmentType = line;
smooth = 0;
x = 336;
y = 922;
},
{
segmentType = line;
smooth = 0;
x = 390;
y = 898;
},
{
segmentType = line;
smooth = 0;
x = 378;
y = 936;
}
);
},
{
points = (
{
segmentType = line;
smooth = 0;
x = 1182;
y = 1022;
},
{
smooth = 0;
x = 1310;
y = 960;
},
{
smooth = 0;
x = 1494;
y = 844;
},
{
segmentType = curve;
smooth = 0;
x = 1618;
y = 758;
},
{
smooth = 0;
x = 1852;
y = 692;
},
{
smooth = 0;
x = 1996;
y = 612;
},
{
segmentType = curve;
smooth = 0;
x = 2100;
y = 524;
},
{
segmentType = line;
smooth = 0;
x = 2084;
y = 466;
},
{
smooth = 0;
x = 2008;
y = 506;
},
{
smooth = 0;
x = 1926;
y = 520;
},
{
segmentType = curve;
smooth = 0;
x = 1844;
y = 516;
},
{
smooth = 0;
x = 1764;
y = 568;
},
{
smooth = 0;
x = 1642;
y = 628;
},
{
segmentType = curve;
smooth = 1;
x = 1514;
y = 680;
},
{
smooth = 0;
x = 1466;
y = 700;
},
{
smooth = 0;
x = 1444;
y = 734;
},
{
segmentType = curve;
smooth = 0;
x = 1442;
y = 778;
},
{
segmentType = line;
smooth = 0;
x = 1368;
y = 816;
},
{
smooth = 0;
x = 1298;
y = 812;
},
{
smooth = 0;
x = 1272;
y = 838;
},
{
segmentType = curve;
smooth = 0;
x = 1236;
y = 900;
},
{
segmentType = line;
smooth = 0;
x = 1226;
y = 894;
},
{
smooth = 0;
x = 1244;
y = 852;
},
{
smooth = 0;
x = 1258;
y = 790;
},
{
segmentType = curve;
smooth = 1;
x = 1252;
y = 740;
},
{
segmentType = line;
smooth = 1;
x = 1196;
y = 316;
},
{
smooth = 0;
x = 1188;
y = 260;
},
{
smooth = 0;
x = 1196;
y = 210;
},
{
segmentType = curve;
smooth = 0;
x = 1206;
y = 158;
},
{
segmentType = line;
smooth = 0;
x = 1190;
y = 154;
},
{
smooth = 0;
x = 1176;
y = 188;
},
{
smooth = 0;
x = 1156;
y = 250;
},
{
segmentType = curve;
smooth = 1;
x = 1164;
y = 328;
},
{
segmentType = line;
smooth = 1;
x = 1210;
y = 752;
},
{
smooth = 0;
x = 1218;
y = 818;
},
{
smooth = 0;
x = 1202;
y = 932;
},
{
segmentType = curve;
smooth = 0;
x = 1170;
y = 1012;
}
);
},
{
points = (
{
segmentType = curve;
smooth = 0;
x = 778;
y = 1162;
},
{
segmentType = line;
smooth = 0;
x = 902;
y = 1092;
},
{
segmentType = line;
smooth = 0;
x = 1006;
y = 1186;
},
{
segmentType = line;
smooth = 0;
x = 970;
y = 1220;
},
{
segmentType = line;
smooth = 0;
x = 946;
y = 1190;
},
{
smooth = 0;
x = 916;
y = 1210;
},
{
smooth = 0;
x = 874;
y = 1228;
},
{
segmentType = curve;
smooth = 0;
x = 836;
y = 1226;
},
{
smooth = 0;
x = 836;
y = 1192;
},
{
smooth = 0;
x = 806;
y = 1164;
}
);
},
{
points = (
{
smooth = 0;
x = 1470;
y = 128;
},
{
smooth = 0;
x = 1394;
y = 198;
},
{
segmentType = curve;
smooth = 0;
x = 1258;
y = 286;
},
{
segmentType = line;
smooth = 0;
x = 1214;
y = 288;
},
{
segmentType = line;
smooth = 0;
x = 1220;
y = 334;
},
{
segmentType = line;
smooth = 0;
x = 1270;
y = 334;
},
{
smooth = 0;
x = 1454;
y = 240;
},
{
smooth = 0;
x = 1664;
y = -24;
},
{
segmentType = curve;
smooth = 1;
x = 1836;
y = -176;
},
{
segmentType = line;
smooth = 0;
x = 1900;
y = -232;
},
{
segmentType = line;
smooth = 0;
x = 1880;
y = -260;
},
{
smooth = 0;
x = 1831;
y = -218;
},
{
smooth = 0;
x = 1740;
y = -140;
},
{
segmentType = curve;
smooth = 1;
x = 1686;
y = -88;
}
);
},
{
points = (
{
segmentType = curve;
smooth = 1;
x = 928;
y = 1100;
},
{
smooth = 0;
x = 886;
y = 1144;
},
{
smooth = 0;
x = 816;
y = 1176;
},
{
segmentType = curve;
smooth = 1;
x = 768;
y = 1176;
},
{
smooth = 0;
x = 732;
y = 1176;
},
{
smooth = 0;
x = 650;
y = 1150;
},
{
segmentType = curve;
smooth = 0;
x = 606;
y = 1128;
},
{
smooth = 0;
x = 566;
y = 1136;
},
{
smooth = 0;
x = 500;
y = 1138;
},
{
segmentType = curve;
smooth = 0;
x = 456;
y = 1126;
},
{
smooth = 0;
x = 438;
y = 1090;
},
{
smooth = 0;
x = 430;
y = 1038;
},
{
segmentType = curve;
smooth = 1;
x = 468;
y = 984;
},
{
smooth = 0;
x = 506;
y = 930;
},
{
smooth = 0;
x = 606;
y = 892;
},
{
segmentType = curve;
smooth = 0;
x = 708;
y = 906;
},
{
smooth = 0;
x = 764;
y = 880;
},
{
smooth = 0;
x = 844;
y = 858;
},
{
segmentType = curve;
smooth = 0;
x = 904;
y = 848;
},
{
smooth = 0;
x = 918;
y = 870;
},
{
smooth = 0;
x = 940;
y = 884;
},
{
segmentType = curve;
smooth = 0;
x = 968;
y = 882;
},
{
smooth = 0;
x = 1000;
y = 942;
},
{
smooth = 0;
x = 1000;
y = 1024;
}
);
},
{
points = (
{
smooth = 0;
x = 334;
y = 580;
},
{
smooth = 0;
x = 270;
y = 564;
},
{
segmentType = curve;
smooth = 0;
x = 212;
y = 574;
},
{
segmentType = line;
smooth = 0;
x = 212;
y = 536;
},
{
segmentType = line;
smooth = 0;
x = 350;
y = 466;
},
{
segmentType = line;
smooth = 0;
x = 356;
y = 622;
}
);
},
{
points = (
{
segmentType = curve;
smooth = 0;
x = 392;
y = 748;
},
{
segmentType = line;
smooth = 0;
x = 366;
y = 674;
},
{
smooth = 0;
x = 386;
y = 632;
},
{
smooth = 0;
x = 400;
y = 576;
},
{
segmentType = curve;
smooth = 0;
x = 404;
y = 524;
},
{
segmentType = line;
smooth = 0;
x = 426;
y = 528;
},
{
smooth = 0;
x = 430;
y = 586;
},
{
smooth = 0;
x = 416;
y = 668;
}
);
},
{
points = (
{
segmentType = curve;
smooth = 0;
x = 436;
y = 814;
},
{
segmentType = line;
smooth = 0;
x = 508;
y = 840;
},
{
segmentType = line;
smooth = 0;
x = 536;
y = 948;
},
{
segmentType = line;
smooth = 0;
x = 478;
y = 984;
},
{
smooth = 0;
x = 466;
y = 960;
},
{
smooth = 0;
x = 462;
y = 922;
},
{
segmentType = curve;
smooth = 0;
x = 466;
y = 900;
},
{
smooth = 0;
x = 444;
y = 872;
},
{
smooth = 0;
x = 430;
y = 838;
}
);
},
{
points = (
{
segmentType = line;
smooth = 0;
x = -24;
y = -524;
},
{
segmentType = line;
smooth = 0;
x = 2130;
y = -524;
},
{
segmentType = line;
smooth = 0;
x = 2130;
y = 1462;
},
{
segmentType = line;
smooth = 0;
x = -24;
y = 1462;
}
);
}
);
lib = {
};
name = uni270A;
unicodes = (
);
width = 2108;
};
};
};
},
